<svg width="47" height="46" viewBox="0 0 47 46" fill="none" xmlns="http://www.w3.org/2000/svg">
<path d="M45.4728 12.2235L43.5267 22.4047C43.2547 22.2457 42.9718 22.1061 42.6801 21.9867C42.7979 21.1224 42.7553 20.6425 42.5722 20.3701C42.6093 20.3057 42.6305 20.2334 42.634 20.1592C42.6375 20.085 42.6233 20.011 42.5924 19.9434C42.5615 19.8758 42.5149 19.8165 42.4565 19.7706C42.3981 19.7247 42.3295 19.6933 42.2565 19.6793C42.1965 19.6678 42.1347 19.6683 42.0748 19.6807C42.0149 19.6931 41.958 19.7172 41.9074 19.7516C41.8569 19.786 41.8135 19.83 41.78 19.8811C41.7464 19.9323 41.7232 19.9895 41.7118 20.0496C41.7094 20.0636 41.707 20.0784 41.7053 20.0922C41.3448 20.254 41.1085 20.806 40.8705 21.4683L40.8656 21.5167C39.3985 21.3419 37.914 21.642 36.63 22.373C36.5311 20.6239 37.1419 18.3278 36.6029 17.5593C36.6648 17.4543 36.6827 17.3291 36.6528 17.211C36.6363 17.1451 36.6057 17.0837 36.5629 17.0311C36.5202 16.9784 36.4664 16.9358 36.4053 16.9062C36.3133 16.8615 36.2092 16.8483 36.1089 16.8686C36.0087 16.8889 35.9178 16.9415 35.8504 17.0184C35.8058 17.0695 35.7729 17.1298 35.754 17.195C35.7351 17.2602 35.7307 17.3287 35.7411 17.3958C34.5195 18.1285 34.3202 22.696 32.7297 22.4393C31.1286 22.18 33.5016 15.6754 32.3134 14.2061C32.3499 14.1536 32.3746 14.0939 32.386 14.031C32.3975 13.9709 32.3971 13.9092 32.3848 13.8493C32.3724 13.7894 32.3483 13.7325 32.3139 13.6819C32.2708 13.6186 32.2128 13.5669 32.145 13.5314C32.0771 13.4958 32.0016 13.4775 31.9251 13.4781C31.8485 13.4787 31.7732 13.4981 31.706 13.5347C31.6387 13.5712 31.5815 13.6238 31.5393 13.6877C31.4813 13.7755 31.455 13.8805 31.4646 13.9853C29.7024 14.8764 29.6051 24.3936 27.0655 23.9676C24.5715 23.5496 27.3327 16.0189 26.1112 14.5249C26.1475 14.4263 26.1493 14.3183 26.1163 14.2185C26.0834 14.1187 26.0176 14.033 25.9298 13.9754C25.8528 13.9246 25.7624 13.8978 25.6702 13.8985C25.578 13.8992 25.4881 13.9273 25.4119 13.9792C25.3097 14.0488 25.2392 14.1561 25.2159 14.2775C25.2118 14.2996 25.2093 14.322 25.2084 14.3445C23.4808 15.1036 22.5238 21.322 21.5156 21.188L24.013 8.12122L45.4728 12.2235ZM29.7038 10.3578C29.7225 10.2604 29.7119 10.1597 29.6732 10.0684C29.6346 9.97712 29.5697 9.89935 29.4868 9.84497C29.397 9.78596 29.2906 9.7574 29.1833 9.76351C29.076 9.76961 28.9735 9.81006 28.891 9.87887C28.8084 9.94768 28.7502 10.0412 28.7249 10.1457C28.6996 10.2501 28.7085 10.3599 28.7504 10.4589C28.7923 10.5578 28.8649 10.6407 28.9575 10.6953C29.05 10.7498 29.1577 10.7732 29.2646 10.7618C29.3715 10.7505 29.4718 10.7051 29.5509 10.6324C29.63 10.5596 29.6836 10.4633 29.7038 10.3578ZM27.6066 9.95624C27.6253 9.85888 27.6146 9.75817 27.576 9.66687C27.5374 9.57557 27.4725 9.4978 27.3896 9.44342C27.2998 9.38442 27.1934 9.35586 27.0861 9.36196C26.9788 9.36806 26.8763 9.40851 26.7938 9.47732C26.7112 9.54613 26.653 9.63966 26.6277 9.74411C26.6023 9.84855 26.6113 9.95836 26.6532 10.0573C26.695 10.1563 26.7676 10.2392 26.8602 10.2937C26.9528 10.3483 27.0605 10.3716 27.1674 10.3603C27.2742 10.349 27.3746 10.3036 27.4537 10.2308C27.5328 10.1581 27.5864 10.0618 27.6066 9.95624ZM25.5098 9.5559C25.5285 9.45859 25.5178 9.35793 25.4791 9.2667C25.4404 9.17548 25.3755 9.09781 25.2926 9.04357C25.2028 8.98464 25.0964 8.95617 24.9892 8.96234C24.8819 8.96851 24.7795 9.00901 24.697 9.07785C24.6146 9.14668 24.5564 9.24022 24.5312 9.34463C24.506 9.44904 24.515 9.5588 24.5569 9.6577C24.5989 9.75659 24.6715 9.83938 24.7641 9.89384C24.8567 9.9483 24.9643 9.97154 25.0711 9.96013C25.1779 9.94872 25.2782 9.90327 25.3572 9.83048C25.4362 9.75769 25.4897 9.66143 25.5098 9.5559Z" fill="white"/>
<path d="M44.9377 23.4919C45.9038 24.4585 46.5618 25.6897 46.8283 27.0301C47.0948 28.3705 46.9579 29.7598 46.4349 31.0224C45.9119 32.285 45.0263 33.3642 43.8901 34.1235C42.7538 34.8829 41.418 35.2883 40.0513 35.2885C38.2186 35.2885 36.461 34.5604 35.165 33.2646L40.0513 28.3783L44.9377 23.4919Z" fill="url(#paint0_linear_276_823)"/>
<path d="M44.9377 23.492L40.0513 28.3778L35.165 23.4915C36.13 22.5277 37.3583 21.8706 38.6956 21.6027C40.0329 21.3349 41.4195 21.4683 42.6812 21.9862C43.5257 22.3337 44.2927 22.8456 44.9377 23.492Z" fill="url(#paint1_linear_276_823)"/>
<path d="M42.5735 20.3701C42.7566 20.6425 42.7992 21.1224 42.6814 21.9867C42.1009 21.748 41.4905 21.5898 40.8672 21.5164L40.872 21.4681C41.1101 20.8058 41.3464 20.2537 41.7068 20.0919C41.6964 20.1979 41.7226 20.3042 41.781 20.3932C41.8395 20.4822 41.9267 20.5484 42.0281 20.5809C42.1295 20.6134 42.2389 20.6102 42.3382 20.5718C42.4375 20.5334 42.5206 20.4621 42.5738 20.3699L42.5735 20.3701Z" fill="white"/>
<path d="M42.2576 19.6794C42.3307 19.6933 42.3994 19.7245 42.4579 19.7704C42.5164 19.8163 42.5631 19.8756 42.594 19.9432C42.625 20.0109 42.6392 20.085 42.6356 20.1593C42.632 20.2336 42.6106 20.3059 42.5733 20.3703C42.4583 20.2106 42.2864 20.1012 42.0931 20.0645C41.9648 20.0283 41.8279 20.0382 41.7061 20.0923C41.7077 20.0785 41.7102 20.0638 41.7128 20.0497C41.7298 19.9591 41.7733 19.8756 41.838 19.8098C41.9026 19.7441 41.9853 19.6991 42.0757 19.6806C42.1357 19.6683 42.1976 19.6678 42.2576 19.6794Z" fill="url(#paint2_linear_276_823)"/>
<path d="M42.5733 20.3701C42.5202 20.4624 42.437 20.5337 42.3377 20.5721C42.2384 20.6105 42.129 20.6137 42.0276 20.5812C41.9262 20.5487 41.839 20.4825 41.7806 20.3935C41.7221 20.3045 41.6959 20.1982 41.7063 20.0922C41.8282 20.0381 41.9651 20.0282 42.0934 20.0644C42.2866 20.1011 42.4584 20.2105 42.5733 20.3701Z" fill="url(#paint3_linear_276_823)"/>
<path d="M40.0501 28.3779L35.1638 33.2642C34.5219 32.6226 34.0127 31.8609 33.6652 31.0225C33.3177 30.1841 33.1388 29.2854 33.1387 28.3779C33.1388 27.4703 33.3177 26.5717 33.6652 25.7333C34.0127 24.8949 34.5219 24.1331 35.1638 23.4916L40.0501 28.3779Z" fill="url(#paint4_linear_276_823)"/>
<path d="M36.2899 16.868C36.363 16.8819 36.4318 16.9131 36.4904 16.9591C36.549 17.0052 36.5956 17.0646 36.6265 17.1324C36.6573 17.2001 36.6714 17.2744 36.6676 17.3487C36.6638 17.4231 36.6422 17.4955 36.6046 17.5598C36.5211 17.4351 36.3923 17.3477 36.2456 17.3162C36.1607 17.2954 36.0725 17.2917 35.9862 17.3055C35.8999 17.3192 35.8172 17.3501 35.7429 17.3963C35.7313 17.3226 35.7377 17.2472 35.7614 17.1765C35.7852 17.1058 35.8256 17.0419 35.8794 16.9901C35.9329 16.9382 35.9982 16.9 36.0697 16.8787C36.1411 16.8575 36.2167 16.8538 36.2899 16.868Z" fill="url(#paint5_linear_276_823)"/>
<path d="M36.604 17.5599C37.1429 18.3276 36.5314 20.6237 36.631 22.3736C35.7374 22.8832 34.9687 23.5856 34.3808 24.4297C33.7929 25.2739 33.4007 26.2385 33.2326 27.2534L28.9293 26.4309L20.8096 24.8789L21.4344 21.609L21.5154 21.1888C22.5236 21.3228 23.4803 15.1044 25.2104 14.3455C25.2054 14.4566 25.2404 14.5658 25.309 14.6532C25.3776 14.7407 25.4753 14.8007 25.5844 14.8223C25.6933 14.8442 25.8065 14.8264 25.9035 14.7721C26.0005 14.7178 26.0749 14.6306 26.1132 14.5262C27.3347 16.0202 24.5735 23.5509 27.0674 23.9689C29.6073 24.3949 29.7041 14.8777 31.4666 13.9866C31.4752 14.0819 31.5131 14.1722 31.575 14.2451C31.6369 14.3181 31.7198 14.3701 31.8125 14.3942C31.905 14.4183 32.0027 14.4133 32.0923 14.3799C32.182 14.3465 32.2591 14.2863 32.3132 14.2074C33.5014 15.6767 31.1279 22.1813 32.7295 22.4406C34.32 22.6973 34.5195 18.1298 35.7411 17.3971C35.7555 17.4923 35.7991 17.5807 35.8659 17.65C35.9327 17.7193 36.0195 17.7661 36.1141 17.7839C36.2087 17.8018 36.3064 17.7899 36.3939 17.7499C36.4815 17.71 36.5544 17.6438 36.6027 17.5606L36.604 17.5599Z" fill="white"/>
<path d="M36.2448 17.3163C36.3916 17.3478 36.5203 17.4351 36.6038 17.5599C36.5556 17.6432 36.4826 17.7095 36.3951 17.7496C36.3075 17.7896 36.2096 17.8015 36.115 17.7836C36.0204 17.7656 35.9337 17.7187 35.8669 17.6493C35.8001 17.58 35.7565 17.4916 35.7422 17.3963C35.8164 17.3502 35.8991 17.3193 35.9854 17.3055C36.0718 17.2918 36.16 17.2954 36.2448 17.3163Z" fill="url(#paint6_linear_276_823)"/>
<path d="M32.0179 13.4862C32.1392 13.5095 32.2464 13.58 32.3159 13.6822C32.3853 13.7844 32.4114 13.91 32.3885 14.0314C32.3766 14.0944 32.3515 14.1541 32.3147 14.2065C32.2005 14.0612 32.037 13.9628 31.8551 13.9301C31.7228 13.904 31.5856 13.9236 31.4659 13.9857C31.4552 13.8716 31.4871 13.7576 31.5555 13.6656C31.6238 13.5736 31.7237 13.5102 31.836 13.4874C31.896 13.475 31.9577 13.4746 32.0179 13.4862Z" fill="url(#paint7_linear_276_823)"/>
<path d="M32.3144 14.2067C32.2602 14.2854 32.1831 14.3456 32.0935 14.379C32.0039 14.4124 31.9062 14.4174 31.8137 14.3934C31.721 14.3695 31.6381 14.3174 31.5761 14.2445C31.5142 14.1715 31.4764 14.0811 31.4678 13.9858C31.5875 13.9237 31.7247 13.9041 31.857 13.9302C32.0381 13.9634 32.2008 14.0618 32.3144 14.2067Z" fill="url(#paint8_linear_276_823)"/>
<path d="M29.3062 9.77029C29.4283 9.79394 29.5372 9.86204 29.6119 9.96141C29.6866 10.0608 29.7218 10.1843 29.7106 10.3082C29.6995 10.432 29.6427 10.5473 29.5514 10.6317C29.4601 10.7161 29.3408 10.7636 29.2164 10.765C29.1422 10.7655 29.0689 10.7495 29.0016 10.7182C28.9343 10.687 28.8747 10.6412 28.8272 10.5842C28.7798 10.5272 28.7455 10.4603 28.7269 10.3885C28.7083 10.3167 28.7059 10.2416 28.7198 10.1687C28.7452 10.0384 28.8211 9.92333 28.9309 9.8487C29.0408 9.77407 29.1757 9.74588 29.3062 9.77029Z" fill="url(#paint9_linear_276_823)"/>
<path d="M27.2083 9.36995C27.3057 9.3886 27.3953 9.43565 27.466 9.50517C27.5366 9.57469 27.5851 9.66358 27.6053 9.76061C27.6271 9.8659 27.6145 9.97541 27.5693 10.073C27.5241 10.1705 27.4487 10.251 27.3543 10.3024C27.2599 10.3539 27.1514 10.3736 27.0449 10.3586C26.9384 10.3437 26.8396 10.2949 26.7629 10.2195C26.6863 10.1441 26.6359 10.046 26.6193 9.9398C26.6027 9.83357 26.6207 9.7248 26.6706 9.62957C26.7205 9.53434 26.7997 9.45769 26.8966 9.41094C26.9934 9.36419 27.1027 9.34982 27.2083 9.36995Z" fill="url(#paint10_linear_276_823)"/>
<path d="M25.5816 31.0088L27.0721 38.9101L25.8883 39.1334L24.3984 31.2321L25.5816 31.0088Z" fill="url(#paint11_linear_276_823)"/>
<path d="M25.7637 13.9071C25.83 13.9199 25.8927 13.9469 25.9476 13.9863C26.0024 14.0257 26.0481 14.0766 26.0813 14.1353C26.1146 14.1941 26.1348 14.2594 26.1403 14.3267C26.1459 14.394 26.1368 14.4617 26.1137 14.5252C26.0082 14.3919 25.8559 14.3038 25.6877 14.2789C25.5258 14.2537 25.3601 14.2765 25.2109 14.3445C25.214 14.2777 25.2314 14.2124 25.2618 14.1529C25.2923 14.0935 25.3352 14.0413 25.3876 13.9998C25.44 13.9583 25.5007 13.9286 25.5656 13.9126C25.6305 13.8966 25.698 13.8947 25.7637 13.9071Z" fill="url(#paint12_linear_276_823)"/>
<path d="M25.6872 14.2791C25.8553 14.304 26.0077 14.3921 26.1132 14.5254C26.0749 14.6297 26.0006 14.717 25.9036 14.7713C25.8066 14.8256 25.6934 14.8434 25.5844 14.8214C25.4754 14.7997 25.3778 14.7397 25.3092 14.6523C25.2406 14.5648 25.2055 14.4557 25.2104 14.3447C25.3595 14.2767 25.5253 14.254 25.6872 14.2791Z" fill="url(#paint13_linear_276_823)"/>
<path d="M24.7744 26.7256L23.5908 26.9489L24.3995 31.2343L25.5828 31.011L24.7744 26.7256Z" fill="url(#paint14_linear_276_823)"/>
<path d="M25.1116 8.96931C25.209 8.98796 25.2986 9.03501 25.3693 9.10454C25.4399 9.17406 25.4884 9.26294 25.5086 9.35997C25.5304 9.46526 25.5178 9.57478 25.4726 9.67234C25.4274 9.76991 25.352 9.85035 25.2576 9.90179C25.1632 9.95323 25.0547 9.97294 24.9482 9.95801C24.8417 9.94309 24.7429 9.89431 24.6662 9.81889C24.5896 9.74346 24.5393 9.6454 24.5226 9.53916C24.506 9.43293 24.524 9.32417 24.5739 9.22894C24.6238 9.1337 24.7031 9.05705 24.7999 9.0103C24.8967 8.96355 25.006 8.94918 25.1116 8.96931Z" fill="url(#paint15_linear_276_823)"/>
<path d="M23.0984 36.2275L23.7237 39.5415V39.5422L22.5406 39.7648L21.915 36.4506L23.0984 36.2275Z" fill="url(#paint16_linear_276_823)"/>
<path d="M21.4258 27.3567L20.2422 27.58L21.9161 36.4518L23.0995 36.2285L21.4258 27.3567Z" fill="url(#paint17_linear_276_823)"/>
<path d="M19.2495 34.2113L20.3738 40.1738L19.1905 40.3971L18.0654 34.4346L19.2485 34.2113H19.2495Z" fill="url(#paint18_linear_276_823)"/>
<path d="M18.0757 27.9871L19.2498 34.2113H19.2489L18.0658 34.4346L16.8916 28.2103L18.0757 27.9871Z" fill="url(#paint19_linear_276_823)"/>
<path d="M17.6942 8.82714C18.0531 10.1872 17.951 11.6278 17.4039 12.9237C16.462 15.1132 16.2129 17.5386 16.6901 19.8738L16.7155 19.9967C16.7797 20.3008 16.7253 20.6179 16.5634 20.8832C16.4015 21.1485 16.1444 21.3419 15.8447 21.4239L15.6441 21.4761L15.6417 21.4672L13.2346 12.28C13.0597 13.2185 12.5297 13.2137 12.0808 12.8835C12.3737 12.2212 12.3139 11.1501 11.7046 11.3095C11.0546 11.4788 11.4987 12.4551 12.0808 12.8835C11.8526 13.4004 11.4095 13.6685 10.8471 12.9058L13.2537 22.0939L13.2561 22.1022L13.1008 22.1431C13.0038 22.1672 12.9042 22.1793 12.804 22.1798C12.5448 22.1792 12.2925 22.0961 12.0838 21.9425C11.875 21.7889 11.7206 21.5727 11.6429 21.3254C10.9154 19.0148 9.49762 16.9824 7.58027 15.5018C6.77702 14.8782 6.13397 14.0722 5.70441 13.1504C5.27485 12.2287 5.07114 11.2179 5.11019 10.2018C5.14923 9.18566 5.42989 8.19346 5.92892 7.30744C6.42794 6.42141 7.13095 5.66708 7.97967 5.10697C8.8284 4.54686 9.79839 4.1971 10.8093 4.08667C11.8201 3.97624 12.8428 4.10833 13.7924 4.472C14.7421 4.83566 15.5913 5.42042 16.2699 6.17781C16.9484 6.93519 17.4367 7.8434 17.6942 8.82714Z" fill="url(#paint20_linear_276_823)"/>
<path d="M17.0761 23.0137C17.0968 23.0915 17.1019 23.1727 17.0911 23.2525C17.0803 23.3324 17.0538 23.4093 17.0132 23.4788C16.9725 23.5484 16.9185 23.6092 16.8542 23.6578C16.79 23.7063 16.7167 23.7417 16.6387 23.7619L13.5976 24.5582C13.5197 24.5785 13.4386 24.5833 13.3589 24.5725C13.1979 24.5499 13.0523 24.4646 12.9539 24.3352C12.8729 24.2286 12.8291 24.0984 12.8291 23.9646C12.8294 23.8291 12.8744 23.6975 12.9572 23.5903C13.0401 23.483 13.156 23.4062 13.287 23.3717L16.3279 22.5754C16.4058 22.5548 16.487 22.5498 16.5669 22.5607C16.6467 22.5716 16.7236 22.5982 16.7932 22.6389C16.8627 22.6796 16.9235 22.7337 16.972 22.798C17.0206 22.8624 17.056 22.9356 17.0761 23.0137Z" fill="url(#paint21_linear_276_823)"/>
<path d="M16.7744 39.4757L15.5908 39.6987L15.8419 41.0301L17.0255 40.8071L16.7744 39.4757Z" fill="url(#paint22_linear_276_823)"/>
<path d="M16.7751 23.7365C16.8571 24.0511 16.8109 24.3854 16.6467 24.666C16.4825 24.9466 16.2137 25.1507 15.8992 25.2333L14.8731 25.5016C14.5584 25.584 14.2239 25.5382 13.943 25.3743C13.6623 25.2098 13.4584 24.9406 13.376 24.6259L16.7751 23.7365Z" fill="url(#paint23_linear_276_823)"/>
<path d="M14.7261 28.6189L16.7735 39.4745L15.5904 39.6978L13.542 28.8422L14.7261 28.6189Z" fill="url(#paint24_linear_276_823)"/>
<path d="M16.7638 21.8174C16.7843 21.8953 16.7892 21.9766 16.7782 22.0564C16.7672 22.1363 16.7406 22.2132 16.6999 22.2828C16.6592 22.3523 16.6052 22.4132 16.5409 22.4619C16.4767 22.5106 16.4035 22.5461 16.3255 22.5665L13.2846 23.3628C13.192 23.3874 13.0949 23.3897 13.0012 23.3695C12.9075 23.3493 12.82 23.3072 12.7457 23.2467C12.6744 23.189 12.6168 23.1162 12.5772 23.0334C12.5376 22.9507 12.5169 22.8602 12.5166 22.7685C12.5168 22.633 12.5618 22.5014 12.6446 22.3941C12.7275 22.2869 12.8435 22.21 12.9745 22.1756L13.1005 22.143L13.2558 22.1021L15.6434 21.4773L15.8439 21.425L16.0154 21.38C16.1726 21.339 16.3397 21.362 16.48 21.4439C16.6203 21.5259 16.7224 21.6602 16.7638 21.8174Z" fill="url(#paint25_linear_276_823)"/>
<path d="M15.6398 21.4683L15.6423 21.4773L13.2547 22.1021L13.2523 22.0939L10.8457 12.9057C11.4084 13.6684 11.8515 13.4004 12.0794 12.8834C12.5283 13.2139 13.0583 13.2187 13.2332 12.2802L15.6398 21.4683Z" fill="url(#paint26_linear_276_823)"/>
<path d="M11.7042 11.3093C12.3135 11.1499 12.3733 12.221 12.0804 12.8833C11.4984 12.4549 11.0542 11.4794 11.7042 11.3093Z" fill="url(#paint27_linear_276_823)"/>
<path d="M10.536 32.4579C10.683 33.2386 10.514 34.0457 10.0661 34.7019C9.61819 35.358 8.9281 35.8094 8.14748 35.9569L7.99219 35.1318C8.39418 35.0562 8.76634 34.8677 9.0652 34.5885C9.36406 34.3092 9.57726 33.9506 9.6799 33.5547C9.78279 33.1588 9.77091 32.7418 9.64567 32.3525C9.52042 31.9631 9.28697 31.6174 8.97259 31.3558L9.5367 30.7351C10.0576 31.1777 10.4104 31.786 10.536 32.4579Z" fill="url(#paint28_linear_276_823)"/>
<path d="M9.53664 30.7349L8.97253 31.3556C8.61554 31.0574 8.17163 30.8826 7.70713 30.8575C7.24262 30.8324 6.78246 30.9582 6.39537 31.2162C6.00829 31.4742 5.71506 31.8505 5.5595 32.2889C5.40394 32.7273 5.39439 33.2043 5.53228 33.6486L5.51898 33.6527L4.70475 33.8065C4.53494 33.1887 4.56774 32.5327 4.79834 31.9348C5.02895 31.337 5.44519 30.8289 5.98593 30.4851C6.52667 30.1413 7.1634 29.9801 7.80258 30.0249C8.44177 30.0698 9.04972 30.3185 9.53712 30.7344L9.53664 30.7349Z" fill="url(#paint29_linear_276_823)"/>
<path d="M8.79657 40.9799L9.04766 42.3103L6.8048 42.7339L6.55371 41.4025L8.79657 40.9799Z" fill="url(#paint30_linear_276_823)"/>
<path d="M8.42328 38.9962L8.67436 40.3266L6.43053 40.7502L6.17969 39.4191L8.42328 38.9962Z" fill="url(#paint31_linear_276_823)"/>
<path d="M8.32119 25.4562C8.33755 25.5433 8.33437 25.633 8.31188 25.7188C8.2894 25.8046 8.24816 25.8843 8.19115 25.9522C8.13414 26.0201 8.06277 26.0745 7.98219 26.1115C7.90161 26.1485 7.81382 26.1672 7.72516 26.1662C7.60657 26.1651 7.49096 26.1288 7.39303 26.0619C7.29509 25.995 7.21923 25.9006 7.17509 25.7905C7.14206 25.7082 7.12765 25.6197 7.13289 25.5312C7.13812 25.4428 7.16288 25.3566 7.20539 25.2788C7.24789 25.201 7.30708 25.1336 7.37871 25.0815C7.45034 25.0293 7.53264 24.9936 7.61969 24.977C7.6971 24.9622 7.77693 24.9632 7.85409 24.9794C7.93141 24.9953 8.00479 25.0265 8.06998 25.071C8.13518 25.1155 8.19088 25.1725 8.23387 25.2387C8.27693 25.3048 8.30644 25.3785 8.32119 25.4562Z" fill="url(#paint32_linear_276_823)"/>
<path d="M8.04828 37.0126L8.29937 38.3428L6.05553 38.7663L5.80469 37.4352L8.04828 37.0126Z" fill="url(#paint33_linear_276_823)"/>
<path d="M7.99196 35.1318L8.14725 35.9569C7.40825 36.0963 6.64382 35.9526 6.00589 35.5544C5.36796 35.1561 4.90325 34.5323 4.7041 33.8071L5.51832 33.6533L5.53163 33.6492C5.68824 34.1552 6.02552 34.586 6.47923 34.8594C6.93294 35.1328 7.47138 35.2297 7.99196 35.1318Z" fill="url(#paint34_linear_276_823)"/>
<path d="M5.80876 25.9296C5.82396 26.0073 5.82364 26.0872 5.80783 26.1647C5.79202 26.2423 5.76102 26.3159 5.71663 26.3814C5.67224 26.4469 5.61533 26.503 5.54918 26.5464C5.48302 26.5898 5.40893 26.6197 5.33118 26.6344C5.25342 26.649 5.17353 26.6482 5.09611 26.6318C5.01869 26.6155 4.94526 26.584 4.88007 26.5391C4.81487 26.4943 4.75919 26.437 4.71623 26.3705C4.67327 26.3041 4.64388 26.2298 4.62976 26.152C4.60148 25.9961 4.63598 25.8354 4.72574 25.7049C4.8155 25.5744 4.95322 25.4847 5.10887 25.4553C5.26452 25.426 5.42545 25.4594 5.55657 25.5482C5.68769 25.6371 5.77834 25.7742 5.80876 25.9296Z" fill="url(#paint35_linear_276_823)"/>
<path d="M3.29678 26.404C3.31318 26.4912 3.31004 26.5809 3.28757 26.6667C3.2651 26.7525 3.22386 26.8322 3.16684 26.9001C3.10982 26.968 3.03843 27.0224 2.95783 27.0594C2.87723 27.0964 2.78942 27.1151 2.70075 27.114C2.58216 27.1129 2.46657 27.0766 2.36864 27.0097C2.27071 26.9428 2.19485 26.8484 2.15067 26.7383C2.11765 26.6561 2.10323 26.5676 2.10847 26.4791C2.11371 26.3906 2.13847 26.3044 2.18097 26.2266C2.22347 26.1489 2.28267 26.0815 2.3543 26.0293C2.42593 25.9771 2.50823 25.9414 2.59528 25.9248C2.67281 25.91 2.75251 25.9107 2.82978 25.9268C2.90705 25.943 2.98035 25.9743 3.04545 26.0189C3.11061 26.0634 3.16635 26.1204 3.20948 26.1864C3.25261 26.2525 3.28227 26.3265 3.29678 26.404Z" fill="url(#paint36_linear_276_823)"/>
<path d="M15.844 21.4249C16.1437 21.3429 16.4008 21.1495 16.5627 20.8842C16.7246 20.6189 16.779 20.3018 16.7148 19.9977L16.6894 19.8748C16.2122 17.5396 16.4613 15.1142 17.4032 12.9247C17.8655 11.8238 18.0106 10.6154 17.8219 9.43641C17.6333 8.25738 17.1184 7.15465 16.3357 6.25296C15.553 5.35127 14.5336 4.6866 13.3927 4.33411C12.2519 3.98162 11.0352 3.95539 9.88027 4.25837C8.72532 4.56136 7.67819 5.18148 6.85732 6.04859C6.03645 6.91571 5.47459 7.99521 5.23529 9.16502C4.99598 10.3348 5.08879 11.5483 5.50321 12.6681C5.91763 13.7879 6.63712 14.7694 7.58031 15.5016C9.4972 16.9824 10.9146 19.0147 11.6417 21.3252C11.7194 21.5726 11.8738 21.7887 12.0826 21.9423C12.2913 22.096 12.5436 22.1791 12.8029 22.1796C12.9029 22.1793 13.0026 22.167 13.0997 22.1428" stroke="url(#paint37_linear_276_823)" stroke-width="0.08112" stroke-linecap="round" stroke-linejoin="round"/>
<path d="M12.7447 23.2472C12.6734 23.1895 12.6159 23.1166 12.5762 23.0339C12.5366 22.9512 12.5159 22.8607 12.5156 22.769C12.5158 22.6335 12.5608 22.5018 12.6437 22.3946C12.7265 22.2873 12.8425 22.2105 12.9735 22.1761L13.0996 22.1434L13.2549 22.1025L15.6424 21.4777L15.8429 21.4255L16.0144 21.3805C16.0924 21.3599 16.1736 21.355 16.2535 21.3658C16.3334 21.3767 16.4103 21.4032 16.48 21.4438C16.5496 21.4844 16.6106 21.5384 16.6593 21.6025C16.7081 21.6667 16.7438 21.7399 16.7643 21.8178C16.7847 21.8958 16.7896 21.977 16.7787 22.0569C16.7677 22.1368 16.7411 22.2137 16.7004 22.2832C16.6597 22.3528 16.6057 22.4137 16.5414 22.4624C16.4772 22.5111 16.404 22.5466 16.326 22.567L13.2844 23.3628C13.1918 23.3874 13.0946 23.3897 13.001 23.3695C12.9073 23.3493 12.8197 23.3072 12.7454 23.2467" stroke="url(#paint38_linear_276_823)" stroke-width="0.08112" stroke-linecap="round" stroke-linejoin="round"/>
<path d="M13.2344 12.2802L15.6408 21.4683" stroke="url(#paint39_linear_276_823)" stroke-width="0.08112" stroke-linecap="round" stroke-linejoin="round"/>
<path d="M12.0801 12.8834C12.529 13.2139 13.059 13.2187 13.2339 12.2802" stroke="url(#paint40_linear_276_823)" stroke-width="0.08112" stroke-linecap="round" stroke-linejoin="round"/>
<path d="M12.0804 12.8833C12.3733 12.221 12.3135 11.1499 11.7042 11.3093C11.0542 11.4794 11.4984 12.4549 12.0804 12.8833Z" stroke="url(#paint41_linear_276_823)" stroke-width="0.08112" stroke-linecap="round" stroke-linejoin="round"/>
<path d="M13.2523 22.0939L10.8457 12.9057C11.4084 13.6684 11.8515 13.4004 12.0794 12.8834" stroke="url(#paint42_linear_276_823)" stroke-width="0.08112" stroke-linecap="round" stroke-linejoin="round"/>
<path d="M16.7277 22.6059C16.8447 22.6568 16.9429 22.7429 17.0087 22.8522C17.0744 22.9615 17.1045 23.0885 17.0947 23.2157C17.0849 23.3429 17.0358 23.4639 16.954 23.5618C16.8723 23.6597 16.7621 23.7298 16.6387 23.7622L13.5976 24.5585C13.5197 24.5788 13.4386 24.5836 13.3589 24.5728C13.1979 24.5502 13.0523 24.4649 12.9539 24.3355C12.8729 24.2289 12.8291 24.0987 12.8291 23.9649C12.8294 23.8294 12.8744 23.6978 12.9572 23.5906C13.0401 23.4833 13.156 23.4065 13.287 23.372L16.3279 22.5757C16.4609 22.5411 16.6015 22.5515 16.7277 22.6059Z" stroke="url(#paint43_linear_276_823)" stroke-width="0.08112" stroke-linecap="round" stroke-linejoin="round"/>
<path d="M15.8992 25.2335L14.8731 25.5018C14.5584 25.5842 14.2239 25.5385 13.943 25.3746C13.6623 25.2101 13.4584 24.9409 13.376 24.6261L16.7751 23.7365C16.8574 24.0511 16.8113 24.3856 16.6471 24.6663C16.4828 24.947 16.2138 25.1511 15.8992 25.2335Z" stroke="url(#paint44_linear_276_823)" stroke-width="0.08112" stroke-linecap="round" stroke-linejoin="round"/>
<path d="M43.5266 22.4054C45.0585 23.2995 46.1833 24.7536 46.6637 26.4611C47.1442 28.1685 46.9427 29.9958 46.1018 31.5576C45.2612 33.1195 43.8468 34.2939 42.1569 34.833C40.4671 35.3721 38.6339 35.2338 37.044 34.4473C35.8579 33.8609 34.8672 32.9432 34.1921 31.8053C33.5169 30.6674 33.1862 29.3581 33.24 28.036C33.2939 26.7139 33.7299 25.4359 34.4954 24.3566C35.2608 23.2773 36.3228 22.4432 37.5527 21.9553C39.2013 21.3008 41.0396 21.312 42.68 21.9867C42.9716 22.106 43.2545 22.2457 43.5266 22.4047" stroke="url(#paint45_linear_276_823)" stroke-width="0.08112" stroke-linecap="round" stroke-linejoin="round"/>
<path d="M16.6934 22.5026L16.7088 22.4994L21.435 21.608" stroke="url(#paint46_linear_276_823)" stroke-width="0.08112" stroke-linecap="round" stroke-linejoin="round"/>
<path d="M28.9296 26.4301L31.5796 40.4811L4.78592 45.536L1 25.4627L12.7453 23.2467H12.746" stroke="url(#paint47_linear_276_823)" stroke-width="0.08112" stroke-linecap="round" stroke-linejoin="round"/>
<path d="M4.36914 27.9247L20.3048 24.9182" stroke="url(#paint48_linear_276_823)" stroke-width="0.08112" stroke-linecap="round" stroke-linejoin="round"/>
<path d="M3.29678 26.404C3.31318 26.4912 3.31004 26.5809 3.28757 26.6667C3.2651 26.7525 3.22386 26.8322 3.16684 26.9001C3.10982 26.968 3.03843 27.0224 2.95783 27.0594C2.87723 27.0964 2.78942 27.1151 2.70075 27.114C2.58216 27.1129 2.46657 27.0766 2.36864 27.0097C2.27071 26.9428 2.19485 26.8484 2.15067 26.7383C2.11765 26.6561 2.10323 26.5676 2.10847 26.4791C2.11371 26.3906 2.13847 26.3044 2.18097 26.2266C2.22347 26.1489 2.28267 26.0815 2.3543 26.0293C2.42593 25.9771 2.50823 25.9414 2.59528 25.9248C2.67281 25.91 2.75251 25.9107 2.82978 25.9268C2.90705 25.943 2.98035 25.9743 3.04545 26.0189C3.11061 26.0634 3.16635 26.1204 3.20948 26.1864C3.25261 26.2525 3.28227 26.3265 3.29678 26.404Z" stroke="url(#paint49_linear_276_823)" stroke-width="0.08112" stroke-linecap="round" stroke-linejoin="round"/>
<path d="M5.80876 25.9296C5.82396 26.0073 5.82364 26.0872 5.80783 26.1647C5.79202 26.2423 5.76102 26.3159 5.71663 26.3814C5.67224 26.4469 5.61533 26.503 5.54918 26.5464C5.48302 26.5898 5.40893 26.6197 5.33118 26.6344C5.25342 26.649 5.17353 26.6482 5.09611 26.6318C5.01869 26.6155 4.94527 26.584 4.88007 26.5391C4.81487 26.4943 4.75919 26.437 4.71623 26.3705C4.67327 26.3041 4.64388 26.2298 4.62976 26.152C4.60148 25.9961 4.63598 25.8354 4.72574 25.7049C4.8155 25.5744 4.95322 25.4847 5.10887 25.4553C5.26452 25.426 5.42545 25.4594 5.55657 25.5482C5.68769 25.6371 5.77834 25.7742 5.80876 25.9296Z" stroke="url(#paint50_linear_276_823)" stroke-width="0.08112" stroke-linecap="round" stroke-linejoin="round"/>
<path d="M8.32119 25.4562C8.33755 25.5433 8.33437 25.633 8.31188 25.7188C8.2894 25.8046 8.24816 25.8843 8.19115 25.9522C8.13414 26.0201 8.06277 26.0745 7.98219 26.1115C7.90161 26.1485 7.81382 26.1672 7.72516 26.1662C7.60657 26.1651 7.49096 26.1288 7.39303 26.0619C7.29509 25.995 7.21923 25.9006 7.17509 25.7905C7.14206 25.7082 7.12765 25.6197 7.13289 25.5312C7.13812 25.4428 7.16288 25.3566 7.20539 25.2788C7.24789 25.201 7.30708 25.1336 7.37871 25.0815C7.45034 25.0293 7.53264 24.9936 7.61969 24.977C7.6971 24.9622 7.77693 24.9632 7.85409 24.9794C7.93141 24.9953 8.00479 25.0265 8.06998 25.071C8.13518 25.1155 8.19088 25.1725 8.23387 25.2387C8.27693 25.3048 8.30644 25.3785 8.32119 25.4562Z" stroke="url(#paint51_linear_276_823)" stroke-width="0.08112" stroke-linecap="round" stroke-linejoin="round"/>
<path d="M33.2326 27.2526L28.9293 26.4301L20.8096 24.8781L21.4344 21.6082L21.5154 21.188L24.0125 8.12122L45.4726 12.2235L43.5265 22.4047V22.4054" stroke="url(#paint52_linear_276_823)" stroke-width="0.08112" stroke-linecap="round" stroke-linejoin="round"/>
<path d="M25.9521 10.8752L43.0262 14.1387" stroke="url(#paint53_linear_276_823)" stroke-width="0.08112" stroke-linecap="round" stroke-linejoin="round"/>
<path d="M25.51 9.55582C25.4915 9.65321 25.4445 9.74292 25.375 9.81355C25.3054 9.88418 25.2165 9.93256 25.1194 9.95253C25.0223 9.97274 24.9214 9.96367 24.8295 9.92648C24.7376 9.88929 24.6588 9.82564 24.6031 9.74362C24.5474 9.66159 24.5173 9.56488 24.5166 9.46573C24.5159 9.36658 24.5447 9.26947 24.5993 9.18669C24.6629 9.08982 24.7582 9.01801 24.8689 8.98352C24.9795 8.94902 25.0987 8.95396 25.2061 8.9975C25.3136 9.04104 25.4026 9.12048 25.458 9.22229C25.5134 9.3241 25.5318 9.44197 25.51 9.55582Z" stroke="url(#paint54_linear_276_823)" stroke-width="0.08112" stroke-linecap="round" stroke-linejoin="round"/>
<path d="M27.607 9.95636C27.5932 10.0292 27.5634 10.098 27.5198 10.158C27.4761 10.2179 27.4197 10.2673 27.3546 10.3028C27.2895 10.3383 27.2173 10.3588 27.1433 10.363C27.0693 10.3672 26.9953 10.3549 26.9266 10.3269C26.8578 10.2992 26.7961 10.2565 26.7459 10.202C26.6956 10.1475 26.6581 10.0825 26.636 10.0117C26.6139 9.94097 26.6078 9.86617 26.6182 9.79276C26.6285 9.71934 26.655 9.64914 26.6958 9.58723C26.7503 9.50448 26.8281 9.43974 26.9194 9.40116C27.0107 9.36258 27.1113 9.35189 27.2087 9.37044C27.306 9.38899 27.3957 9.43596 27.4663 9.5054C27.537 9.57485 27.5856 9.66367 27.6058 9.76067C27.6191 9.82525 27.6194 9.89177 27.607 9.95636Z" stroke="url(#paint55_linear_276_823)" stroke-width="0.08112" stroke-linecap="round" stroke-linejoin="round"/>
<path d="M29.7042 10.3577C29.69 10.4304 29.66 10.499 29.6162 10.5587C29.5724 10.6184 29.5159 10.6677 29.4508 10.703C29.3857 10.7383 29.3136 10.7588 29.2397 10.7629C29.1658 10.7671 29.0919 10.7548 29.0232 10.7271C28.9314 10.6898 28.8527 10.6261 28.7971 10.5441C28.7415 10.4621 28.7115 10.3654 28.7109 10.2663C28.7111 10.1967 28.7257 10.128 28.7539 10.0644C28.7821 10.0008 28.8232 9.94384 28.8746 9.89703C28.926 9.85022 28.9866 9.81464 29.0526 9.79255C29.1185 9.77045 29.1883 9.76234 29.2576 9.76871C29.3268 9.77508 29.394 9.79581 29.4548 9.82957C29.5155 9.86333 29.5686 9.90938 29.6107 9.96479C29.6527 10.0202 29.6827 10.0838 29.6988 10.1514C29.7149 10.219 29.7167 10.2893 29.7042 10.3577Z" stroke="url(#paint56_linear_276_823)" stroke-width="0.08112" stroke-linecap="round" stroke-linejoin="round"/>
<path d="M42.5732 20.3701C42.7564 20.6425 42.7989 21.1224 42.6811 21.9867" stroke="url(#paint57_linear_276_823)" stroke-width="0.08112" stroke-linecap="round" stroke-linejoin="round"/>
<path d="M40.8721 21.4684C41.1101 20.8061 41.3464 20.2541 41.7069 20.0923" stroke="url(#paint58_linear_276_823)" stroke-width="0.08112" stroke-linecap="round" stroke-linejoin="round"/>
<path d="M36.6045 17.5598C37.1434 18.3276 36.5319 20.6237 36.6316 22.3736" stroke="url(#paint59_linear_276_823)" stroke-width="0.08112" stroke-linecap="round" stroke-linejoin="round"/>
<path d="M32.3143 14.2067C33.5025 15.6759 31.129 22.1805 32.7306 22.4399C34.3211 22.6965 34.5206 18.129 35.7422 17.3963" stroke="url(#paint60_linear_276_823)" stroke-width="0.08112" stroke-linecap="round" stroke-linejoin="round"/>
<path d="M26.1136 14.5254C27.3352 16.0193 24.5739 23.5501 27.0679 23.9681C29.6078 24.394 29.7045 14.8769 31.467 13.9857" stroke="url(#paint61_linear_276_823)" stroke-width="0.08112" stroke-linecap="round" stroke-linejoin="round"/>
<path d="M21.5156 21.188C22.5238 21.322 23.4806 15.1036 25.2106 14.3447" stroke="url(#paint62_linear_276_823)" stroke-width="0.08112" stroke-linecap="round" stroke-linejoin="round"/>
<path d="M9.53664 30.7351C9.98313 31.1164 10.3077 31.6205 10.4701 32.1848C10.6324 32.7491 10.6254 33.3486 10.4498 33.9089C10.2742 34.4692 9.93781 34.9655 9.48246 35.3362C9.02711 35.7069 8.47286 35.9356 7.8886 35.9939C7.42233 36.0401 6.95174 35.9763 6.5146 35.8076C6.07745 35.639 5.68592 35.3703 5.37142 35.023C5.00117 34.6139 4.75105 34.1106 4.64864 33.5684C4.53367 32.9593 4.61056 32.3294 4.86869 31.7658C5.12682 31.2022 5.55347 30.7326 6.08979 30.4217C6.62612 30.1108 7.2457 29.974 7.86307 30.0301C8.48044 30.0863 9.06518 30.3326 9.53664 30.7351Z" stroke="url(#paint63_linear_276_823)" stroke-width="0.08112" stroke-linecap="round" stroke-linejoin="round"/>
<path d="M8.97277 31.3558C9.34948 31.6695 9.6081 32.1021 9.70604 32.5824C9.80398 33.0628 9.73539 33.5621 9.51157 33.9982C9.28776 34.4344 8.92206 34.7812 8.47474 34.9817C8.02741 35.1822 7.52513 35.2244 7.05065 35.1012C6.57617 34.9781 6.15779 34.697 5.86443 34.3042C5.57108 33.9115 5.42024 33.4306 5.43678 32.9406C5.45331 32.4507 5.63623 31.981 5.9554 31.609C6.27457 31.2369 6.71095 30.9847 7.19266 30.8938C7.50507 30.8342 7.82683 30.8447 8.13469 30.9246C8.44254 31.0045 8.7288 31.1518 8.97277 31.3558Z" stroke="url(#paint64_linear_276_823)" stroke-width="0.08112" stroke-linecap="round" stroke-linejoin="round"/>
<path d="M7.99219 35.1318L8.14748 35.9569" stroke="url(#paint65_linear_276_823)" stroke-width="0.08112" stroke-linecap="round" stroke-linejoin="round"/>
<path d="M8.97266 31.3558L9.53676 30.7351" stroke="url(#paint66_linear_276_823)" stroke-width="0.08112" stroke-linecap="round" stroke-linejoin="round"/>
<path d="M5.51848 33.6533L4.70425 33.8072L4.69434 33.8089" stroke="url(#paint67_linear_276_823)" stroke-width="0.08112" stroke-linecap="round" stroke-linejoin="round"/>
<path d="M27.0723 38.9102L29.5408 38.4443L27.2914 26.519" stroke="url(#paint68_linear_276_823)" stroke-width="0.08112" stroke-linecap="round" stroke-linejoin="round"/>
<path d="M23.7236 39.5415L25.8891 39.1334" stroke="url(#paint69_linear_276_823)" stroke-width="0.08112" stroke-linecap="round" stroke-linejoin="round"/>
<path d="M22.54 39.7648L23.7232 39.5422" stroke="url(#paint70_linear_276_823)" stroke-width="0.08112" stroke-linecap="round" stroke-linejoin="round"/>
<path d="M20.374 40.1737L22.54 39.7656" stroke="url(#paint71_linear_276_823)" stroke-width="0.08112" stroke-linecap="round" stroke-linejoin="round"/>
<path d="M17.0254 40.8058L19.1913 40.397" stroke="url(#paint72_linear_276_823)" stroke-width="0.08112" stroke-linecap="round" stroke-linejoin="round"/>
<path d="M13.6016 41.4515L15.842 41.0289" stroke="url(#paint73_linear_276_823)" stroke-width="0.08112" stroke-linecap="round" stroke-linejoin="round"/>
<path d="M8.29937 38.3428L6.05553 38.7663L5.80469 37.4352L8.04828 37.0126L8.29937 38.3428Z" stroke="url(#paint74_linear_276_823)" stroke-width="0.08112" stroke-linecap="round" stroke-linejoin="round"/>
<path d="M8.67436 40.3266L6.43053 40.7502L6.17969 39.4191L8.42328 38.9962L8.67436 40.3266Z" stroke="url(#paint75_linear_276_823)" stroke-width="0.08112" stroke-linecap="round" stroke-linejoin="round"/>
<path d="M9.04766 42.3103L6.8048 42.7339L6.55371 41.4025L8.79657 40.9799L9.04766 42.3103Z" stroke="url(#paint76_linear_276_823)" stroke-width="0.08112" stroke-linecap="round" stroke-linejoin="round"/>
<path d="M17.0246 40.8056L15.8415 41.0289L15.5904 39.6978L13.542 28.8422L14.7261 28.6189L16.7735 39.4745L17.0246 40.8056Z" stroke="url(#paint77_linear_276_823)" stroke-width="0.08112" stroke-linecap="round" stroke-linejoin="round"/>
<path d="M20.3742 40.1738L19.1908 40.3971L18.0658 34.4346L16.8916 28.2103L18.0757 27.9871L19.2498 34.2113L20.3742 40.1738Z" stroke="url(#paint78_linear_276_823)" stroke-width="0.08112" stroke-linecap="round" stroke-linejoin="round"/>
<path d="M23.7236 39.5422L22.5404 39.7655V39.7648L21.9149 36.4505L20.2412 27.5787L21.4243 27.3555L23.0982 36.2275L23.7236 39.5415V39.5422Z" stroke="url(#paint79_linear_276_823)" stroke-width="0.08112" stroke-linecap="round" stroke-linejoin="round"/>
<path d="M27.0724 38.9103L25.8886 39.1335L24.3987 31.2322L23.5898 26.9468L24.7732 26.7235L25.5819 31.0089L27.0724 38.9103Z" stroke="url(#paint80_linear_276_823)" stroke-width="0.08112" stroke-linecap="round" stroke-linejoin="round"/>
<path d="M15.5908 39.6979L16.7739 39.4746" stroke="url(#paint81_linear_276_823)" stroke-width="0.08112" stroke-linecap="round" stroke-linejoin="round"/>
<path d="M18.0654 34.4346L19.2485 34.2113" stroke="url(#paint82_linear_276_823)" stroke-width="0.08112" stroke-linecap="round" stroke-linejoin="round"/>
<path d="M21.915 36.4506L23.0984 36.2275" stroke="url(#paint83_linear_276_823)" stroke-width="0.08112" stroke-linecap="round" stroke-linejoin="round"/>
<path d="M24.3984 31.2321L25.5816 31.0088" stroke="url(#paint84_linear_276_823)" stroke-width="0.08112" stroke-linecap="round" stroke-linejoin="round"/>
<path d="M44.9364 23.4919L40.0506 28.3778L35.165 33.2633" stroke="url(#paint85_linear_276_823)" stroke-width="0.08112" stroke-linecap="round" stroke-linejoin="round"/>
<path d="M35.165 23.4919L40.0506 28.3778" stroke="url(#paint86_linear_276_823)" stroke-width="0.08112" stroke-linecap="round" stroke-linejoin="round"/>
<path d="M9.48084 3.19158L8.88965 1" stroke="url(#paint87_linear_276_823)" stroke-width="0.08112" stroke-linecap="round" stroke-linejoin="round"/>
<path d="M12.043 3.19149L12.2817 1.22656" stroke="url(#paint88_linear_276_823)" stroke-width="0.08112" stroke-linecap="round" stroke-linejoin="round"/>
<path d="M7.21864 4.69939L5.91699 3.19165" stroke="url(#paint89_linear_276_823)" stroke-width="0.08112" stroke-linecap="round" stroke-linejoin="round"/>
<defs>
<linearGradient id="paint0_linear_276_823" x1="41.6528" y1="21.6351" x2="42.3184" y2="42.5324" gradientUnits="userSpaceOnUse">
<stop stop-color="#FD98FF"/>
<stop offset="0.639405" stop-color="#68066A"/>
</linearGradient>
<linearGradient id="paint1_linear_276_823" x1="40.54" y1="20.3804" x2="40.8158" y2="32.6272" gradientUnits="userSpaceOnUse">
<stop stop-color="#FD98FF"/>
<stop offset="0.639405" stop-color="#68066A"/>
</linearGradient>
<linearGradient id="paint2_linear_276_823" x1="42.2176" y1="19.561" x2="42.2473" y2="20.8002" gradientUnits="userSpaceOnUse">
<stop stop-color="#FD98FF"/>
<stop offset="0.639405" stop-color="#68066A"/>
</linearGradient>
<linearGradient id="paint3_linear_276_823" x1="42.1822" y1="19.9547" x2="42.2026" y2="20.9482" gradientUnits="userSpaceOnUse">
<stop stop-color="#FD98FF"/>
<stop offset="0.639405" stop-color="#68066A"/>
</linearGradient>
<linearGradient id="paint4_linear_276_823" x1="36.94" y1="21.9533" x2="37.7188" y2="39.2478" gradientUnits="userSpaceOnUse">
<stop stop-color="#FD98FF"/>
<stop offset="0.639405" stop-color="#68066A"/>
</linearGradient>
<linearGradient id="paint5_linear_276_823" x1="36.2493" y1="16.7493" x2="36.279" y2="17.9904" gradientUnits="userSpaceOnUse">
<stop stop-color="#FD98FF"/>
<stop offset="0.639405" stop-color="#68066A"/>
</linearGradient>
<linearGradient id="paint6_linear_276_823" x1="36.2161" y1="17.2195" x2="36.2321" y2="18.0959" gradientUnits="userSpaceOnUse">
<stop stop-color="#FD98FF"/>
<stop offset="0.639405" stop-color="#68066A"/>
</linearGradient>
<linearGradient id="paint7_linear_276_823" x1="31.9769" y1="13.3631" x2="32.009" y2="14.6546" gradientUnits="userSpaceOnUse">
<stop stop-color="#FD98FF"/>
<stop offset="0.639405" stop-color="#68066A"/>
</linearGradient>
<linearGradient id="paint8_linear_276_823" x1="31.9334" y1="13.8419" x2="31.9494" y2="14.7095" gradientUnits="userSpaceOnUse">
<stop stop-color="#FD98FF"/>
<stop offset="0.639405" stop-color="#68066A"/>
</linearGradient>
<linearGradient id="paint9_linear_276_823" x1="29.2619" y1="9.6038" x2="29.3186" y2="11.3811" gradientUnits="userSpaceOnUse">
<stop stop-color="#FD98FF"/>
<stop offset="0.639405" stop-color="#68066A"/>
</linearGradient>
<linearGradient id="paint10_linear_276_823" x1="27.1646" y1="9.2033" x2="27.2212" y2="10.9791" gradientUnits="userSpaceOnUse">
<stop stop-color="#FD98FF"/>
<stop offset="0.639405" stop-color="#68066A"/>
</linearGradient>
<linearGradient id="paint11_linear_276_823" x1="25.869" y1="29.7299" x2="27.2503" y2="44.0033" gradientUnits="userSpaceOnUse">
<stop stop-color="#FD98FF"/>
<stop offset="0.639405" stop-color="#68066A"/>
</linearGradient>
<linearGradient id="paint12_linear_276_823" x1="25.723" y1="13.8005" x2="25.7468" y2="14.9102" gradientUnits="userSpaceOnUse">
<stop stop-color="#FD98FF"/>
<stop offset="0.639405" stop-color="#68066A"/>
</linearGradient>
<linearGradient id="paint13_linear_276_823" x1="25.7067" y1="14.1808" x2="25.7264" y2="15.176" gradientUnits="userSpaceOnUse">
<stop stop-color="#FD98FF"/>
<stop offset="0.639405" stop-color="#68066A"/>
</linearGradient>
<linearGradient id="paint14_linear_276_823" x1="24.6864" y1="26.0159" x2="25.2598" y2="33.9697" gradientUnits="userSpaceOnUse">
<stop stop-color="#FD98FF"/>
<stop offset="0.639405" stop-color="#68066A"/>
</linearGradient>
<linearGradient id="paint15_linear_276_823" x1="25.0679" y1="8.80266" x2="25.1245" y2="10.5784" gradientUnits="userSpaceOnUse">
<stop stop-color="#FD98FF"/>
<stop offset="0.639405" stop-color="#68066A"/>
</linearGradient>
<linearGradient id="paint16_linear_276_823" x1="22.9098" y1="35.6707" x2="23.299" y2="41.919" gradientUnits="userSpaceOnUse">
<stop stop-color="#FD98FF"/>
<stop offset="0.639405" stop-color="#68066A"/>
</linearGradient>
<linearGradient id="paint17_linear_276_823" x1="21.8137" y1="25.9251" x2="23.4321" y2="41.889" gradientUnits="userSpaceOnUse">
<stop stop-color="#FD98FF"/>
<stop offset="0.639405" stop-color="#68066A"/>
</linearGradient>
<linearGradient id="paint18_linear_276_823" x1="19.3351" y1="33.2376" x2="20.2644" y2="44.1274" gradientUnits="userSpaceOnUse">
<stop stop-color="#FD98FF"/>
<stop offset="0.639405" stop-color="#68066A"/>
</linearGradient>
<linearGradient id="paint19_linear_276_823" x1="18.1886" y1="26.9722" x2="19.1767" y2="38.3193" gradientUnits="userSpaceOnUse">
<stop stop-color="#FD98FF"/>
<stop offset="0.639405" stop-color="#68066A"/>
</linearGradient>
<linearGradient id="paint20_linear_276_823" x1="12.1451" y1="1.19488" x2="13.5926" y2="33.2808" gradientUnits="userSpaceOnUse">
<stop stop-color="#FD98FF"/>
<stop offset="0.639405" stop-color="#68066A"/>
</linearGradient>
<linearGradient id="paint21_linear_276_823" x1="15.1762" y1="22.2366" x2="15.2304" y2="25.8232" gradientUnits="userSpaceOnUse">
<stop stop-color="#FD98FF"/>
<stop offset="0.639405" stop-color="#68066A"/>
</linearGradient>
<linearGradient id="paint22_linear_276_823" x1="16.3799" y1="39.231" x2="16.4749" y2="41.9842" gradientUnits="userSpaceOnUse">
<stop stop-color="#FD98FF"/>
<stop offset="0.639405" stop-color="#68066A"/>
</linearGradient>
<linearGradient id="paint23_linear_276_823" x1="15.2673" y1="23.4523" x2="15.3208" y2="26.6525" gradientUnits="userSpaceOnUse">
<stop stop-color="#FD98FF"/>
<stop offset="0.639405" stop-color="#68066A"/>
</linearGradient>
<linearGradient id="paint24_linear_276_823" x1="15.3193" y1="26.875" x2="17.4391" y2="46.2894" gradientUnits="userSpaceOnUse">
<stop stop-color="#FD98FF"/>
<stop offset="0.639405" stop-color="#68066A"/>
</linearGradient>
<linearGradient id="paint25_linear_276_823" x1="14.8636" y1="21.0417" x2="14.9178" y2="24.6282" gradientUnits="userSpaceOnUse">
<stop stop-color="#FD98FF"/>
<stop offset="0.639405" stop-color="#68066A"/>
</linearGradient>
<linearGradient id="paint26_linear_276_823" x1="13.4838" y1="10.7341" x2="14.6149" y2="28.0774" gradientUnits="userSpaceOnUse">
<stop stop-color="#FD98FF"/>
<stop offset="0.639405" stop-color="#68066A"/>
</linearGradient>
<linearGradient id="paint27_linear_276_823" x1="11.8602" y1="11.0431" x2="12.0241" y2="13.853" gradientUnits="userSpaceOnUse">
<stop stop-color="#FD98FF"/>
<stop offset="0.639405" stop-color="#68066A"/>
</linearGradient>
<linearGradient id="paint28_linear_276_823" x1="9.41974" y1="29.9132" x2="10.0106" y2="39.135" gradientUnits="userSpaceOnUse">
<stop stop-color="#FD98FF"/>
<stop offset="0.639405" stop-color="#68066A"/>
</linearGradient>
<linearGradient id="paint29_linear_276_823" x1="7.31436" y1="29.4212" x2="7.4784" y2="36.136" gradientUnits="userSpaceOnUse">
<stop stop-color="#FD98FF"/>
<stop offset="0.639405" stop-color="#68066A"/>
</linearGradient>
<linearGradient id="paint30_linear_276_823" x1="7.92538" y1="40.7038" x2="7.99502" y2="43.8125" gradientUnits="userSpaceOnUse">
<stop stop-color="#FD98FF"/>
<stop offset="0.639405" stop-color="#68066A"/>
</linearGradient>
<linearGradient id="paint31_linear_276_823" x1="7.55176" y1="38.7201" x2="7.62137" y2="41.8289" gradientUnits="userSpaceOnUse">
<stop stop-color="#FD98FF"/>
<stop offset="0.639405" stop-color="#68066A"/>
</linearGradient>
<linearGradient id="paint32_linear_276_823" x1="7.79164" y1="24.7777" x2="7.85932" y2="26.9029" gradientUnits="userSpaceOnUse">
<stop stop-color="#FD98FF"/>
<stop offset="0.639405" stop-color="#68066A"/>
</linearGradient>
<linearGradient id="paint33_linear_276_823" x1="7.17676" y1="36.7365" x2="7.24635" y2="39.8448" gradientUnits="userSpaceOnUse">
<stop stop-color="#FD98FF"/>
<stop offset="0.639405" stop-color="#68066A"/>
</linearGradient>
<linearGradient id="paint34_linear_276_823" x1="6.59784" y1="33.2777" x2="6.68912" y2="37.4601" gradientUnits="userSpaceOnUse">
<stop stop-color="#FD98FF"/>
<stop offset="0.639405" stop-color="#68066A"/>
</linearGradient>
<linearGradient id="paint35_linear_276_823" x1="5.28001" y1="25.2561" x2="5.3477" y2="27.3815" gradientUnits="userSpaceOnUse">
<stop stop-color="#FD98FF"/>
<stop offset="0.639405" stop-color="#68066A"/>
</linearGradient>
<linearGradient id="paint36_linear_276_823" x1="2.76725" y1="25.7253" x2="2.83496" y2="27.8508" gradientUnits="userSpaceOnUse">
<stop stop-color="#FD98FF"/>
<stop offset="0.639405" stop-color="#68066A"/>
</linearGradient>
<linearGradient id="paint37_linear_276_823" x1="12.1437" y1="1.19505" x2="13.5915" y2="33.2804" gradientUnits="userSpaceOnUse">
<stop stop-color="#FD98FF"/>
<stop offset="0.639405" stop-color="#68066A"/>
</linearGradient>
<linearGradient id="paint38_linear_276_823" x1="14.8634" y1="21.0418" x2="14.9176" y2="24.6281" gradientUnits="userSpaceOnUse">
<stop stop-color="#FD98FF"/>
<stop offset="0.639405" stop-color="#68066A"/>
</linearGradient>
<linearGradient id="paint39_linear_276_823" x1="14.5579" y1="10.8339" x2="16.5103" y2="26.8896" gradientUnits="userSpaceOnUse">
<stop stop-color="#FD98FF"/>
<stop offset="0.639405" stop-color="#68066A"/>
</linearGradient>
<linearGradient id="paint40_linear_276_823" x1="12.7147" y1="12.1534" x2="12.7464" y2="13.5804" gradientUnits="userSpaceOnUse">
<stop stop-color="#FD98FF"/>
<stop offset="0.639405" stop-color="#68066A"/>
</linearGradient>
<linearGradient id="paint41_linear_276_823" x1="11.8602" y1="11.0431" x2="12.0241" y2="13.853" gradientUnits="userSpaceOnUse">
<stop stop-color="#FD98FF"/>
<stop offset="0.639405" stop-color="#68066A"/>
</linearGradient>
<linearGradient id="paint42_linear_276_823" x1="12.1693" y1="11.4336" x2="14.1309" y2="27.5272" gradientUnits="userSpaceOnUse">
<stop stop-color="#FD98FF"/>
<stop offset="0.639405" stop-color="#68066A"/>
</linearGradient>
<linearGradient id="paint43_linear_276_823" x1="15.1762" y1="22.2373" x2="15.2303" y2="25.8233" gradientUnits="userSpaceOnUse">
<stop stop-color="#FD98FF"/>
<stop offset="0.639405" stop-color="#68066A"/>
</linearGradient>
<linearGradient id="paint44_linear_276_823" x1="15.2674" y1="23.4523" x2="15.321" y2="26.6529" gradientUnits="userSpaceOnUse">
<stop stop-color="#FD98FF"/>
<stop offset="0.639405" stop-color="#68066A"/>
</linearGradient>
<linearGradient id="paint45_linear_276_823" x1="40.7612" y1="19.3184" x2="41.5332" y2="43.5597" gradientUnits="userSpaceOnUse">
<stop stop-color="#FD98FF"/>
<stop offset="0.639405" stop-color="#68066A"/>
</linearGradient>
<linearGradient id="paint46_linear_276_823" x1="19.3013" y1="21.4672" x2="19.3108" y2="23.0534" gradientUnits="userSpaceOnUse">
<stop stop-color="#FD98FF"/>
<stop offset="0.639405" stop-color="#68066A"/>
</linearGradient>
<linearGradient id="paint47_linear_276_823" x1="17.8188" y1="19.7382" x2="18.7358" y2="59.242" gradientUnits="userSpaceOnUse">
<stop stop-color="#FD98FF"/>
<stop offset="0.639405" stop-color="#68066A"/>
</linearGradient>
<linearGradient id="paint48_linear_276_823" x1="13.1338" y1="24.445" x2="13.1658" y2="29.7762" gradientUnits="userSpaceOnUse">
<stop stop-color="#FD98FF"/>
<stop offset="0.639405" stop-color="#68066A"/>
</linearGradient>
<linearGradient id="paint49_linear_276_823" x1="2.76725" y1="25.7253" x2="2.83496" y2="27.8508" gradientUnits="userSpaceOnUse">
<stop stop-color="#FD98FF"/>
<stop offset="0.639405" stop-color="#68066A"/>
</linearGradient>
<linearGradient id="paint50_linear_276_823" x1="5.28001" y1="25.2561" x2="5.3477" y2="27.3815" gradientUnits="userSpaceOnUse">
<stop stop-color="#FD98FF"/>
<stop offset="0.639405" stop-color="#68066A"/>
</linearGradient>
<linearGradient id="paint51_linear_276_823" x1="7.79164" y1="24.7777" x2="7.85932" y2="26.9029" gradientUnits="userSpaceOnUse">
<stop stop-color="#FD98FF"/>
<stop offset="0.639405" stop-color="#68066A"/>
</linearGradient>
<linearGradient id="paint52_linear_276_823" x1="34.3742" y1="5.1098" x2="35.2118" y2="39.0142" gradientUnits="userSpaceOnUse">
<stop stop-color="#FD98FF"/>
<stop offset="0.639405" stop-color="#68066A"/>
</linearGradient>
<linearGradient id="paint53_linear_276_823" x1="35.3429" y1="10.3616" x2="35.3781" y2="16.1483" gradientUnits="userSpaceOnUse">
<stop stop-color="#FD98FF"/>
<stop offset="0.639405" stop-color="#68066A"/>
</linearGradient>
<linearGradient id="paint54_linear_276_823" x1="25.0679" y1="8.80306" x2="25.1244" y2="10.5785" gradientUnits="userSpaceOnUse">
<stop stop-color="#FD98FF"/>
<stop offset="0.639405" stop-color="#68066A"/>
</linearGradient>
<linearGradient id="paint55_linear_276_823" x1="27.1648" y1="9.20382" x2="27.2213" y2="10.9792" gradientUnits="userSpaceOnUse">
<stop stop-color="#FD98FF"/>
<stop offset="0.639405" stop-color="#68066A"/>
</linearGradient>
<linearGradient id="paint56_linear_276_823" x1="29.2617" y1="9.60965" x2="29.3177" y2="11.376" gradientUnits="userSpaceOnUse">
<stop stop-color="#FD98FF"/>
<stop offset="0.639405" stop-color="#68066A"/>
</linearGradient>
<linearGradient id="paint57_linear_276_823" x1="42.6688" y1="20.1157" x2="43.4495" y2="22.7511" gradientUnits="userSpaceOnUse">
<stop stop-color="#FD98FF"/>
<stop offset="0.639405" stop-color="#68066A"/>
</linearGradient>
<linearGradient id="paint58_linear_276_823" x1="41.3312" y1="19.8757" x2="41.459" y2="22.3093" gradientUnits="userSpaceOnUse">
<stop stop-color="#FD98FF"/>
<stop offset="0.639405" stop-color="#68066A"/>
</linearGradient>
<linearGradient id="paint59_linear_276_823" x1="36.7283" y1="16.8021" x2="40.7002" y2="22.6322" gradientUnits="userSpaceOnUse">
<stop stop-color="#FD98FF"/>
<stop offset="0.639405" stop-color="#68066A"/>
</linearGradient>
<linearGradient id="paint60_linear_276_823" x1="34.1276" y1="12.9091" x2="35.1916" y2="27.4494" gradientUnits="userSpaceOnUse">
<stop stop-color="#FD98FF"/>
<stop offset="0.639405" stop-color="#68066A"/>
</linearGradient>
<linearGradient id="paint61_linear_276_823" x1="28.9994" y1="12.4122" x2="30.025" y2="30.0787" gradientUnits="userSpaceOnUse">
<stop stop-color="#FD98FF"/>
<stop offset="0.639405" stop-color="#68066A"/>
</linearGradient>
<linearGradient id="paint62_linear_276_823" x1="23.5479" y1="13.2672" x2="24.2616" y2="25.3638" gradientUnits="userSpaceOnUse">
<stop stop-color="#FD98FF"/>
<stop offset="0.639405" stop-color="#68066A"/>
</linearGradient>
<linearGradient id="paint63_linear_276_823" x1="7.89127" y1="29.0748" x2="8.22929" y2="39.6872" gradientUnits="userSpaceOnUse">
<stop stop-color="#FD98FF"/>
<stop offset="0.639405" stop-color="#68066A"/>
</linearGradient>
<linearGradient id="paint64_linear_276_823" x1="7.80824" y1="30.1766" x2="8.0517" y2="37.8199" gradientUnits="userSpaceOnUse">
<stop stop-color="#FD98FF"/>
<stop offset="0.639405" stop-color="#68066A"/>
</linearGradient>
<linearGradient id="paint65_linear_276_823" x1="8.0776" y1="35.002" x2="8.31829" y2="36.4244" gradientUnits="userSpaceOnUse">
<stop stop-color="#FD98FF"/>
<stop offset="0.639405" stop-color="#68066A"/>
</linearGradient>
<linearGradient id="paint66_linear_276_823" x1="9.28291" y1="30.6374" x2="9.32144" y2="31.7367" gradientUnits="userSpaceOnUse">
<stop stop-color="#FD98FF"/>
<stop offset="0.639405" stop-color="#68066A"/>
</linearGradient>
<linearGradient id="paint67_linear_276_823" x1="5.14761" y1="33.6288" x2="5.14927" y2="33.9046" gradientUnits="userSpaceOnUse">
<stop stop-color="#FD98FF"/>
<stop offset="0.639405" stop-color="#68066A"/>
</linearGradient>
<linearGradient id="paint68_linear_276_823" x1="28.43" y1="24.5686" x2="31.8551" y2="45.9939" gradientUnits="userSpaceOnUse">
<stop stop-color="#FD98FF"/>
<stop offset="0.639405" stop-color="#68066A"/>
</linearGradient>
<linearGradient id="paint69_linear_276_823" x1="24.9146" y1="39.0692" x2="24.919" y2="39.7928" gradientUnits="userSpaceOnUse">
<stop stop-color="#FD98FF"/>
<stop offset="0.639405" stop-color="#68066A"/>
</linearGradient>
<linearGradient id="paint70_linear_276_823" x1="23.1908" y1="39.5072" x2="23.1931" y2="39.9018" gradientUnits="userSpaceOnUse">
<stop stop-color="#FD98FF"/>
<stop offset="0.639405" stop-color="#68066A"/>
</linearGradient>
<linearGradient id="paint71_linear_276_823" x1="21.5653" y1="39.7014" x2="21.5696" y2="40.425" gradientUnits="userSpaceOnUse">
<stop stop-color="#FD98FF"/>
<stop offset="0.639405" stop-color="#68066A"/>
</linearGradient>
<linearGradient id="paint72_linear_276_823" x1="18.2167" y1="40.3326" x2="18.221" y2="41.0575" gradientUnits="userSpaceOnUse">
<stop stop-color="#FD98FF"/>
<stop offset="0.639405" stop-color="#68066A"/>
</linearGradient>
<linearGradient id="paint73_linear_276_823" x1="14.8338" y1="40.9624" x2="14.8383" y2="41.7118" gradientUnits="userSpaceOnUse">
<stop stop-color="#FD98FF"/>
<stop offset="0.639405" stop-color="#68066A"/>
</linearGradient>
<linearGradient id="paint74_linear_276_823" x1="7.17676" y1="36.7365" x2="7.24635" y2="39.8448" gradientUnits="userSpaceOnUse">
<stop stop-color="#FD98FF"/>
<stop offset="0.639405" stop-color="#68066A"/>
</linearGradient>
<linearGradient id="paint75_linear_276_823" x1="7.55176" y1="38.7201" x2="7.62137" y2="41.8289" gradientUnits="userSpaceOnUse">
<stop stop-color="#FD98FF"/>
<stop offset="0.639405" stop-color="#68066A"/>
</linearGradient>
<linearGradient id="paint76_linear_276_823" x1="7.92538" y1="40.7038" x2="7.99502" y2="43.8125" gradientUnits="userSpaceOnUse">
<stop stop-color="#FD98FF"/>
<stop offset="0.639405" stop-color="#68066A"/>
</linearGradient>
<linearGradient id="paint77_linear_276_823" x1="15.4574" y1="26.6655" x2="17.9231" y2="48.392" gradientUnits="userSpaceOnUse">
<stop stop-color="#FD98FF"/>
<stop offset="0.639405" stop-color="#68066A"/>
</linearGradient>
<linearGradient id="paint78_linear_276_823" x1="18.807" y1="26.0336" x2="21.2728" y2="47.7602" gradientUnits="userSpaceOnUse">
<stop stop-color="#FD98FF"/>
<stop offset="0.639405" stop-color="#68066A"/>
</linearGradient>
<linearGradient id="paint79_linear_276_823" x1="22.1565" y1="25.402" x2="24.6224" y2="47.1285" gradientUnits="userSpaceOnUse">
<stop stop-color="#FD98FF"/>
<stop offset="0.639405" stop-color="#68066A"/>
</linearGradient>
<linearGradient id="paint80_linear_276_823" x1="25.5053" y1="24.7701" x2="27.971" y2="46.4966" gradientUnits="userSpaceOnUse">
<stop stop-color="#FD98FF"/>
<stop offset="0.639405" stop-color="#68066A"/>
</linearGradient>
<linearGradient id="paint81_linear_276_823" x1="16.2415" y1="39.4395" x2="16.2439" y2="39.8354" gradientUnits="userSpaceOnUse">
<stop stop-color="#FD98FF"/>
<stop offset="0.639405" stop-color="#68066A"/>
</linearGradient>
<linearGradient id="paint82_linear_276_823" x1="18.7161" y1="34.1762" x2="18.7185" y2="34.5721" gradientUnits="userSpaceOnUse">
<stop stop-color="#FD98FF"/>
<stop offset="0.639405" stop-color="#68066A"/>
</linearGradient>
<linearGradient id="paint83_linear_276_823" x1="22.5659" y1="36.1924" x2="22.5683" y2="36.5879" gradientUnits="userSpaceOnUse">
<stop stop-color="#FD98FF"/>
<stop offset="0.639405" stop-color="#68066A"/>
</linearGradient>
<linearGradient id="paint84_linear_276_823" x1="25.0492" y1="30.9736" x2="25.0515" y2="31.3696" gradientUnits="userSpaceOnUse">
<stop stop-color="#FD98FF"/>
<stop offset="0.639405" stop-color="#68066A"/>
</linearGradient>
<linearGradient id="paint85_linear_276_823" x1="40.5393" y1="21.9539" x2="41.0906" y2="39.2637" gradientUnits="userSpaceOnUse">
<stop stop-color="#FD98FF"/>
<stop offset="0.639405" stop-color="#68066A"/>
</linearGradient>
<linearGradient id="paint86_linear_276_823" x1="37.8521" y1="22.7229" x2="38.1278" y2="31.378" gradientUnits="userSpaceOnUse">
<stop stop-color="#FD98FF"/>
<stop offset="0.639405" stop-color="#68066A"/>
</linearGradient>
<linearGradient id="paint87_linear_276_823" x1="9.21481" y1="0.655029" x2="9.66732" y2="4.48788" gradientUnits="userSpaceOnUse">
<stop stop-color="#FD98FF"/>
<stop offset="0.639405" stop-color="#68066A"/>
</linearGradient>
<linearGradient id="paint88_linear_276_823" x1="12.1743" y1="0.917269" x2="13.0289" y2="4.17763" gradientUnits="userSpaceOnUse">
<stop stop-color="#FD98FF"/>
<stop offset="0.639405" stop-color="#68066A"/>
</linearGradient>
<linearGradient id="paint89_linear_276_823" x1="6.6329" y1="2.95432" x2="6.7314" y2="5.62433" gradientUnits="userSpaceOnUse">
<stop stop-color="#FD98FF"/>
<stop offset="0.639405" stop-color="#68066A"/>
</linearGradient>
</defs>
</svg>
