<svg width="45" height="41" viewBox="0 0 45 41" fill="none" xmlns="http://www.w3.org/2000/svg">
<path d="M29.0687 5.91498C29.4564 6.12626 29.8813 5.7989 29.67 5.84069C29.4965 5.86478 29.3197 5.83733 29.1616 5.76175C29.238 5.46956 29.2816 5.16975 29.2916 4.86788C29.2173 4.13654 28.9317 5.82676 29.0687 5.91498ZM30.1831 6.24467C29.951 6.47684 29.6631 6.64633 29.9022 6.62079C30.2226 6.58829 30.4385 6.27021 30.3224 6.10305C30.2296 6.16341 30.2899 6.13555 30.1831 6.24467ZM29.9138 4.65196C29.8442 4.73554 29.9138 4.9236 29.9301 5.00719C29.9351 5.03004 29.9485 5.05016 29.9677 5.06353C29.9869 5.0769 30.0104 5.08254 30.0336 5.07931C30.0568 5.07608 30.0779 5.06423 30.0927 5.04613C30.1075 5.02802 30.1149 5.00499 30.1135 4.98165C30.0879 4.77269 30.0369 4.50801 29.9138 4.65196ZM28.6183 5.07916C28.5417 4.54516 28.3861 4.77501 28.4 4.86324C28.4186 5.22079 28.6438 5.26026 28.6183 5.07916ZM29.7745 4.2828C31.0468 4.40586 29.7327 3.85793 29.6631 4.26423L29.7745 4.2828ZM21.7506 13.8344C21.4859 13.9273 21.5393 14.2082 21.8667 14.0852C22.5361 13.8164 23.2391 13.6406 23.9562 13.5628C23.9562 15.448 23.8611 16.1794 23.9702 16.2305C24.0886 16.184 24.1861 13.6556 24.1791 13.4444C24.1582 13.0543 22.1662 13.6858 21.7506 13.8344ZM19.5032 16.4441C19.1619 17.1754 18.5582 18.1737 19.2988 18.4268C19.7144 18.5661 21.4743 18.4268 21.1377 17.4819C20.8405 16.6368 19.8979 15.6198 19.5032 16.4441ZM31.1861 21.3452C30.8727 21.2547 28.1238 20.7369 27.9891 20.8693C27.6966 21.1641 29.3195 20.997 31.135 21.524C31.1588 21.5308 31.1842 21.5279 31.2057 21.5159C31.2273 21.5039 31.2432 21.4839 31.25 21.4602C31.2567 21.4365 31.2538 21.411 31.2418 21.3895C31.2299 21.3679 31.2098 21.352 31.1861 21.3452ZM31.4438 20.0056C30.6481 19.8154 29.8382 19.6896 29.0223 19.6295C28.9976 19.6326 28.9752 19.6453 28.96 19.6649C28.9448 19.6845 28.9379 19.7093 28.941 19.734C28.9441 19.7586 28.9568 19.781 28.9764 19.7962C28.996 19.8115 29.0209 19.8183 29.0455 19.8152C29.8362 19.8782 30.6209 20.0017 31.3928 20.1844C31.4165 20.1911 31.4419 20.1882 31.4634 20.1762C31.485 20.1643 31.5009 20.1442 31.5077 20.1205C31.5145 20.0968 31.5115 20.0714 31.4996 20.0498C31.4876 20.0283 31.4675 20.0124 31.4438 20.0056ZM13.3552 6.70205C13.0603 6.73456 12.9698 6.65097 12.9443 6.71598C12.8816 7.1455 14.0053 6.68348 13.3552 6.70205ZM12.3801 4.95379C12.3801 4.37567 12.1943 4.54748 12.1943 4.95379C12.1943 4.97842 12.2041 5.00204 12.2215 5.01946C12.239 5.03687 12.2626 5.04666 12.2872 5.04666C12.3118 5.04666 12.3355 5.03687 12.3529 5.01946C12.3703 5.00204 12.3801 4.97842 12.3801 4.95379ZM14.0262 4.73554C14.0282 4.74759 14.0325 4.75912 14.0389 4.76949C14.0454 4.77986 14.0538 4.78886 14.0637 4.79597C14.0736 4.80309 14.0849 4.80818 14.0967 4.81095C14.1086 4.81373 14.1209 4.81414 14.133 4.81216C14.145 4.81018 14.1566 4.80584 14.1669 4.7994C14.1773 4.79297 14.1863 4.78455 14.1934 4.77463C14.2005 4.76471 14.2056 4.75349 14.2084 4.7416C14.2112 4.72972 14.2116 4.7174 14.2096 4.70536C14.1237 4.14582 13.9589 4.31299 14.0262 4.73554Z" fill="url(#paint0_linear_276_819)"/>
<path d="M39.9351 26.8385C41.6694 25.5105 41.6114 23.068 41.5603 22.9891C42.2266 22.2926 42.2452 20.2727 42.0525 19.8571C41.7925 19.2929 42.9533 14.3197 41.0588 12.9337C41.226 12.8594 41.544 12.669 41.5673 12.4206C41.6091 11.9307 41.147 11.8517 40.7941 11.6428C39.3198 10.7768 39.2269 8.8567 36.3387 8.14625C36.2319 7.9489 36.2087 7.91408 36.1228 7.77013C38.2124 7.91408 37.943 6.76946 37.5832 6.48621C37.3566 6.35521 37.1139 6.25452 36.8611 6.18671C37.741 5.81755 37.7155 4.71008 36.5825 4.81224C36.4478 4.82385 36.8843 4.4663 36.5291 4.00892C36.4492 3.88555 36.3365 3.78693 36.2036 3.72417C36.0707 3.66141 35.9229 3.637 35.7769 3.65369C35.7769 2.87591 35.4031 2.56016 34.9596 2.56016C35.612 1.6036 34.7414 0.537925 33.5201 1.12997C33.8103 0.456664 33.0372 -0.755281 31.2657 0.649368C31.1543 0.161804 29.6126 -0.346656 29.4455 0.366117C29.3596 0.730629 28.749 -0.288613 27.6345 0.547212C27.3304 0.779385 27.1702 1.16247 27.5277 1.2832C26.4203 1.36446 25.9954 2.39531 26.8544 2.6182C27.0402 2.66696 26.5015 2.79233 26.5874 3.48421C26.6524 4.01356 27.1214 4.31771 27.5045 4.02749C27.6322 3.9323 27.5951 3.91141 27.5834 4.01124C27.5803 4.05042 27.5851 4.08983 27.5975 4.12712C27.6099 4.16441 27.6297 4.19882 27.6557 4.2283C27.6817 4.25777 27.7134 4.2817 27.7488 4.29866C27.7843 4.31561 27.8228 4.32525 27.8621 4.327C27.8971 4.53036 27.9508 4.73009 28.0223 4.92368C27.1818 4.92368 26.6826 5.64806 26.9055 6.00097C27.1632 6.40495 27.616 6.13563 27.0494 6.42817C25.9513 6.99699 26.2276 7.93962 26.9009 7.93265C27.5742 7.92569 27.133 7.67726 27.2375 8.35056C27.3025 8.79401 28.0223 9.22818 28.6305 8.67096C28.8024 8.8776 28.8372 9.00994 29.0461 9.11674C27.3025 10.2776 27.9108 10.8418 25.6494 13.1217C25.3871 13.3887 25.3105 13.2889 25.1851 13.4119C25.0597 13.535 25.2315 14.2733 25.8816 14.2199C25.1688 16.3095 25.8816 15.6664 24.8508 15.7755C24.8275 15.7755 25.1224 12.727 25.0829 12.3068C25.0597 12.1002 25.0179 12.1048 22.6869 12.6365C22.7635 11.0809 22.7473 7.86532 22.6126 7.83282C22.5894 7.83282 20.9108 7.83282 20.9108 7.7887C20.8736 7.64011 20.9828 7.00164 20.9526 6.8809C20.9247 6.80197 20.8318 6.80429 20.7575 6.75553C19.8567 6.15652 20.9897 6.48389 21.0756 6.39566C21.201 6.25636 21.0756 4.85171 21.3078 4.85171C21.54 4.97476 21.3542 6.14956 21.4425 6.261C21.728 6.51175 21.533 5.18604 21.8418 5.22319C22.0113 5.25569 21.8186 6.21225 21.8836 6.37012C22.0949 6.67195 22.0206 5.90578 22.2713 5.65735C22.5639 5.51573 22.2574 7.74691 22.2249 7.79335C22.3433 7.88622 22.8634 5.0862 22.1808 5.52733C21.9811 5.65735 22.1808 5.47161 22.0345 5.16282C21.9532 5.00262 21.7211 4.97708 21.591 5.20461C21.468 4.39201 21.0617 4.58935 20.999 5.1605C20.9386 6.23778 20.9642 6.07526 20.9456 6.26797C20.3303 6.03579 19.8706 6.5814 20.7738 6.89484C20.9154 6.94359 20.7738 7.45902 20.8179 7.75388C20.8179 7.80263 20.8435 7.78638 20.7227 7.77477C20.2259 7.7237 18.74 11.9748 18.2826 12.5854C18.9164 13.5141 18.7051 13.6511 18.6471 13.4978C18.0179 12.1977 15.3967 9.47428 12.4829 8.48987C12.2507 8.41557 12.3064 8.48987 12.2507 8.18804C12.0812 7.93962 14.5585 9.21425 14.3403 5.47625C15.3874 5.51108 15.2341 3.87194 14.3588 3.8255C14.937 3.11737 14.7559 2.53462 14.1731 1.91471C13.9154 0.0573255 11.9187 0.0155346 10.1426 0.693481C9.72234 0.853681 9.64804 1.10443 9.43212 1.47591C9.22317 1.50841 9.12798 1.3575 8.72399 1.58967C7.4958 2.2978 7.7953 4.29914 8.81222 5.1071C8.6288 5.63878 8.789 6.2285 9.48088 6.17974C9.48088 8.40396 9.68287 7.88854 8.62416 8.07196C1.07852 9.37909 -1.02961 18.5267 2.24171 21.5636C2.42281 21.733 1.62877 22.8684 3.04503 23.674C3.0904 24.7054 3.33646 25.718 3.76941 26.6551C4.09213 27.3516 4.10374 27.2007 4.07124 27.3029C2.69213 31.691 0.0639223 39.5245 0.0221311 39.7102C-0.128782 40.3812 0.530591 40.5762 0.834738 40.0608C0.969399 39.8286 4.6865 29.7755 5.16477 28.4661C5.38125 28.6382 5.60678 28.7986 5.8404 28.9467C5.74056 30.7321 5.16942 38.4658 5.27157 38.9116C5.29065 39.02 5.3454 39.119 5.42712 39.1929C5.50884 39.2667 5.61287 39.3111 5.72271 39.3191C5.83255 39.3271 5.94192 39.2982 6.03348 39.237C6.12503 39.1758 6.19354 39.0858 6.22813 38.9812C6.26295 38.8651 7.00591 33.755 7.45633 29.757C10.1263 30.8459 13.1515 30.9782 13.6972 30.9852C14.1615 40.2512 14.0918 39.694 15.0716 39.4107C15.2434 39.3597 15.2481 39.4107 15.2759 38.3126C15.7403 38.7119 17.7834 40.3162 18.4033 40.4369C18.589 40.4718 18.7609 40.1003 18.5171 39.6708C17.1008 37.1795 16.9453 38.3288 18.2477 36.6827C18.394 37.0379 18.9605 38.482 19.1764 38.5169C19.7221 38.5772 19.5131 39.7636 19.8474 39.7752C20.4418 39.7985 23.5227 39.5849 23.7642 39.2436C23.8663 39.1019 23.6458 38.7978 23.3625 38.6701C20.2886 37.5487 21.54 39.6383 21.3055 33.0561C21.3055 32.889 22.6312 31.3543 23.2627 29.4041C23.6133 28.3198 23.2627 27.8508 23.4368 27.3145C23.8199 26.0492 23.142 26.3138 24.5373 26.2419C24.8345 26.8176 25.0551 26.474 25.2176 27.1705C25.3823 27.9162 25.7266 28.6104 26.2206 29.1928C26.3111 28.1298 26.5454 27.084 26.9171 26.084C27.1493 26.0631 26.8869 25.8379 26.3576 29.3344C26.3785 29.3576 26.2902 35.7052 26.5665 35.8353C26.7837 35.9049 27.0095 35.9439 27.2375 35.9513C27.1818 35.9955 27.2189 37.5255 27.1934 37.5255C27.1934 37.5835 25.3128 38.1941 25.1038 39.1391C25.076 39.3457 25.0713 39.4316 25.2873 39.4316C26.0047 39.3922 28.417 38.7908 28.5748 38.7908C28.5748 39.0485 28.5354 39.0694 28.7791 39.0671C28.9858 39.0671 29.2435 39.0671 29.3108 38.9719C29.3735 38.8164 29.2296 36.3251 29.2667 36.0349C29.2667 36.0117 29.2272 36.0349 29.7937 36.0349C29.817 39.348 29.8425 39.0346 30.0747 39.1019C31.0661 39.2714 30.885 39.4897 31.2355 33.6807C32.1317 34.4933 31.7324 34.5026 32.8608 33.7782C33.014 33.9709 33.7894 34.888 33.7894 34.895C33.418 35.6193 32.7725 37.0124 33.339 37.6184C33.4992 37.7553 33.6873 37.5046 35.2823 35.3988C35.9092 34.5676 35.5818 35.357 35.9556 35.0366C36.6312 34.4585 36.42 34.8044 34.5626 32.6452C35.6515 31.8581 35.5331 32.081 34.6717 31.2684C29.9772 26.8269 31.672 29.9009 37.618 27.9344C37.7619 29.4296 38.8531 38.7003 39.0737 38.8605C39.2246 38.9696 39.7238 38.9069 39.8794 38.8373C40.1464 38.7165 39.8144 35.3918 39.3268 29.3692C41.2887 34.7278 43.2482 39.8542 43.2482 39.8774C43.5082 40.4277 44.156 40.3185 44.1212 39.7729C44.1142 39.7822 40.6014 28.9885 39.9351 26.8385ZM35.8256 34.9135C35.7165 34.7998 35.6909 34.7139 35.5934 34.7464C35.41 34.8392 33.671 37.3003 33.4203 37.4582C32.9049 36.6966 33.9705 34.9693 33.9171 34.8625C33.8846 34.8183 34.5719 34.6303 35.3473 33.7411C36.2342 34.7673 36.2203 34.5885 35.8233 34.9135H35.8256ZM35.2521 33.618C34.8698 34.0995 34.3965 34.501 33.8591 34.7998C33.1626 34.029 33.0674 33.9152 32.9304 33.748C34.8412 32.5384 34.2422 32.4339 35.2498 33.618H35.2521ZM41.493 23.1307C41.4535 24.9161 40.7825 26.0561 39.8956 26.7132C39.0621 24.0269 39.285 24.8418 39.4034 23.9619C41.7251 23.3374 41.4953 22.873 41.4906 23.1307H41.493ZM41.8482 19.546C41.3629 19.005 40.6153 18.8494 39.9212 18.6892C40.4993 18.3944 41.1795 18.0276 41.3513 17.5679C41.5835 16.8063 41.2283 14.9745 41.0843 14.5287C40.4877 12.6597 40.0976 13.2541 40.8522 13.0149C42.3799 14.0458 42.0061 17.2103 41.8459 19.546H41.8482ZM32.7679 19.5831C31.4166 19.7387 32.148 20.0614 31.8392 20.2425C31.6209 20.3679 31.5466 20.6302 31.8996 20.7068C32.1596 20.7649 32.1317 20.7068 32.011 20.7835C31.751 20.939 31.6836 21.3151 32.6564 21.2176C32.545 21.4312 31.9855 22.5062 31.8322 22.6966C31.7765 22.7662 27.9712 22.5294 25.4591 22.2322C25.48 22.209 27.9224 19.1327 28.5145 18.6057C28.5702 18.5801 32.6936 19.07 32.7168 19.07C32.6709 19.2414 32.6882 19.4235 32.7656 19.5831H32.7679ZM32.0551 21.0435C31.881 20.8113 33.0511 20.8647 32.7865 20.6116C32.7632 20.5977 30.5297 20.4886 32.8793 20.2286C32.9007 20.2237 32.9196 20.2112 32.9325 20.1935C32.9454 20.1757 32.9515 20.1539 32.9495 20.1321C32.9475 20.1102 32.9376 20.0898 32.9217 20.0747C32.9058 20.0595 32.885 20.0507 32.8631 20.0498C32.4452 20.0614 32.1851 20.138 32.1015 20.0498C31.9646 19.7828 32.7516 19.7851 32.884 19.7364C33.1161 19.6737 32.6959 19.272 32.9188 19.0398C33.0349 18.9354 33.3715 19.6017 33.4203 19.6458C34.0959 20.0939 36.7682 15.9798 38.4004 15.8265C38.8044 15.7871 37.7039 15.7383 37.2535 16.1725C36.3248 13.5443 36.348 13.6372 36.355 13.535C36.3851 13.131 36.8402 12.9592 37.2326 13.0242C37.625 13.0892 37.7085 13.3446 38.1311 13.3469C38.3472 13.3481 38.5614 13.3057 38.7608 13.2223C38.9603 13.1389 39.1409 13.0163 39.292 12.8617C39.5907 12.9862 39.9089 13.0577 40.2323 13.073C40.757 14.1967 40.9404 14.3058 41.1401 15.5851C41.2445 16.2514 41.4581 17.3798 40.9891 17.814C40.0024 18.7287 33.3901 21.5009 32.0528 21.0435H32.0551ZM33.2926 19.1327C33.7569 19.1931 33.6873 19.1327 33.5967 19.3347C33.4737 19.5924 33.5596 19.5111 33.2903 19.1327H33.2926ZM28.3264 6.93198C27.1121 6.55586 28.3821 5.13032 28.3264 5.58305C28.3264 5.60627 28.2591 5.62717 28.2405 5.63878C28.0083 5.77112 27.7158 6.79964 28.7466 6.84144C29.3039 6.86697 28.6863 7.04575 28.3264 6.93198ZM28.3821 5.53894C28.0339 4.61025 28.0199 4.75652 27.9433 4.33164C28.4077 4.27824 28.9092 4.31539 28.6073 4.14126C28.4425 4.04607 28.28 4.15751 28.3543 4.09482C29.0508 3.43313 28.8024 2.76911 28.9417 3.12898C29.0087 3.2881 29.1148 3.4277 29.2503 3.53478C29.3857 3.64186 29.546 3.71296 29.7163 3.74146C29.8866 3.76995 30.0613 3.75492 30.2242 3.69777C30.3872 3.64062 30.533 3.54319 30.6481 3.41455C30.8432 3.9323 31.0614 4.20162 31.6767 4.26199C32.0876 4.30146 32.0226 4.25038 32.1782 4.09482C32.7748 3.49814 33.339 4.67526 32.6146 5.02352C32.35 5.11639 32.7284 6.30976 33.4365 6.00561C33.9659 5.77344 33.822 4.67526 33.2322 4.63114C33.014 4.61489 33.1254 4.55917 33.1603 4.55453C33.9264 4.44541 34.2515 5.76879 33.5735 6.14492C32.9513 6.49085 32.206 5.76879 32.4846 5.04673C31.9855 5.11406 31.9878 5.76647 32.2525 6.19599C32.285 6.24707 31.21 6.28886 31.3098 7.07361C31.3772 7.41258 31.7742 7.4892 32.1155 7.48223C31.3888 9.1771 32.3151 9.41392 33.1185 8.60828C33.1847 8.82227 33.28 9.02616 33.4017 9.21425C33.7802 9.69485 29.7171 10.8952 29.8355 9.02387C30.0645 8.89495 30.282 8.74659 30.4856 8.58041C30.516 8.34878 30.5105 8.11386 30.4694 7.88389C30.3649 7.27792 29.3549 8.13464 28.3728 5.5343L28.3821 5.53894ZM31.2588 13.5187C30.7944 13.1612 30.0979 10.4819 29.9632 9.8388C31.7347 10.8836 33.3321 9.51143 33.2415 9.70878C32.9699 10.2799 31.5327 13.1124 31.2495 13.5141L31.2588 13.5187ZM31.4375 15.0998C30.5901 15.195 30.3719 14.0551 31.0219 13.7765C32.2896 13.3075 32.6611 14.9582 31.4375 15.0998ZM29.4037 9.23282C29.4037 9.23282 29.6126 9.12602 29.7543 9.04708C29.7311 9.57412 29.9795 9.66931 29.4037 9.22818V9.23282ZM25.3546 13.8484C25.0388 13.3702 25.4521 13.6557 26.4853 12.4972C27.2909 11.5963 28.1337 9.66234 29.1576 9.24675C29.2156 9.29783 29.5267 9.54161 29.8239 9.74825C29.9981 10.8743 30.5901 12.9987 31.0266 13.5466C31.0475 13.5721 29.9934 13.9111 30.7131 15.0139C31.9762 16.0262 33.0117 13.8531 31.5954 13.5629C31.2634 13.4978 31.4468 13.9483 33.0395 10.4007C33.5039 9.35588 33.2601 9.70413 33.6501 9.4116C33.9868 9.59501 34.9225 9.6577 34.9225 8.65471C35.7118 9.30712 36.7032 9.05869 36.4432 8.36217C38.8114 9.00529 39.0969 10.4146 40.1812 11.4083C40.8777 12.0537 41.4396 11.9841 41.3838 12.3973C41.3838 12.5993 40.7105 13.1194 39.6658 12.8269C39.3082 12.727 39.2687 12.6527 39.2014 12.7363C39.046 12.9046 38.8526 13.0333 38.6373 13.1116C38.422 13.19 38.1912 13.2157 37.9639 13.1867C37.7666 13.1357 37.6551 13.0173 37.3765 12.9174C36.9981 12.8083 36.4478 12.9174 36.2783 13.3121C35.7304 11.1065 35.8813 10.8139 35.756 10.6886C35.2684 11.1854 36.8913 15.6153 37.1118 16.2886C36.7172 16.5208 35.6956 17.5353 35.3729 17.8581C35.2916 17.9393 33.6037 17.5539 27.9967 17.5261C28.4796 16.5625 29.2853 15.9496 29.3271 15.8335C29.341 15.7569 28.3821 14.7934 28.5586 13.73C28.8256 12.1048 29.5221 11.2086 29.2272 11.4756C28.67 12.3439 28.2359 13.3168 28.4518 14.343C28.3523 14.4145 28.2373 14.4612 28.1161 14.4794C27.995 14.4976 27.8713 14.4866 27.7553 14.4474C27.2909 14.2733 27.1795 13.5675 25.9443 14.076C25.8346 14.1061 25.7181 14.1003 25.612 14.0593C25.5058 14.0184 25.4156 13.9445 25.3546 13.8484ZM26.0256 14.206C26.4481 14.134 26.7732 13.9738 27.0541 14.1479C27.2863 14.2919 27.7274 14.9559 28.4704 14.538C28.6747 14.8375 28.6027 15.2902 29.1181 15.8103C26.9473 17.9556 28.266 18.5685 24.5814 18.5151C24.6372 17.9463 24.7649 16.5858 24.8275 15.8544C25.9652 15.7198 25.2292 16.479 26.0256 14.206ZM24.8879 12.3695C24.8879 13.4328 24.4027 18.5987 24.2843 19.6551C23.1861 20.0219 15.9748 22.0488 13.4743 22.4412C13.5253 20.939 13.9665 16.5091 14.3705 15.0604C15.6149 14.4474 23.6829 12.5459 24.8879 12.3695ZM8.40359 20.1032C9.10011 19.6388 12.5966 18.875 13.667 18.6289C13.667 18.6846 13.6275 18.9679 13.6205 19.0236C8.01819 20.1682 9.13958 20.4213 8.41056 20.1032H8.40359ZM14.6723 9.67627C13.3489 12.7526 13.2792 11.8448 14.4656 12.2139C14.5887 12.2534 12.7615 16.1144 12.7545 16.2421C12.4736 21.7911 12.5827 15.0534 13.1306 9.50911C13.2073 8.74526 12.9008 8.59899 14.6746 9.67627H14.6723ZM13.1678 17.7141C13.1678 17.7388 13.158 17.7624 13.1406 17.7798C13.1232 17.7972 13.0996 17.807 13.0749 17.807C13.0503 17.807 13.0267 17.7972 13.0093 17.7798C12.9918 17.7624 12.9821 17.7388 12.9821 17.7141C12.9797 17.1894 13.1678 16.9154 13.1678 17.7141ZM12.3064 8.51541C13.3675 8.87992 13.1167 8.56416 12.9519 10.2637C12.9519 10.2149 12.736 10.0872 12.2391 9.58108C12.462 9.37909 12.3645 8.81027 12.3064 8.51541ZM12.3343 10.8743C12.4922 10.8348 12.5154 10.4099 12.5293 10.1174C13.054 10.605 12.9426 10.2428 12.8265 11.6103C12.5154 10.7954 12.5177 10.8441 12.4759 10.8255C12.4179 10.9416 12.1091 11.0856 11.9489 10.9579C11.9326 11.1227 12.0209 13.0242 12.0348 13.5605C8.23875 6.89948 10.7323 11.8773 11.4636 10.5307C12.1393 10.9532 11.9001 10.9834 12.3389 10.8743H12.3343ZM14.3658 3.95552C15.0623 3.94159 15.1691 5.26498 14.396 5.29516C13.6229 5.32534 13.6043 3.96945 14.3658 3.95552ZM13.6995 3.05236C13.7552 3.23578 13.8574 3.60958 13.9316 3.95088C13.5625 4.25967 13.7923 4.50809 13.5184 4.54988C13.4673 4.41987 13.4673 4.34557 13.3976 4.41987C13.3976 4.61257 13.4603 4.55917 13.2003 4.60793C12.7615 4.68687 13.0889 4.64043 12.8219 4.33396C12.7273 4.21513 12.6019 4.12455 12.4594 4.07212C12.3169 4.01968 12.1627 4.00741 12.0137 4.03664C11.8647 4.06587 11.7266 4.13548 11.6144 4.23786C11.5023 4.34024 11.4204 4.47147 11.3777 4.61721C11.1757 4.61721 10.5512 4.594 10.449 4.57774C10.3097 4.1668 10.059 2.70178 10.0567 2.68321C11.7956 3.76049 13.256 3.42849 13.6995 3.05236ZM12.8636 5.14193C12.7197 5.57377 11.798 5.72932 11.5658 5.03745C11.1966 3.95552 13.3071 3.79068 12.859 5.14193H12.8636ZM9.10011 6.00329C8.79829 5.84773 8.72167 4.91207 9.25103 4.84242C9.59464 4.80063 9.77806 5.18139 9.91504 5.24408C10.2679 5.40196 10.4862 5.18139 10.4862 4.79134H11.3499C11.3011 5.99865 13.2073 5.95221 13.0053 4.81224C13.5857 4.7867 13.3234 4.41522 13.6066 5.67128C13.4209 5.76183 13.1051 5.80362 13.0912 5.8547C13.1562 5.95685 13.7877 5.89881 13.7877 5.65271C13.7157 5.23247 13.6623 4.9794 13.6252 4.8401C13.6669 4.97001 13.7351 5.08987 13.8254 5.19216C13.9157 5.29445 14.0262 5.37694 14.1499 5.43446C14.1638 5.61324 14.1661 5.7479 14.1708 5.98472C14.2428 8.82188 12.0812 7.74459 12.0534 8.07428C12.0534 8.19036 12.3296 9.23514 12.1346 9.41856C11.5588 9.27926 9.70144 8.0975 9.6434 7.94426C9.64108 5.27659 9.63644 6.27725 9.10011 6.00329ZM11.7515 9.48589C11.5811 9.9064 11.3785 10.3131 11.1456 10.7025C9.60161 9.66931 9.42516 9.06334 8.8958 8.13464C10.1426 7.92104 8.89348 8.15554 11.7515 9.48821V9.48589ZM8.73328 8.20429C13.0703 15.6338 12.6268 14.336 12.5432 15.541C11.9721 15.1881 8.8958 13.2517 8.51736 12.9453C8.60791 12.676 9.51803 11.8448 9.56911 11.6915C9.62018 11.5383 6.80856 8.74294 6.81785 8.74061C7.43723 8.51223 8.07386 8.33367 8.72167 8.20662L8.73328 8.20429ZM5.38302 18.6521C5.76146 18.7427 5.67323 18.8053 5.7545 18.673C6.75981 17.0478 7.21719 14.0017 7.2613 13.9645C7.39596 14.1294 7.05234 16.8806 5.90076 18.608C5.68252 18.9354 5.6802 18.608 6.31403 19.3533C8.12731 18.9098 11.264 18.5824 13.7134 18.3247C13.7134 18.3851 13.6948 18.4826 13.6879 18.5569C12.0975 18.875 7.16611 19.6713 8.18767 20.665C8.50807 20.9367 13.2258 22.7546 13.4557 22.5224C15.8494 22.216 23.8106 20.0591 24.3957 19.8153C24.4584 19.7735 24.4514 19.871 24.5675 18.68C25.942 18.7264 26.4249 18.9121 27.2863 18.2829C27.5362 18.1022 27.7611 17.8891 27.9549 17.6491C30.2418 17.677 32.9536 17.7675 35.2336 18.0252C32.9443 20.3679 34.2584 19.1072 33.6548 19.0259C32.6402 18.8866 28.475 18.5035 28.5005 18.543C28.4355 18.4524 25.4266 21.9165 25.2501 22.2369C25.0737 22.5573 31.7928 23.003 31.9367 22.8521C32.0807 22.7012 32.7423 21.4312 32.8654 21.206C34.0448 21.0528 35.6515 20.8299 39.7029 18.8123C43.2087 19.6899 42.1013 21.3221 40.3994 21.9606C39.8051 22.1927 34.1006 23.8412 26.4133 24.4146C12.3575 25.4618 3.918 22.5573 4.37306 22.5573C4.48683 22.5573 4.53791 22.4087 4.73525 22.0418C5.72896 22.9171 8.25036 23.6879 7.62581 22.88C7.75513 22.8991 7.88655 22.8991 8.01587 22.88C8.26197 22.8243 8.27822 22.5898 8.08087 22.4156C7.98104 22.3297 7.96711 22.3576 8.05533 22.3506C8.44074 22.3228 8.46396 22.0233 8.16446 21.8538C7.76047 21.6216 7.05002 21.6471 6.84571 21.2757C6.69712 21.0063 7.22648 20.7347 7.04306 20.4398C6.91536 20.2355 6.71105 20.3191 6.51138 20.4538C6.1074 20.7347 6.25367 20.7579 5.96345 20.4909C6.49281 20.1218 6.65997 20.3029 6.57407 20.0405C6.47474 19.7505 6.30805 19.4882 6.08769 19.2751C5.86733 19.062 5.59957 18.9042 5.3064 18.8146C3.37704 18.4199 2.69445 19.7433 2.63408 19.7433C2.50407 19.3927 3.67886 18.2528 5.37141 18.6475L5.38302 18.6521ZM6.80392 21.4753C7.08021 21.8213 8.21786 21.8863 8.19696 22.137C8.09945 22.4017 6.81553 21.7563 6.87357 22.0976C6.91072 22.1997 6.98501 22.1463 7.44007 22.3042C8.33394 22.6176 8.28519 22.9427 6.93858 22.4876C6.69015 22.404 6.65533 22.4876 6.6948 22.5782C6.73427 22.6687 7.56777 22.8475 7.52134 23.0425C7.47258 23.1934 5.52232 22.6246 4.78169 21.9675C5.05247 21.419 5.43621 20.934 5.90773 20.5443C6.09579 20.7277 6.17473 20.8113 6.22116 20.7951C6.2676 20.7788 6.93626 20.1937 6.9618 20.5629C6.96644 20.8136 6.43012 21.0203 6.79231 21.4707L6.80392 21.4753ZM3.14487 23.7274C5.19031 24.8581 5.26229 23.544 4.14089 27.1195C3.54424 26.0815 3.19914 24.9182 3.13326 23.7228L3.14487 23.7274ZM0.658286 39.9958C0.574704 40.1583 0.193939 40.2814 0.291452 39.7636C0.71633 37.5673 3.64172 29.7802 4.99529 24.4727C5.50607 24.6329 5.84969 24.7281 6.36279 24.8604C5.9797 25.9261 0.753478 39.8495 0.658286 39.9958ZM6.13294 38.4751C6.02846 39.1716 5.49214 39.2111 5.43642 38.4611C5.37141 37.4651 5.7011 34.8578 5.92398 29.0047C6.38043 29.2807 6.85695 29.5221 7.34953 29.7268C7.25898 30.4349 6.43941 36.4389 6.13294 38.4751ZM15.0438 39.2273C14.2451 39.5338 14.4076 39.831 13.8248 30.9852C13.934 30.9852 14.598 30.9968 15.1877 30.9457C15.1204 35.1921 15.1343 38.6422 15.0438 39.2273ZM5.21121 28.3453C6.23045 25.5593 5.13924 27.21 8.01819 28.6054C10.5721 29.8429 12.8753 29.9984 15.7194 29.959C15.854 30.3397 15.9516 30.6253 15.9725 30.6555C13.2467 31.157 7.80227 30.4233 5.21121 28.3453ZM15.2875 37.8296C15.4245 29.7987 14.9439 31.0246 16.0351 30.8366C16.4693 32.0369 16.6829 32.6057 16.8338 33.012C15.334 37.0727 15.3851 36.8708 15.5336 36.959C15.7449 37.0983 15.6962 36.9033 15.2875 37.8296ZM18.1618 36.5062C17.8709 36.8884 17.561 37.2557 17.2332 37.6067C16.6936 37.3888 16.1713 37.1303 15.6706 36.8336C15.6497 36.8197 16.6643 33.7991 16.8779 33.1188C18.0318 36.2276 18.1874 36.4737 18.1618 36.5062ZM21.0454 37.9225C20.9294 37.9573 19.6803 38.2568 19.2136 38.3335C13.4325 26.4206 18.6958 30.753 11.6749 29.613C10.0497 29.346 7.82316 28.6657 6.55549 27.4654C5.58036 26.5367 5.76146 26.885 6.45334 24.8883C6.82481 24.9626 11.9141 26.3487 20.1237 26.3487C21.3101 29.3924 21.2149 36.9242 21.0454 37.9225ZM21.2776 32.7032C21.1638 30.9968 21.0617 28.415 20.3048 26.3463C22.9632 26.3603 22.6474 26.2535 22.7566 26.3904C24.1705 28.1619 22.5615 30.8876 21.2799 32.7032H21.2776ZM23.2627 27.2077C22.9353 26.0909 22.3712 26.3603 23.4113 26.3045C23.3853 26.6088 23.3364 26.9108 23.265 27.2077H23.2627ZM25.0945 26.5855C24.5141 26.1652 24.8229 26.2442 25.0713 26.2302C25.0899 26.6017 25.1224 26.604 25.0969 26.5855H25.0945ZM29.1251 38.8907C28.6445 38.8907 28.7373 39.0021 28.7257 38.7305C28.7095 38.3938 26.0859 39.2714 25.2431 39.2714C25.3221 38.5749 26.6362 37.9527 27.277 37.6718C27.277 37.6718 27.4232 37.6718 27.9178 37.7252C29.5198 37.8946 29.1274 37.1842 29.1274 38.8907H29.1251ZM27.2677 35.9769C28.3589 36.0698 29.1692 36.0256 29.1669 36.0489C29.1274 36.3391 29.1669 37.5464 29.1204 37.5557C28.5223 37.6689 27.9078 37.6633 27.3118 37.5394C27.277 35.891 27.2956 36.0744 27.2677 35.9769ZM2.93359 23.3884C2.56211 23.1563 2.25796 22.9496 2.43441 21.7864C5.50375 24.3868 23.5622 26.8316 39.9235 22.2763C41.7809 21.7586 42.0548 20.8067 42.0525 20.8833C41.9921 22.9984 41.3746 23.3234 39.5125 23.8226C23.9894 27.9762 6.63675 25.8077 2.93359 23.3884ZM30.0306 38.9162C29.9702 38.5285 29.9516 36.497 29.947 36.0419C30.4345 36.028 30.2883 36.4319 30.546 33.1165C30.5622 33.1304 30.7782 29.2485 30.9198 28.1944C30.9384 28.0482 30.9987 28.0133 30.9941 28.1944C30.9941 28.3105 30.9941 28.4638 30.9825 28.6588C30.7898 34.0522 30.5181 33.0701 31.0521 33.5344C30.6481 39.2041 30.8339 39.2227 30.0306 38.9162ZM31.7579 28.5497C31.7022 28.5497 31.7974 28.6216 31.0289 27.9205C31.5281 27.8531 35.9045 27.8276 38.1264 26.0979C38.3145 26.6249 38.2704 26.5019 38.607 27.4283C36.6266 28.2618 33.8452 28.6472 31.7579 28.5497ZM39.1712 38.7189C39.1364 38.6771 37.9152 29.9172 37.6876 27.9228C38.9274 27.5281 38.5188 27.1891 39.1596 28.9444C39.7656 38.2452 40.1673 39.218 39.1712 38.7189ZM43.4595 39.8983C43.4014 39.7961 37.9988 25.5035 37.6319 24.4123C38.0963 24.3009 38.6883 24.1523 39.0412 24.0594C40.3367 29.3994 43.5431 37.8203 43.8356 39.7683C43.9076 40.2419 43.6313 40.2164 43.4595 39.8983Z" fill="url(#paint1_linear_276_819)"/>
<defs>
<linearGradient id="paint0_linear_276_819" x1="22.8186" y1="1.3703" x2="23.7047" y2="32.228" gradientUnits="userSpaceOnUse">
<stop stop-color="#FD98FF"/>
<stop offset="0.639405" stop-color="#68066A"/>
</linearGradient>
<linearGradient id="paint1_linear_276_819" x1="24.2674" y1="-6.36543" x2="26.3588" y2="65.2834" gradientUnits="userSpaceOnUse">
<stop stop-color="#FD98FF"/>
<stop offset="0.639405" stop-color="#68066A"/>
</linearGradient>
</defs>
</svg>
