<svg width="50" height="50" viewBox="0 0 50 50" fill="none" xmlns="http://www.w3.org/2000/svg">
<path d="M26.502 31.2202C30.5927 31.0127 34.3405 30.9187 34.9447 31.2575C35.256 31.4325 35.7402 33.7325 35.9627 35.2707C37.2192 35.1207 38.7982 34.9827 40.3757 34.8752C40.1415 33.6917 39.997 32.9502 39.4655 31.8067C39.385 31.6335 39.6055 31.5635 39.6952 31.7217C40.2278 32.6967 40.5854 33.7574 40.752 34.8557C42.8877 34.7155 44.995 34.6307 46.3157 34.6307C46.1657 33.3382 45.335 30.3597 43.8457 28.8325C42.6977 27.6552 40.4707 26.6075 38.4997 26.3595C38.469 26.6327 38.3636 26.8921 38.1952 27.1093C38.0267 27.3265 37.8016 27.4931 37.5447 27.5907C36.4917 28.0045 34.5697 28.1132 32.8552 27.1715C31.0465 27.6875 27.7317 29.656 26.502 31.2202Z" fill="url(#paint0_linear_276_629)"/>
<path d="M48.5512 40.4197C37.7655 40.6225 27.0285 40.5825 16.2485 40.5947C16.0305 40.5947 15.9812 40.9355 16.2067 40.9395C26.9625 41.1382 37.8465 40.9042 48.6005 40.7725C48.8302 40.7705 48.7797 40.4155 48.5512 40.4197Z" fill="url(#paint1_linear_276_629)"/>
<path d="M21.995 19.109C23.1022 19.1297 28.4985 19.0292 29.0722 19.0045C29.2452 18.997 29.2407 18.6985 29.0722 18.6985C28.302 18.6985 23.2345 18.7962 21.995 18.8612C21.965 18.8653 21.9375 18.8801 21.9176 18.9029C21.8977 18.9256 21.8867 18.9549 21.8867 18.9851C21.8867 19.0154 21.8977 19.0446 21.9176 19.0674C21.9375 19.0902 21.965 19.1049 21.995 19.109Z" fill="url(#paint2_linear_276_629)"/>
<path d="M17.5749 17.7268C17.4944 17.7688 16.1021 19.4423 16.7436 19.2433C16.8346 19.215 17.7436 18.0633 17.7884 17.8568C17.7937 17.83 17.7907 17.8023 17.7798 17.7773C17.7688 17.7523 17.7504 17.7312 17.7271 17.717C17.7038 17.7028 17.6767 17.6962 17.6494 17.6979C17.6222 17.6996 17.5962 17.7097 17.5749 17.7268Z" fill="url(#paint3_linear_276_629)"/>
<path d="M14.5412 13.925C14.9889 13.946 24.1062 13.9233 24.6497 13.8698C24.7269 13.8595 24.7975 13.821 24.8479 13.7617C24.8983 13.7023 24.9249 13.6264 24.9225 13.5486C24.9201 13.4707 24.8889 13.3966 24.8349 13.3404C24.781 13.2843 24.7081 13.2502 24.6304 13.2448C22.0932 13.2763 16.8187 13.2893 14.5554 13.3388C14.2159 13.3465 14.1874 13.909 14.5412 13.925Z" fill="url(#paint4_linear_276_629)"/>
<path d="M27.3036 23.546C26.7169 23.546 22.2556 23.496 21.9396 23.5863C21.8321 23.6173 21.7896 23.7913 21.9186 23.828C22.2556 23.9248 26.6936 23.8758 27.3064 23.8758C27.9191 23.8758 28.5139 23.8978 29.1139 23.8758C29.2974 23.869 29.2839 23.5615 29.1019 23.5535C28.5049 23.527 27.9019 23.546 27.3036 23.546Z" fill="url(#paint5_linear_276_629)"/>
<path d="M21.869 25.8817C21.8311 25.893 21.7992 25.9187 21.7802 25.9534C21.7612 25.988 21.7566 26.0287 21.7675 26.0667C21.819 26.2417 21.5877 26.1817 29.191 26.3085C29.2329 26.3042 29.2718 26.2845 29.3001 26.2532C29.3284 26.2219 29.344 26.1813 29.344 26.1391C29.344 26.0969 29.3284 26.0563 29.3001 26.025C29.2718 25.9937 29.2329 25.974 29.191 25.9697C21.897 25.852 22.3497 25.8445 21.869 25.8817Z" fill="url(#paint6_linear_276_629)"/>
<path d="M29.0291 21.5475C29.0698 21.5448 29.108 21.527 29.1363 21.4977C29.1646 21.4683 29.181 21.4295 29.1823 21.3888C29.1835 21.348 29.1696 21.3082 29.1432 21.2772C29.1168 21.2461 29.0798 21.226 29.0393 21.2207C27.9543 21.1907 22.9053 21.1487 21.9893 21.3312C21.8393 21.361 21.8728 21.5795 22.0161 21.5922C22.7908 21.662 23.9753 21.4017 29.0291 21.5475Z" fill="url(#paint7_linear_276_629)"/>
<path d="M35.6971 17.106C35.7106 14.9525 35.8106 12.266 35.6298 10.1765C35.6248 10.1451 35.6084 10.1167 35.5837 10.0967C35.559 10.0767 35.5278 10.0666 35.4961 10.0683C35.4644 10.07 35.4344 10.0833 35.412 10.1058C35.3895 10.1283 35.3762 10.1583 35.3746 10.19C35.3158 11.1925 35.3711 15.8505 35.3746 17.13C35.3751 17.3403 35.6958 17.3165 35.6971 17.106Z" fill="url(#paint8_linear_276_629)"/>
<path d="M16.8307 27.083C17.1405 27.4224 17.4699 27.7433 17.8172 28.0442C17.9672 28.1855 18.1982 27.9602 18.0472 27.8192C17.7235 27.4936 17.3832 27.1849 17.0277 26.8942C16.9195 26.825 16.7472 26.9667 16.8307 27.083Z" fill="url(#paint9_linear_276_629)"/>
<path d="M2.97546 10.1765C2.97546 9.98851 2.67946 9.95426 2.67696 10.1468C2.57846 18.1108 2.70996 27.374 3.09046 35.2968C3.10096 35.5163 3.44046 35.4625 3.42921 35.2445C3.02721 26.8638 2.96396 18.5643 2.97546 10.1765Z" fill="url(#paint10_linear_276_629)"/>
<path d="M6.73536 27.9473C6.65136 28.0723 6.84611 28.2313 6.94436 28.1145C7.07111 27.9645 7.80611 27.1128 7.76936 26.9295C7.66811 26.444 6.87886 27.735 6.73536 27.9473Z" fill="url(#paint11_linear_276_629)"/>
<path d="M12.2358 23.9072C12.1076 23.8835 11.2941 24.6055 11.1298 24.7622C9.59405 23.758 9.7468 24.0052 9.7658 24.6122C9.77159 25.0274 9.80046 25.442 9.8523 25.854C9.87105 25.9842 10.0691 25.9615 10.0773 25.8347C10.1086 25.3705 10.0488 24.9077 10.0413 24.4437C11.3936 25.2687 10.9756 25.2437 12.2383 24.2092C12.3883 24.375 13.1026 25.07 13.3188 25.0437C13.4938 25.022 14.0831 24.2302 14.2233 24.0615C14.2233 24.4197 14.2348 25.4422 14.3411 25.7317C14.3961 25.8817 14.5411 25.8287 14.5486 25.6795C14.5671 25.3615 14.5286 24.6077 14.5293 24.2407C14.5293 23.8227 14.5281 23.7157 14.3531 23.4657C13.9731 22.9227 13.0106 21.5925 12.4233 20.8705C11.9061 20.2342 11.8833 20.2205 11.5203 20.7825C10.9611 21.6497 10.0223 23.3325 9.8788 23.6525C9.81805 23.7872 10.0258 23.8507 10.0981 23.751C10.3386 23.4187 10.8831 22.442 11.1338 22.0122C11.6976 22.0348 12.2621 22.0252 12.8248 21.9837C13.2872 22.5339 13.7292 23.101 14.1498 23.6837L13.2888 24.7285C13.1716 24.6355 12.3656 23.9312 12.2358 23.9072Z" fill="url(#paint12_linear_276_629)"/>
<path d="M16.5426 35.1C15.1994 35.025 4.26114 35.0838 3.83439 35.15C3.80283 35.1602 3.77553 35.1806 3.75678 35.2079C3.73802 35.2353 3.72885 35.2681 3.7307 35.3012C3.73256 35.3343 3.74534 35.3659 3.76704 35.3909C3.78874 35.416 3.81814 35.4332 3.85064 35.4398C7.98639 35.4515 12.3756 35.4188 16.5186 35.4233C16.7201 35.4233 16.7546 35.1125 16.5426 35.1Z" fill="url(#paint13_linear_276_629)"/>
<path d="M7.26255 19.6207C7.41055 19.786 7.63755 19.579 7.51455 19.4387C7.21605 19.1 6.57655 18.3307 6.2818 18.0717C6.16505 17.969 6.0068 18.1297 6.0893 18.2522C6.3013 18.5685 6.9703 19.2947 7.26255 19.6207Z" fill="url(#paint14_linear_276_629)"/>
<path d="M12.0748 18.15C12.0936 17.5011 12.0552 16.8519 11.96 16.2098C11.9469 16.1867 11.9273 16.1679 11.9037 16.1557C11.88 16.1435 11.8534 16.1384 11.8269 16.1411C11.8005 16.1437 11.7754 16.154 11.7546 16.1706C11.7339 16.1872 11.7184 16.2095 11.71 16.2348C11.6898 16.8829 11.7212 17.5316 11.804 18.1748C11.8116 18.207 11.8305 18.2355 11.8574 18.2548C11.8842 18.2742 11.9172 18.2832 11.9502 18.2802C11.9832 18.2772 12.014 18.2624 12.0369 18.2384C12.0598 18.2145 12.0732 18.1831 12.0748 18.15Z" fill="url(#paint15_linear_276_629)"/>
<path d="M12.2941 27.8292C12.2941 28.0367 12.2389 29.4142 12.3134 29.5949C12.3265 29.6177 12.3455 29.6367 12.3683 29.6498C12.3911 29.663 12.4169 29.6699 12.4433 29.6699C12.4696 29.6699 12.4954 29.663 12.5182 29.6498C12.541 29.6367 12.56 29.6177 12.5731 29.5949C12.6509 29.3964 12.5626 28.1024 12.5524 27.8292C12.5389 27.6829 12.2941 27.6799 12.2941 27.8292Z" fill="url(#paint16_linear_276_629)"/>
<path d="M6.03899 23.3102C9.07524 17.6 15.9962 18.2 18.5415 22.8475C15.5345 27.4367 9.64349 28.1315 6.02524 23.719C5.91224 23.5815 5.77249 23.7572 5.87524 23.9012C9.05624 28.3262 15.853 27.7487 18.6595 23.2762C18.7509 23.1625 18.8043 23.023 18.8121 22.8773C18.8198 22.7316 18.7816 22.5872 18.7027 22.4645C15.6165 17.179 7.88699 18.1297 5.82999 23.175C5.76874 23.325 5.96574 23.4482 6.03899 23.3102Z" fill="url(#paint17_linear_276_629)"/>
<path fill-rule="evenodd" clip-rule="evenodd" d="M33.7135 17.5105C32.9315 17.6605 32.2417 19.3688 33.1045 20.1685C33.6327 20.6583 36.0655 20.679 37.5402 20.6163C37.5508 20.7968 37.5896 20.9745 37.655 21.143C37.7137 21.293 37.8897 21.3405 37.846 21.07C37.8221 20.916 37.8111 20.7602 37.8132 20.6043C38.0425 20.5943 38.2714 20.5776 38.4997 20.5543C38.46 20.8874 38.4028 21.2182 38.3282 21.5453C38.287 21.7245 38.4882 21.758 38.5565 21.587C38.7658 21.0462 38.8504 20.4651 38.8042 19.887C38.7152 18.6128 35.142 17.236 33.7135 17.5105ZM33.9597 18.1835C33.6 18.2658 33.515 18.8123 33.4822 19.1045C33.426 19.6045 33.1072 19.2545 33.1837 18.8148C33.2422 18.4833 33.5255 17.9433 33.9387 17.997C33.9627 17.9957 33.9862 18.0037 34.0045 18.0191C34.0228 18.0346 34.0345 18.0565 34.0372 18.0804C34.0399 18.1042 34.0333 18.1282 34.0189 18.1473C34.0045 18.1665 33.9834 18.1795 33.9597 18.1835Z" fill="#191919"/>
<path fill-rule="evenodd" clip-rule="evenodd" d="M36.6374 22.655C36.8367 22.3175 36.9737 21.947 37.0419 21.561C37.3777 21.6219 37.6979 21.7494 37.9836 21.936C38.1536 22.0093 38.2181 21.786 38.1336 21.7168C37.8268 21.4667 37.4518 21.3149 37.0574 21.281C36.8754 20.9363 35.4919 20.856 35.2784 21.2198C35.2261 21.1905 35.1683 21.1725 35.1086 21.1671C35.0489 21.1617 34.9888 21.169 34.9321 21.1885C34.8234 20.89 33.5964 20.8153 33.2906 21.16C32.9384 21.1213 32.7921 21.4465 33.2576 21.4435C33.2749 21.7666 33.3346 22.0861 33.4354 22.3935C33.5559 22.64 34.4224 22.6363 34.5949 22.5115C34.8001 22.3633 34.8934 21.716 34.9516 21.4668C35.0362 21.4402 35.1275 21.4456 35.2084 21.4818C35.2066 21.8159 35.2446 22.1491 35.3216 22.4743C35.4541 22.7378 36.4451 22.882 36.6374 22.655ZM34.5001 22.225C34.4594 22.3233 34.4226 22.3468 34.0941 22.3338C33.5391 22.312 33.6554 22.4323 33.4854 21.3145C33.8763 21.1818 34.3002 21.1818 34.6911 21.3145C34.6858 21.6274 34.621 21.9364 34.5001 22.225ZM35.5449 22.3383C35.4829 22.031 35.4608 21.717 35.4791 21.404C35.9079 21.251 36.3786 21.2653 36.7971 21.4443C36.7737 21.6901 36.7106 21.9306 36.6104 22.1563C36.4684 22.467 36.4449 22.5078 35.9971 22.4713C35.7821 22.4538 35.5751 22.4058 35.5449 22.3383Z" fill="#191919"/>
<path fill-rule="evenodd" clip-rule="evenodd" d="M35.757 22.1385C35.8038 22.307 36.132 22.3268 36.0555 21.84C36.0118 21.563 35.6213 21.65 35.757 22.1385Z" fill="#191919"/>
<path fill-rule="evenodd" clip-rule="evenodd" d="M38.5927 21.937C37.7362 22.0087 37.3135 23.5777 36.8585 23.728C36.5405 23.8332 35.8272 23.3757 35.1065 23.3265C34.3857 23.2772 33.9752 23.5817 33.8407 23.5175C33.7062 23.4532 33.799 22.8907 33.799 22.7595C33.799 22.6282 33.7275 22.5565 33.6005 22.846C33.4735 23.1355 32.235 25.9145 32.7737 26.6622C33.5437 27.7307 36.686 27.957 37.6615 27.222C38.8845 26.3005 37.8437 23.341 38.145 22.57C38.2016 22.4598 38.292 22.3705 38.4028 22.3152C38.5137 22.2599 38.6394 22.2414 38.7615 22.2625C39.1735 22.441 39.0602 23.6625 38.4017 23.4712C38.2362 23.4235 38.1987 23.6315 38.3517 23.7117C38.799 23.947 39.238 23.5802 39.2965 22.9655C39.3402 22.5 39.1822 21.8877 38.5927 21.937ZM35.1825 24.712C34.5617 24.712 34.4362 24.4657 34.384 24.062C34.9213 24.1775 35.478 24.1678 36.011 24.0337C35.9542 24.4027 35.8755 24.713 35.1825 24.713V24.712Z" fill="#191919"/>
<path fill-rule="evenodd" clip-rule="evenodd" d="M34.8846 22.0893C34.7697 22.3543 34.6836 22.6309 34.6279 22.9143C34.5661 23.2505 35.0134 23.2515 35.2654 23.2128C35.4154 23.1898 35.4429 23.0188 35.2786 23.0068C35.1579 22.9978 34.9206 22.9918 34.8981 22.95C34.9188 22.6711 34.9724 22.3956 35.0579 22.1293C35.0926 22.0193 34.9321 21.9763 34.8846 22.0893Z" fill="#191919"/>
<path fill-rule="evenodd" clip-rule="evenodd" d="M34.1749 22.15C34.3139 22.097 34.3249 21.7228 34.2061 21.653C33.9064 21.475 33.8646 22.267 34.1749 22.15Z" fill="#191919"/>
<path fill-rule="evenodd" clip-rule="evenodd" d="M36.6208 8.98254C25.0588 8.99154 12.7848 8.96479 1.39875 9.06179C1.20475 9.06329 1.20025 9.56179 1.38675 9.56304C12.913 9.63529 25.0528 9.54529 36.6088 9.53629C36.8163 9.53604 36.8208 8.98254 36.6208 8.98254Z" fill="#191919"/>
<path fill-rule="evenodd" clip-rule="evenodd" d="M23.4484 35.596C21.4734 35.4785 18.4141 35.092 16.5711 34.3007C16.3341 34.1987 15.1634 34.39 13.8341 33.7757C13.6951 33.7117 13.6399 33.9075 13.7699 33.9877C14.4491 34.4062 15.3071 34.5177 16.0906 34.543C16.3012 34.5375 16.5099 34.5842 16.6981 34.6787C18.8697 35.4575 21.1565 35.8661 23.4634 35.8875C23.6529 35.8902 23.6469 35.608 23.4484 35.596Z" fill="#191919"/>
<path fill-rule="evenodd" clip-rule="evenodd" d="M45.9029 35.029C45.8644 34.8185 45.5807 34.8927 45.6162 35.102C45.7383 35.8531 45.6899 36.6221 45.4744 37.352C44.9642 39.1302 43.4627 38.845 41.9597 38.7757C40.3822 38.7032 38.2097 38.552 36.8467 38.4892C36.8166 38.4852 36.7861 38.4931 36.7617 38.5113C36.7374 38.5294 36.7211 38.5563 36.7163 38.5863C36.7115 38.6163 36.7186 38.647 36.7361 38.6718C36.7536 38.6966 36.7801 38.7136 36.8099 38.7192C38.1212 38.9275 40.9222 39.0507 42.0134 39.1025C43.5059 39.1735 45.1709 39.3725 45.7267 37.6445C46.0001 36.8005 46.0606 35.902 45.9029 35.029Z" fill="#191919"/>
<path fill-rule="evenodd" clip-rule="evenodd" d="M36.1197 35.92C38.0512 35.6129 39.9969 35.4032 41.9494 35.2918C41.981 35.2889 42.0102 35.274 42.031 35.2501C42.0518 35.2262 42.0626 35.1951 42.061 35.1635C42.0595 35.1319 42.0458 35.102 42.0227 35.0803C41.9997 35.0585 41.9691 35.0465 41.9374 35.0468C39.9715 35.1274 38.0123 35.3268 36.0704 35.6438C36.0338 35.6504 36.0013 35.6713 35.9801 35.7019C35.9589 35.7325 35.9507 35.7702 35.9573 35.8069C35.964 35.8435 35.9849 35.876 36.0155 35.8972C36.046 35.9184 36.0838 35.9266 36.1204 35.92H36.1197Z" fill="#191919"/>
<path fill-rule="evenodd" clip-rule="evenodd" d="M15.5558 33.7574C15.5766 33.7573 15.5972 33.7529 15.6163 33.7447C15.6354 33.7364 15.6526 33.7244 15.6669 33.7093C15.6812 33.6942 15.6924 33.6764 15.6997 33.6569C15.7069 33.6375 15.7102 33.6167 15.7093 33.5959C15.7084 33.5752 15.7033 33.5548 15.6944 33.536C15.6854 33.5172 15.6728 33.5005 15.6572 33.4867C15.6416 33.4729 15.6234 33.4625 15.6037 33.4559C15.5839 33.4493 15.5631 33.4468 15.5423 33.4484C14.6143 33.4782 14.1461 33.2147 13.5336 32.7797C13.4366 32.7109 13.3336 32.8322 13.4086 32.9297C13.8446 33.5059 14.8618 33.7844 15.5558 33.7574Z" fill="#191919"/>
<path fill-rule="evenodd" clip-rule="evenodd" d="M17.0995 32.175C17.2125 32.371 17.4495 32.3975 17.6605 32.4452C18.9068 32.7285 21.7585 32.634 23.0813 32.6185C23.2693 32.6162 23.2313 32.3732 23.038 32.375C22.0723 32.3847 19.1575 32.4122 17.7113 32.1452C17.4443 32.0952 17.458 32.1347 17.3218 31.9202C17.0643 31.5137 16.6803 31.0165 16.2145 31.0082C16.0755 31.0057 16.0645 31.1397 16.183 31.1992C16.5945 31.4056 16.9193 31.7514 17.0995 32.175Z" fill="#191919"/>
<path fill-rule="evenodd" clip-rule="evenodd" d="M16.2746 32.2306C15.6291 32.0411 14.7169 31.7371 14.2151 31.0888C14.0651 30.8943 13.9376 31.0456 14.0121 31.2023C14.3246 31.8603 15.4686 32.4523 16.1254 32.4773C16.4886 32.4926 16.3876 32.2636 16.2746 32.2306Z" fill="#191919"/>
<path fill-rule="evenodd" clip-rule="evenodd" d="M13.6607 31.7202C13.64 31.6951 13.6106 31.6789 13.5784 31.6748C13.5462 31.6708 13.5136 31.6792 13.4874 31.6984C13.4612 31.7176 13.4434 31.7461 13.4376 31.7781C13.4318 31.81 13.4384 31.843 13.4562 31.8702C13.6945 32.2121 14.0039 32.4983 14.3633 32.7093C14.7227 32.9203 15.1235 33.051 15.5382 33.0924C15.5708 33.0936 15.603 33.084 15.6297 33.0652C15.6564 33.0464 15.6763 33.0194 15.6862 32.9882C15.6962 32.9571 15.6957 32.9236 15.6849 32.8928C15.674 32.8619 15.6534 32.8355 15.6262 32.8174C15.4069 32.7229 14.4749 32.6622 13.6607 31.7202Z" fill="#191919"/>
<path fill-rule="evenodd" clip-rule="evenodd" d="M42.4419 39.369C41.9942 39.3108 36.8004 39.4258 36.5599 39.3273C36.3194 39.2288 35.0754 32.144 34.7504 31.6785C34.4254 31.213 24.1882 31.5083 23.7227 31.777C23.2572 32.0458 24.7944 40.1383 25.1927 40.302C25.5479 40.4478 41.9081 40.2453 42.4426 40.217C42.9771 40.1888 42.8897 39.4273 42.4419 39.369ZM29.5439 37.0408C28.1472 37.157 27.7094 34.8658 29.1052 34.638C29.7677 34.5298 30.3514 35.1173 30.4752 35.8408C30.5009 35.9818 30.4966 36.1266 30.4626 36.2659C30.4285 36.4051 30.3655 36.5356 30.2776 36.6488C30.1898 36.7621 30.079 36.8555 29.9526 36.923C29.8261 36.9906 29.6869 37.0307 29.5439 37.0408Z" fill="#191919"/>
<defs>
<linearGradient id="paint0_linear_276_629" x1="37.3995" y1="24.9568" x2="37.6258" y2="40.7557" gradientUnits="userSpaceOnUse">
<stop stop-color="#FD98FF"/>
<stop offset="0.639405" stop-color="#68066A"/>
</linearGradient>
<linearGradient id="paint1_linear_276_629" x1="34.0392" y1="40.3258" x2="34.0398" y2="41.3839" gradientUnits="userSpaceOnUse">
<stop stop-color="#FD98FF"/>
<stop offset="0.639405" stop-color="#68066A"/>
</linearGradient>
<linearGradient id="paint2_linear_276_629" x1="25.9092" y1="18.6334" x2="25.9105" y2="19.3663" gradientUnits="userSpaceOnUse">
<stop stop-color="#FD98FF"/>
<stop offset="0.639405" stop-color="#68066A"/>
</linearGradient>
<linearGradient id="paint3_linear_276_629" x1="17.2439" y1="17.4517" x2="17.357" y2="20.2171" gradientUnits="userSpaceOnUse">
<stop stop-color="#FD98FF"/>
<stop offset="0.639405" stop-color="#68066A"/>
</linearGradient>
<linearGradient id="paint4_linear_276_629" x1="20.1371" y1="13.1365" x2="20.1396" y2="14.3565" gradientUnits="userSpaceOnUse">
<stop stop-color="#FD98FF"/>
<stop offset="0.639405" stop-color="#68066A"/>
</linearGradient>
<linearGradient id="paint5_linear_276_629" x1="25.9123" y1="23.4762" x2="25.9133" y2="24.1074" gradientUnits="userSpaceOnUse">
<stop stop-color="#FD98FF"/>
<stop offset="0.639405" stop-color="#68066A"/>
</linearGradient>
<linearGradient id="paint6_linear_276_629" x1="25.932" y1="25.7915" x2="25.9335" y2="26.5836" gradientUnits="userSpaceOnUse">
<stop stop-color="#FD98FF"/>
<stop offset="0.639405" stop-color="#68066A"/>
</linearGradient>
<linearGradient id="paint7_linear_276_629" x1="25.9015" y1="21.1295" x2="25.9028" y2="21.8571" gradientUnits="userSpaceOnUse">
<stop stop-color="#FD98FF"/>
<stop offset="0.639405" stop-color="#68066A"/>
</linearGradient>
<linearGradient id="paint8_linear_276_629" x1="35.5617" y1="8.93349" x2="41.1557" y2="18.4153" gradientUnits="userSpaceOnUse">
<stop stop-color="#FD98FF"/>
<stop offset="0.639405" stop-color="#68066A"/>
</linearGradient>
<linearGradient id="paint9_linear_276_629" x1="17.5169" y1="26.685" x2="17.5814" y2="28.8342" gradientUnits="userSpaceOnUse">
<stop stop-color="#FD98FF"/>
<stop offset="0.639405" stop-color="#68066A"/>
</linearGradient>
<linearGradient id="paint10_linear_276_629" x1="3.0767" y1="6.01678" x2="25.6026" y2="27.8311" gradientUnits="userSpaceOnUse">
<stop stop-color="#FD98FF"/>
<stop offset="0.639405" stop-color="#68066A"/>
</linearGradient>
<linearGradient id="paint11_linear_276_629" x1="7.29556" y1="26.6112" x2="7.3906" y2="28.973" gradientUnits="userSpaceOnUse">
<stop stop-color="#FD98FF"/>
<stop offset="0.639405" stop-color="#68066A"/>
</linearGradient>
<linearGradient id="paint12_linear_276_629" x1="12.3933" y1="19.5004" x2="12.7571" y2="29.3553" gradientUnits="userSpaceOnUse">
<stop stop-color="#FD98FF"/>
<stop offset="0.639405" stop-color="#68066A"/>
</linearGradient>
<linearGradient id="paint13_linear_276_629" x1="10.8563" y1="35.0055" x2="10.8569" y2="35.6748" gradientUnits="userSpaceOnUse">
<stop stop-color="#FD98FF"/>
<stop offset="0.639405" stop-color="#68066A"/>
</linearGradient>
<linearGradient id="paint14_linear_276_629" x1="6.88226" y1="17.7803" x2="6.9849" y2="20.69" gradientUnits="userSpaceOnUse">
<stop stop-color="#FD98FF"/>
<stop offset="0.639405" stop-color="#68066A"/>
</linearGradient>
<linearGradient id="paint15_linear_276_629" x1="11.9105" y1="15.8035" x2="12.5779" y2="19.4778" gradientUnits="userSpaceOnUse">
<stop stop-color="#FD98FF"/>
<stop offset="0.639405" stop-color="#68066A"/>
</linearGradient>
<linearGradient id="paint16_linear_276_629" x1="12.4562" y1="27.4112" x2="13.0848" y2="30.7535" gradientUnits="userSpaceOnUse">
<stop stop-color="#FD98FF"/>
<stop offset="0.639405" stop-color="#68066A"/>
</linearGradient>
<linearGradient id="paint17_linear_276_629" x1="12.9654" y1="17.6584" x2="13.2448" y2="31.8741" gradientUnits="userSpaceOnUse">
<stop stop-color="#FD98FF"/>
<stop offset="0.639405" stop-color="#68066A"/>
</linearGradient>
</defs>
</svg>
