<svg width="40" height="39" viewBox="0 0 40 39" fill="none" xmlns="http://www.w3.org/2000/svg">
<path d="M8.89146 4.82173C8.88557 4.92015 8.85486 5.01547 8.80218 5.09881C8.74951 5.18215 8.67659 5.2508 8.59022 5.29836C8.66355 5.42263 8.6982 5.56594 8.68975 5.71C8.6813 5.85405 8.63013 5.99233 8.54276 6.10718C8.45726 6.21919 8.34315 6.3061 8.21244 6.35875C8.08172 6.4114 7.93924 6.42784 7.79996 6.40636C7.76282 6.50746 7.6741 6.68284 7.573 6.71586C7.55739 6.72399 7.54005 6.72824 7.52245 6.72824C7.50485 6.72824 7.4875 6.72399 7.4719 6.71586C7.49639 6.86069 7.56472 6.99452 7.66766 7.0993C7.7706 7.20408 7.90319 7.27477 8.04756 7.30184C8.52006 7.38644 8.96162 7.23169 8.96162 6.75093C9.07469 6.77375 9.19138 6.77173 9.3036 6.74501C9.41582 6.71829 9.5209 6.66751 9.61156 6.59618C9.67614 6.54327 9.72961 6.47811 9.76892 6.40446C9.80822 6.33081 9.83258 6.25011 9.84059 6.16701C9.86122 5.63468 9.49189 5.28185 9.26286 5.28185C9.42999 4.98679 9.3227 4.73094 9.05653 4.53699C8.98868 4.4949 8.91277 4.46748 8.83369 4.45652C8.87634 4.57338 8.89596 4.6974 8.89146 4.82173ZM4.76688 4.97441C4.77618 4.97441 4.78511 4.97072 4.79168 4.96414C4.79826 4.95756 4.80196 4.94864 4.80196 4.93934C4.80196 4.93003 4.79826 4.92111 4.79168 4.91453C4.78511 4.90796 4.77618 4.90426 4.76688 4.90426L4.64102 4.88982C4.60181 4.88982 4.53785 4.88982 4.50071 4.87744C4.47669 4.5746 4.47669 4.27034 4.50071 3.96751C4.5003 3.95889 4.4969 3.95067 4.49108 3.94428C4.48527 3.9379 4.47742 3.93374 4.46887 3.93251C4.46032 3.93129 4.45161 3.93309 4.44424 3.93759C4.43687 3.9421 4.43131 3.94903 4.4285 3.9572C4.33878 4.18692 4.29869 4.43304 4.31089 4.67936C4.30765 4.76457 4.31528 4.84986 4.33358 4.93315C4.3831 5.06314 4.63276 5.00536 4.76688 4.97441ZM3.8095 3.7715C3.71046 3.79832 3.57634 3.8953 3.62586 3.93244C3.69861 3.96583 3.78152 3.96953 3.85696 3.94275C3.92917 3.92418 4.04884 3.85197 4.04678 3.81483C4.04472 3.77769 3.90647 3.74467 3.8095 3.7715ZM5.14653 3.91593C5.87282 4.06655 5.5365 3.79007 5.17955 3.74467C5.0867 3.73229 4.87005 3.74467 4.87417 3.79626C4.8783 3.84784 5.09082 3.90355 5.14653 3.91593ZM5.30953 4.26257C5.30375 4.25236 5.29601 4.2434 5.28674 4.23621C5.27748 4.22901 5.26688 4.22373 5.25555 4.22066C5.24423 4.21759 5.23242 4.21679 5.22079 4.21832C5.20916 4.21985 5.19794 4.22367 5.1878 4.22955C5.13622 4.25844 5.13828 4.28939 5.15066 4.45652C5.1523 4.48005 5.16322 4.50196 5.18102 4.51744C5.19882 4.53292 5.22204 4.54069 5.24557 4.53905C5.2691 4.53741 5.29102 4.52649 5.30649 4.50869C5.32197 4.49089 5.32975 4.46767 5.3281 4.44414C5.3312 4.38302 5.32494 4.32179 5.30953 4.26257ZM3.8487 4.37605C3.85062 4.35252 3.84311 4.32919 3.82782 4.3112C3.81254 4.2932 3.79073 4.28202 3.7672 4.28011C3.74367 4.27819 3.72034 4.2857 3.70235 4.30098C3.68436 4.31627 3.67317 4.33808 3.67126 4.36161C3.66734 4.41174 3.66734 4.4621 3.67126 4.51223C3.6729 4.53576 3.68382 4.55767 3.70162 4.57315C3.71942 4.58863 3.74264 4.5964 3.76617 4.59476C3.7897 4.59312 3.81161 4.5822 3.82709 4.5644C3.84257 4.5466 3.85034 4.52338 3.8487 4.49985C3.85283 4.45652 3.84664 4.40081 3.8487 4.37605ZM4.56468 5.71927C4.56468 5.7853 4.82672 5.80181 4.9629 5.66563C5.064 5.56452 5.05781 5.40977 5.01654 5.39946C4.97528 5.38914 5.0021 5.39946 4.85354 5.52738C4.76069 5.60579 4.56055 5.66769 4.56468 5.71927Z" fill="url(#paint0_linear_276_623)"/>
<path d="M39.1166 4.00446C39.0626 3.98703 39.0056 3.98152 38.9493 3.98828C38.893 3.99505 38.8389 4.01395 38.7906 4.04366C38.83 3.94919 38.8436 3.84592 38.8298 3.74448C38.7926 3.57735 38.5492 3.50101 38.349 3.74448C38.3367 3.61243 38.2768 3.52164 38.1716 3.50307C37.9095 3.45355 37.7961 3.95288 37.7383 4.21492C37.6021 4.11381 37.3793 3.94256 37.2679 4.07667C37.2363 4.11033 37.2151 4.15232 37.2067 4.19766C37.1983 4.243 37.203 4.2898 37.2204 4.33253C37.3007 4.47274 37.4149 4.59052 37.5526 4.67504C37.5134 4.76582 37.3463 5.00517 37.2596 5.14548C37.1894 5.12484 37.0409 5.08564 37.0099 5.14548C36.2857 6.13174 34.3276 8.41791 33.1082 8.37045C31.2244 8.29823 28.8536 7.38624 28.6163 7.41926L28.2841 6.6909C28.6496 6.44068 28.924 6.07868 29.0661 5.65924C29.2975 5.01905 29.4026 4.34007 29.3756 3.65988C29.3772 3.4394 29.3669 3.21899 29.3447 2.99962C30.2154 2.94185 30.789 1.91638 30.1102 1.06835C30.0447 0.966673 29.9595 0.879203 29.8595 0.811145C29.7596 0.743088 29.6469 0.695833 29.5283 0.672192C29.3885 0.66491 29.2486 0.683803 29.1157 0.727902C28.2903 0.934234 28.278 0.412213 27.7126 0.271907C27.4542 0.228613 27.1889 0.256429 26.945 0.352377C26.1197 0.641242 26.2807 1.10136 25.8989 1.48514C25.6926 1.69147 24.8116 1.40055 24.4546 1.98653C24.075 2.62822 24.11 3.98589 24.661 4.51823C24.7833 4.62815 24.9184 4.72305 25.0633 4.8009C25.197 4.93756 25.3534 5.04996 25.5255 5.1331C25.6864 5.46116 25.8701 6.4041 25.9382 6.76106L25.8742 7.29752C25.4342 7.36668 25.0002 7.47017 24.5764 7.60702C23.8818 7.83183 23.2081 8.11625 22.5626 8.45711C21.3865 9.07611 21.5309 9.06372 21.4896 8.9977C21.347 8.84248 21.1954 8.69573 21.0357 8.55821C19.9091 7.60908 18.6876 6.80026 17.2454 6.56298L17.0762 5.60353C17.5301 5.23214 17.7777 4.48315 17.786 3.95288C17.9552 4.02303 18.0893 3.89923 18.178 3.74654C18.2028 3.70115 18.3575 3.74654 18.4772 3.47831C18.4979 3.42239 18.4979 3.36091 18.4772 3.30499C18.5186 3.28027 18.554 3.24679 18.5811 3.2069C18.6082 3.16701 18.6262 3.12168 18.6338 3.07409C18.6415 3.0265 18.6386 2.97781 18.6255 2.93144C18.6123 2.88506 18.5892 2.84213 18.5576 2.80567C18.6212 2.76952 18.6756 2.7193 18.7168 2.65886C18.7579 2.59841 18.7846 2.52935 18.7949 2.45697C18.8403 2.18667 18.7784 1.9432 18.5184 1.8586C18.5184 1.79877 18.5618 1.69973 18.5618 1.67909C18.564 1.58301 18.5469 1.48746 18.5115 1.39813C18.476 1.3088 18.423 1.22752 18.3554 1.15914C18.0686 0.913601 17.9778 0.934234 17.7983 0.952804C17.7983 0.829005 17.8767 0.746472 17.7468 0.577279C17.6471 0.462252 17.5143 0.380733 17.3667 0.343814C17.219 0.306895 17.0635 0.316369 16.9214 0.370947L16.8698 0.387454C16.8376 0.306369 16.7886 0.233018 16.726 0.172211C16.6634 0.111405 16.5887 0.0645176 16.5067 0.0346254C16.2488 -0.0623507 16.0713 0.063512 15.8547 0.176995C15.5307 -0.11187 14.9118 0.0428787 14.5796 0.243021C14.4289 0.333807 14.4145 0.494746 14.3547 0.569026C14.2264 0.55968 14.0988 0.593055 13.9915 0.663939C13.8966 0.723775 13.8079 0.810435 13.7315 0.870271C13.6812 0.909301 13.6397 0.958521 13.6098 1.0147C13.5459 1.1196 13.5091 1.2387 13.5025 1.36134C13.4518 1.37349 13.4036 1.39444 13.3601 1.42324C13.1953 1.57082 13.0794 1.76517 13.0279 1.98034C13.0054 2.09939 13.0169 2.22237 13.061 2.33523C13.061 2.34761 13.0816 2.37237 13.0878 2.38475C13.0465 2.44459 12.9392 2.49204 12.9186 2.65298C12.8979 2.81392 12.9041 3.12961 13.061 3.22452C13.127 3.26373 13.2673 3.30499 13.3168 3.33594C13.309 3.42036 13.309 3.50531 13.3168 3.58973C13.3705 3.93843 13.715 4.06429 14.0699 4.01271L14.1669 4.06223C14.2046 4.42982 14.3022 4.78876 14.4558 5.12484C14.5703 5.34684 14.7429 5.53366 14.9551 5.66543L14.856 6.54441C14.3636 6.61637 13.8797 6.73804 13.4117 6.90755C11.9942 7.42545 11.1668 8.09809 10.4343 9.26593C9.42538 8.43029 7.71694 7.17785 6.39642 7.20054C6.4049 7.11133 6.4049 7.02152 6.39642 6.93231C6.39642 6.87248 6.3634 6.68884 6.30769 6.66202C6.30769 6.56091 6.29119 6.45569 6.28294 6.35871C6.74925 7.04786 7.70044 6.68265 7.59521 6.21221C7.71289 6.22001 7.83071 6.19911 7.93853 6.1513C8.04636 6.1035 8.14096 6.03023 8.21421 5.93779C8.28531 5.83619 8.32345 5.71517 8.32345 5.59115C8.32345 5.46714 8.28531 5.34612 8.21421 5.24452C8.19712 5.217 8.17629 5.192 8.15231 5.17024C8.47418 5.0877 8.5856 4.94533 8.62687 4.74106C8.66008 4.58479 8.64791 4.42228 8.59179 4.27269C8.62851 4.25456 8.66311 4.23241 8.69496 4.20666C8.78953 4.11629 8.8537 3.99877 8.8786 3.87034C8.92786 3.42323 8.83085 2.9722 8.60211 2.58489C8.52799 2.45574 8.4067 2.36034 8.26373 2.31872C8.23688 2.19589 8.221 2.07091 8.21627 1.94526C8.18223 1.75017 8.10187 1.56608 7.98196 1.40847C7.86204 1.25086 7.70606 1.12431 7.52712 1.03946C7.35374 0.958172 7.16555 0.913232 6.97415 0.907411C6.89375 0.900743 6.81286 0.911294 6.73687 0.938361C6.60533 0.779247 6.4326 0.659336 6.23754 0.591723C5.859 0.521414 5.46779 0.585643 5.1316 0.773295C5.06351 0.818688 5.00986 0.907411 4.95003 0.950741C4.80313 0.887657 4.64386 0.858602 4.48415 0.865748C4.32444 0.872894 4.1684 0.916056 4.02772 0.992007C3.87838 1.05744 3.74381 1.15241 3.63212 1.2712C3.52042 1.38998 3.43391 1.53014 3.37778 1.68322C3.29112 1.88955 3.21271 2.22794 3.34476 2.40538C3.35235 2.41521 3.35924 2.42555 3.3654 2.43633C3.28699 2.57458 3.10748 2.64267 3.04765 3.02644C3.02327 3.21895 3.03094 3.41417 3.07034 3.60417C3.08132 3.65097 3.10755 3.6928 3.1449 3.72305C3.18226 3.75331 3.22861 3.77028 3.27667 3.7713C3.21271 4.3903 3.22303 5.21563 3.56141 5.75003C3.64565 5.87503 3.74396 5.98995 3.8544 6.09254C3.96978 6.20558 4.11166 6.28787 4.26707 6.33189V6.69916C4.1639 6.75693 4.23612 7.085 4.19279 7.28308C3.35508 7.2253 2.18311 7.41926 1.53317 7.95572C0.530391 8.7893 0.121853 9.9654 0.0145606 11.2653C-0.131935 13.0583 0.83989 14.1684 2.34818 14.3603C2.44293 14.6742 2.55452 14.9827 2.68244 15.2846C2.04513 16.4797 1.57907 17.7584 1.29795 19.0832C1.09162 20.2057 0.994639 21.9843 0.976069 23.6906C0.976069 24.5036 0.976069 27.5532 1.24843 28.3125C1.29176 28.4321 1.47746 28.4961 1.59919 28.5312C1.93773 28.6198 2.28266 28.6819 2.63085 28.7169C2.71751 30.5285 2.97543 37.4262 2.97543 37.4365C2.6209 37.6262 2.29452 37.8644 2.00567 38.1442C1.95977 38.1851 1.92535 38.2372 1.90581 38.2955C1.88626 38.3537 1.88228 38.4161 1.89425 38.4764C1.9155 38.53 1.95538 38.5741 2.00655 38.6006C2.05773 38.6272 2.11676 38.6343 2.1728 38.6208C2.51531 38.5899 3.43761 38.3134 3.8544 38.237C3.86472 38.3258 3.87916 38.4124 3.96582 38.4434C4.11438 38.495 4.40737 38.5218 4.51467 38.3877C4.62196 38.2535 4.558 37.9028 4.57244 37.7522C4.58482 37.6407 5.5257 31.1495 5.84757 28.9232H6.10549C6.50165 31.067 7.58489 37.1971 7.58696 37.2074C7.37246 37.3704 7.16911 37.5476 6.97827 37.7377C6.8194 37.8987 6.55323 38.1875 6.65846 38.3856C6.76369 38.5837 7.01129 38.4826 7.21968 38.4062C7.63235 38.2618 8.25135 37.9833 8.56703 37.8801C8.58973 37.9647 8.61655 38.0493 8.70528 38.0678C8.82839 38.0864 8.95398 38.0801 9.07461 38.0493C9.24999 37.9977 9.28094 37.8883 9.28094 37.7068C9.2046 36.7927 9.20254 39.6752 9.26444 28.8819C9.49322 28.8727 9.71992 28.8346 9.93914 28.7685C10.5231 28.4817 10.4694 20.1025 9.71011 17.4656C9.65853 17.284 9.33253 16.3369 9.10143 15.7489C9.10869 15.7289 9.10869 15.707 9.10143 15.687C9.03359 15.5161 8.95715 15.3488 8.87241 15.1856C8.93431 14.4263 9.00033 12.9613 9.06223 12.5177L9.576 12.8706C9.61811 13.0366 9.67759 13.1977 9.75344 13.3513C9.83797 13.5731 9.97371 13.7718 10.1496 13.9311C10.3719 14.1359 10.6364 14.2893 10.9245 14.3806C11.2125 14.4719 11.5172 14.4987 11.8168 14.4593H12.1634C12.5637 16.8363 12.4481 16.5866 12.508 16.6464C10.9873 21.8873 10.4962 31.8284 10.7026 36.867C10.7026 36.8909 10.7106 36.9142 10.7253 36.933C10.8305 37.0671 11.4866 37.1394 11.7033 37.1765C11.2963 37.3935 10.909 37.6455 10.5458 37.9296C10.3621 38.1091 10.6035 38.4454 10.8284 38.5032C10.9522 38.5362 12.6359 38.2969 12.7638 38.2783C12.7803 38.3567 12.8175 38.4331 12.8959 38.4475C13.1166 38.4855 13.3405 38.5014 13.5644 38.495C13.6552 38.495 13.7707 38.4743 13.7914 38.3877C13.8603 38.0443 13.9003 37.6957 13.911 37.3457C14.0575 37.3457 14.204 37.3457 14.2515 37.3044C14.6642 36.8918 16.5067 26.3915 16.6573 25.5435C16.7085 25.259 16.7217 24.969 16.6965 24.681C16.3973 21.1424 16.5088 22.5991 16.4613 21.2353C16.4633 21.2272 16.4679 21.2199 16.4744 21.2148C16.481 21.2096 16.4891 21.2068 16.4974 21.2068C16.5058 21.2068 16.5138 21.2096 16.5204 21.2148C16.5269 21.2199 16.5316 21.2272 16.5335 21.2353C16.6718 22.857 16.7543 22.9127 16.8657 25.0504C16.8657 25.1968 18.5473 36.7019 18.8506 37.0032C19.0122 37.07 19.1855 37.1037 19.3603 37.1022C19.3406 37.5464 19.3759 37.9914 19.4655 38.4269C19.4712 38.4432 19.4802 38.4582 19.4919 38.471C19.5036 38.4838 19.5178 38.494 19.5336 38.5011C19.6842 38.5754 20.2475 38.5011 20.3589 38.4867C20.3943 38.4733 20.4254 38.4505 20.4487 38.4206C20.472 38.3908 20.4866 38.3551 20.491 38.3175C20.6664 38.3423 22.3046 38.5734 22.4243 38.5424C22.6492 38.4846 22.8927 38.1483 22.707 37.9667C22.2773 37.6382 21.8203 37.3469 21.3411 37.096C21.5887 37.0775 22.1086 37.0321 22.3232 36.9062C22.6472 36.7143 22.3377 22.3206 19.7379 16.4174C19.7853 16.3411 19.9669 14.222 19.9751 14.1271C20.6273 14.1051 21.2593 13.8951 21.795 13.5226L22.6203 13.2254C22.1178 15.1404 21.7407 17.0861 21.4917 19.0502C21.4442 19.4381 21.2049 21.3653 21.4628 21.6541C21.4894 21.6841 21.5262 21.7032 21.566 21.7078C21.6836 21.7181 22.154 21.7593 22.6554 21.7903C22.6554 27.71 23.2373 30.8875 24.1761 37.1208C24.179 37.1401 24.1887 37.1578 24.2034 37.1706C24.2182 37.1835 24.237 37.1907 24.2565 37.1909H24.3102C24.3491 37.4783 24.4119 37.762 24.4979 38.039C24.6279 38.301 26.6438 38.2948 26.9285 38.204C26.9782 38.1785 27.0176 38.1368 27.0402 38.0857C27.0627 38.0346 27.067 37.9773 27.0523 37.9234C26.9698 37.5561 26.227 37.4757 25.8762 37.2116H25.998C26.017 37.2121 26.0356 37.206 26.0507 37.1943C26.0657 37.1826 26.0762 37.1662 26.0805 37.1476L27.659 29.2471C27.6775 29.3627 28.7876 37.2941 28.7876 37.2941C28.7911 37.3149 28.802 37.3336 28.8183 37.3469C28.8347 37.3602 28.8553 37.3671 28.8763 37.3663H29.0393C29.0683 37.6571 29.1152 37.9458 29.1796 38.2309C29.1828 38.2439 29.1889 38.2561 29.1975 38.2665C29.2061 38.2768 29.2169 38.2851 29.2291 38.2907C29.4355 38.3877 31.2491 38.497 31.5483 38.334C31.6027 38.3046 31.644 38.2558 31.6643 38.1974C31.6845 38.139 31.6822 38.0751 31.6577 38.0183C31.6059 37.8747 31.5134 37.7492 31.3915 37.6572C31.1418 37.519 30.7065 37.4881 30.4733 37.3663H30.5889C30.6086 37.3652 30.6275 37.3577 30.6427 37.3451C30.6579 37.3325 30.6687 37.3153 30.6735 37.2962C30.6735 37.2962 31.2739 35.0905 31.6267 30.0168C31.8331 27.058 31.8908 24.0331 31.8681 21.1073C32.1322 21.128 32.582 21.1486 32.8049 21.1383C32.8668 21.1383 32.9266 21.1383 32.9534 21.0785C33.1928 20.6018 33.0112 15.8644 32.8771 14.6698C32.8647 14.5542 32.5697 12.592 32.5305 12.3362C33.2176 12.3093 34.21 12.1628 34.7733 11.7605C37.6619 9.69717 38.2129 6.17301 38.4481 5.70051C38.4708 5.65099 38.4151 5.62623 38.2768 5.55814C38.3562 5.32261 38.4506 5.09242 38.5595 4.86899C38.8463 4.71011 39.1785 4.52854 39.2012 4.20047C39.2122 4.16306 39.2097 4.12299 39.1943 4.0872C39.1788 4.0514 39.1513 4.02213 39.1166 4.00446ZM18.5391 1.89781C18.5226 1.89781 18.5184 1.88543 18.5184 1.86479C18.5184 1.84416 18.5576 1.89781 18.5391 1.89781ZM26.1342 9.73843C27.1534 9.80239 27.7601 9.81065 28.7958 9.80446C28.8619 10.2047 28.9362 10.6422 29.0166 11.1064C28.4616 11.1064 26.5798 11.127 26.0908 11.1188C26.1135 10.6649 26.13 10.2006 26.1342 9.74256V9.73843ZM25.8639 14.057C27.0647 14.1271 27.9561 14.1457 29.551 14.1127C29.6583 14.7007 29.7697 15.295 29.8688 15.817C28.9031 15.8459 26.6748 15.8851 25.672 15.8562C25.7112 15.5281 25.7917 14.7317 25.8639 14.0611V14.057ZM25.5853 16.5206C27.1576 16.6114 28.4162 16.6155 30.0153 16.568C30.0937 16.9642 30.17 17.348 30.2443 17.709C28.4203 17.7792 26.6356 17.7833 25.3666 17.7586C25.4505 17.35 25.5234 16.9374 25.5853 16.5206ZM29.4169 13.3699C28.7979 13.3823 26.5283 13.407 25.9258 13.3988C25.9794 12.8087 26.0207 12.2743 26.0516 11.7894C27.042 11.8513 27.7147 11.874 29.1466 11.8575C29.1961 12.1298 29.3777 13.1429 29.4169 13.3699ZM28.5297 7.86081C28.5544 8.19919 28.6287 8.72328 28.6803 9.0596C28.1542 9.0596 26.5448 9.07817 26.1321 9.07198C26.128 8.64842 26.0997 8.22544 26.0475 7.8051C26.6046 8.55408 28.1088 8.45092 28.5297 7.86081ZM25.2284 18.4168C26.9521 18.5208 28.6801 18.5339 30.4052 18.456C30.4836 18.8191 30.5559 19.1492 30.624 19.4381C30.2979 19.4195 26.4437 19.2318 25.0406 19.1637C25.0984 18.9285 25.1603 18.6788 25.2222 18.4168H25.2284ZM25.6802 5.05675C25.608 4.91232 25.15 4.85042 25.1066 4.48521C25.0571 4.0581 25.5544 4.04366 25.7256 4.23555C25.7401 4.24999 25.8412 4.38617 25.8536 4.40268C25.9608 4.54711 26.0599 4.55124 26.0929 4.34491C26.1404 3.96113 26.0227 3.19357 26.4705 3.27404C26.7904 3.37439 27.1193 3.44349 27.4526 3.48037C28.0861 3.53815 28.5895 3.48037 28.9981 3.02644C29.0434 3.01613 29.1941 3.00994 29.2477 3.00581C29.2665 3.22399 29.272 3.4431 29.2642 3.66195C29.2783 4.32428 29.1634 4.98303 28.9258 5.60147C28.5978 6.3876 28.1438 6.57742 28.1438 6.57742C28.1333 6.58144 28.1237 6.58753 28.1155 6.59533C28.1074 6.60312 28.1009 6.61247 28.0964 6.62281C28.0778 6.67027 28.0716 6.62281 28.4595 7.49147C28.5421 8.24046 26.324 8.54583 26.0372 7.36974L26.1073 6.76931C26.1156 6.72598 25.8701 5.44259 25.674 5.05675H25.6802ZM21.1409 8.77073C21.7933 9.4185 22.2429 10.2423 22.4346 11.1415C22.5564 11.7605 22.5048 12.2804 22.3026 12.6374C22.1701 12.8667 22.0047 13.0753 21.8115 13.2564C21.609 13.4633 21.3621 13.6214 21.0893 13.7186C20.5165 13.9287 19.9019 13.9994 19.2963 13.9249C18.4909 13.8231 17.6957 13.6526 16.9194 13.4153C16.9194 13.3534 16.907 13.2873 16.9008 13.2089L17.6126 12.949C17.749 12.911 17.881 12.8592 18.0067 12.7942C18.079 12.7571 18.0851 12.6477 18.0934 12.5549C18.1285 12.2165 18.0583 12.2619 18.1615 12.1793C18.3926 11.9978 19.0281 11.8203 19.3046 11.7419C19.3974 11.7172 19.5315 11.6965 19.4903 11.6078C19.4772 11.4811 19.4253 11.3615 19.3417 11.2653C18.9063 9.42068 18.9806 9.42687 18.9105 9.43925C18.9057 9.43969 18.9011 9.44117 18.8969 9.44357C18.8928 9.44598 18.8892 9.44926 18.8865 9.45319C18.8837 9.45712 18.8819 9.4616 18.881 9.46632C18.8802 9.47103 18.8804 9.47588 18.8816 9.48052C18.9744 10.0294 19.1127 10.7391 19.2117 11.2178L18.9559 11.1807C18.9125 11.1807 18.8692 11.1807 18.8589 11.1601C18.7764 10.9888 18.8114 10.7866 18.6134 10.6876C18.5927 10.6737 18.5694 10.6643 18.5449 10.66C18.5204 10.6557 18.4953 10.6566 18.4712 10.6626C18.4471 10.6686 18.4245 10.6797 18.4049 10.695C18.3853 10.7103 18.3692 10.7296 18.3575 10.7515C18.2502 10.9579 18.3802 11.42 18.3575 11.4138C18.2476 11.4589 18.1326 11.4901 18.015 11.5067C18.0102 11.4878 18.0018 11.47 17.9901 11.4544C17.9784 11.4389 17.9637 11.4258 17.9469 11.4159C17.5283 11.2113 17.0927 11.0436 16.6449 10.9145C16.548 10.1016 16.42 9.07817 16.3746 8.73566C16.3905 8.72829 16.4051 8.71855 16.418 8.70677C16.4908 8.56315 16.5442 8.41051 16.5769 8.25284C16.6119 8.29204 16.6408 8.32918 16.7048 8.30442C17.2645 7.89762 17.7935 7.45004 18.2873 6.96533C19.334 7.39735 20.2991 8.00516 21.1409 8.76248V8.77073ZM18.5288 10.8526C18.6773 10.9372 18.5968 11.1889 18.764 11.3148C18.9314 11.3639 19.1053 11.3876 19.2798 11.385C19.3207 11.453 19.3468 11.529 19.3561 11.6078C19.1952 11.6573 18.4132 11.8306 18.0872 12.0555C18.0805 11.8998 18.0633 11.7447 18.0356 11.5913C18.2048 11.5769 18.4173 11.5913 18.4792 11.4819C18.5411 11.3726 18.4359 10.7969 18.5288 10.8526ZM18.1305 6.93231C17.7612 7.25213 16.9338 7.93715 16.6862 8.11872C16.5624 7.98048 16.2385 7.5967 16.1477 7.4564C16.354 7.27895 17.1174 6.76312 17.2289 6.70122C17.5371 6.73783 17.8398 6.81125 18.1305 6.91993V6.93231ZM14.8808 6.68678L15.8877 7.46259C15.735 7.62559 15.3616 7.94953 15.1944 8.11872C14.9592 7.94953 14.3175 7.2707 13.9564 6.89517C14.2596 6.80537 14.5684 6.73575 14.8808 6.68678ZM14.3196 3.95494C14.2907 3.91367 14.2866 3.92605 14.0761 3.81463C13.9379 3.70115 13.7707 3.6083 13.7088 3.43911C13.7088 3.2988 13.7522 3.12548 13.8987 3.13374C14.0094 3.15926 14.1122 3.2117 14.1978 3.28642C14.2915 3.31714 14.3922 3.31922 14.487 3.29238C14.5818 3.26555 14.6665 3.21103 14.7302 3.1358C14.8017 3.00703 14.823 2.85636 14.79 2.71282C14.9258 2.70067 15.0515 2.63632 15.1408 2.53331C15.1848 2.44426 15.2114 2.34761 15.2192 2.24857C15.4122 2.3034 15.6183 2.28805 15.801 2.20524C15.9259 2.15143 16.0399 2.0752 16.1374 1.98034C16.159 2.03462 16.1874 2.08593 16.222 2.13302C16.2541 2.18209 16.2988 2.22159 16.3514 2.24737C16.4041 2.27315 16.4627 2.28426 16.5211 2.27952C16.594 2.26797 16.664 2.24276 16.7275 2.20524V2.28777C16.7264 2.35106 16.7392 2.41381 16.7649 2.47163C16.7907 2.52944 16.8288 2.5809 16.8766 2.6224C16.9244 2.6639 16.9807 2.69442 17.0416 2.71183C17.1024 2.72923 17.1664 2.73309 17.2289 2.72313C17.2276 2.73686 17.2276 2.75067 17.2289 2.7644C17.2495 2.87582 17.2062 3.21214 17.3609 3.25135C17.5157 3.29055 17.4311 2.90471 17.7282 2.85725C17.7816 2.84422 17.8378 2.8503 17.8872 2.87442C17.9366 2.89854 17.9759 2.93919 17.9985 2.9893C18.0563 3.175 17.9985 3.25754 17.9015 3.44117L17.8375 3.51339C17.7385 3.62068 17.6312 3.73416 17.6312 3.83733C17.6374 4.15294 17.5776 4.46636 17.4558 4.75757C17.351 5.05276 17.1668 5.31334 16.9235 5.51068C16.9114 5.52 16.902 5.53235 16.8962 5.54648C16.8904 5.56061 16.8884 5.57602 16.8905 5.59115L17.0597 6.58361L15.9909 7.3099C15.8031 7.16547 16.0528 7.38005 15.0252 6.58567L15.1367 5.62623C15.1386 5.60863 15.1353 5.59085 15.1272 5.57508C15.1192 5.55932 15.1067 5.54626 15.0913 5.53751C14.3505 5.12278 14.4083 4.09731 14.3196 3.95494ZM11.9261 7.85462C12.4906 7.45036 13.1181 7.14221 13.7831 6.94263C14.1608 7.37726 14.5624 7.79056 14.986 8.18062C15.0768 8.25903 15.1924 8.35601 15.2728 8.27347C15.3017 8.24046 15.345 8.19713 15.3946 8.14761C15.4461 8.32666 15.5067 8.50296 15.5761 8.67582C15.5844 8.69111 15.5955 8.70463 15.609 8.71561C15.6224 8.72659 15.6379 8.7348 15.6545 8.73978C15.6319 9.00595 15.5761 9.77144 15.5122 10.6195C14.8576 10.479 14.1882 10.4194 13.519 10.442C13.519 10.3884 13.585 9.75287 13.5871 9.73224C13.5871 9.62082 13.5871 9.47433 13.5995 9.41655C13.6019 9.40752 13.6007 9.39789 13.5961 9.38976C13.5914 9.38163 13.5837 9.37569 13.5747 9.37322C13.5657 9.37076 13.5561 9.37199 13.5479 9.37663C13.5398 9.38127 13.5339 9.38895 13.5314 9.39798C13.3478 9.77145 13.3808 10.0356 13.4055 10.4482C12.944 10.471 12.4916 10.5854 12.0747 10.7845C12.0662 10.7889 12.0598 10.7965 12.0569 10.8056C12.054 10.8147 12.0548 10.8245 12.0592 10.833C12.0636 10.8415 12.0712 10.8479 12.0802 10.8508C12.0893 10.8537 12.0992 10.8529 12.1077 10.8485C13.552 10.1428 16.1724 10.8114 17.5652 11.4118C17.6623 11.4516 17.7568 11.4978 17.8479 11.55C17.9114 11.8754 17.9308 12.2078 17.9056 12.5384C17.9056 12.6312 17.9056 12.6539 17.7406 12.7179C17.623 12.7653 17.4827 12.7983 17.396 12.8314C17.1133 12.9366 16.841 13.0377 16.5707 13.1409C15.0448 13.6306 13.4858 14.0098 11.9055 14.2757C11.3917 14.2757 10.715 14.1808 10.3374 13.8259C8.70321 12.297 10.4116 8.89453 11.9261 7.85462ZM4.19279 6.10698C4.00102 5.99639 3.83724 5.8432 3.7141 5.65924C3.39222 5.15992 3.38809 4.34284 3.44174 3.75273C3.73 3.66302 3.99205 3.50438 4.20517 3.29055C4.43584 3.05481 4.63742 2.79227 4.8056 2.50855L4.92114 2.28571C5.13031 2.82075 5.48831 3.28471 5.9528 3.62274C6.1143 3.69668 6.28902 3.73737 6.46657 3.74242C6.46252 3.90424 6.47987 4.06589 6.51815 4.22317C6.52227 4.2315 6.52806 4.2389 6.53514 4.24492C6.54223 4.25093 6.55047 4.25543 6.55937 4.25813C6.56826 4.26084 6.57761 4.2617 6.58684 4.26065C6.59608 4.25961 6.605 4.25668 6.61307 4.25206C6.70385 4.20254 6.73893 3.93637 6.87924 3.75273C6.91638 3.70115 6.95971 3.66195 7.01335 3.67433C7.06993 3.68299 7.12366 3.70491 7.17016 3.73829C7.3765 3.89098 7.21143 4.50172 6.82559 4.69154C6.71004 4.74932 6.10755 5.45085 6.06835 5.67162C6.04254 5.79289 6.04894 5.91881 6.08692 6.03683C6.0993 6.21634 6.11993 6.4495 6.13438 6.65583C5.75266 6.65583 4.8221 6.65583 4.44039 6.6744C4.45896 6.16476 4.46927 6.2184 4.19279 6.10698ZM8.04708 28.7602H6.48927C6.72655 25.822 7.01542 18.6169 6.95352 16.0646C7.22862 16.0522 7.47622 16.0357 7.69631 16.0151C8.16675 18.4477 8.42879 26.3812 8.04708 28.7602ZM2.88877 28.5724C2.66593 26.1109 2.88877 18.1217 3.47888 15.9862C3.58205 16.0006 4.32072 16.0666 4.32072 16.0666C4.00709 18.588 3.68521 25.8241 3.79663 28.6529C3.46237 28.6282 3.157 28.5972 2.87639 28.5724H2.88877ZM5.1708 15.916L4.39499 15.8851C4.3932 15.6627 4.40906 15.4405 4.44245 15.2207L4.721 15.2L5.32349 15.1856C5.29382 15.433 5.24273 15.6774 5.1708 15.916ZM2.78148 15.2372L4.27532 15.2083C4.23349 15.4356 4.21414 15.6664 4.21755 15.8974C3.657 15.8929 3.09812 15.8356 2.54832 15.7262C2.70101 15.3919 2.76497 15.2785 2.78148 15.2372ZM4.46308 28.69C4.39499 26.115 4.81385 18.2373 5.08208 16.077C5.36476 16.077 5.57522 16.0914 6.1612 16.077C6.1612 17.055 5.86821 27.5284 5.80012 28.7354C5.44729 28.7354 4.55387 28.6962 4.46308 28.69ZM5.32968 15.9181C5.38031 15.6772 5.40521 15.4317 5.40396 15.1856C6.75956 15.1608 8.08628 15.1278 8.68464 15.2083C8.76616 15.3521 8.83519 15.5025 8.89097 15.6581C7.7252 15.9078 6.41705 15.9181 5.32968 15.9181ZM1.44444 28.2877C1.08749 28.0607 0.971942 21.6562 1.40937 19.1018C1.63185 17.9585 2.00151 16.8488 2.50912 15.8005L2.72577 15.8459C2.14804 17.9319 1.91694 25.5125 2.20375 28.4755C1.94319 28.4482 1.68767 28.385 1.44444 28.2877ZM4.43007 37.5727C3.85647 37.6511 3.54697 37.6965 3.32207 37.746C3.19301 37.7581 3.06395 37.7229 2.95892 37.6469C3.12811 37.5458 3.16525 37.5603 3.16525 37.4633C3.18382 37.063 2.77529 29.5195 2.72577 28.721C3.66664 28.8283 4.84274 28.8861 5.78361 28.9129C5.4638 30.8813 4.57657 36.5637 4.42388 37.5788L4.43007 37.5727ZM9.04779 37.1476C8.5237 37.2941 8.19564 37.389 7.97486 37.4715C7.84852 37.5015 7.71557 37.4839 7.6014 37.422C7.74996 37.3044 7.78091 37.3127 7.77265 37.2157C7.73551 36.803 6.28087 29.34 6.19834 28.9253C7.36618 28.95 8.46799 28.9376 9.18397 28.8881C9.13651 31.2052 9.05398 36.2026 9.0416 37.1538L9.04779 37.1476ZM9.57187 17.5027C10.261 19.9436 10.3312 27.4067 9.86693 28.6055C9.69361 28.6921 8.91574 28.7251 8.72591 28.7334C9.13857 26.1645 8.93224 18.4168 8.45974 15.914C8.65369 15.883 8.82701 15.85 8.98795 15.8149C9.21698 16.4401 9.51823 17.3397 9.56568 17.5089L9.57187 17.5027ZM8.11517 11.4716C8.02644 11.3912 7.93978 11.3189 7.8655 11.2405C7.85976 11.2331 7.85131 11.2283 7.84203 11.2272C7.83274 11.226 7.82337 11.2286 7.81598 11.2343C7.8086 11.2401 7.80379 11.2485 7.80263 11.2578C7.80147 11.2671 7.80405 11.2765 7.80979 11.2839C8.16262 11.8616 8.65163 12.1401 8.91367 12.3774C8.84765 12.6291 8.77956 14.1374 8.70734 15.0309C8.16262 14.905 5.3173 15.0536 4.36198 15.0536C4.34021 15.0539 4.31945 15.0628 4.30421 15.0783C3.55316 15.1134 2.96099 15.1485 2.79592 15.1588C2.69688 14.9277 2.57308 14.5542 2.49674 14.3169C2.83133 14.377 3.1742 14.3742 3.50777 14.3087C3.5135 14.4341 3.54072 14.5577 3.58824 14.6739C3.6914 14.7647 7.12477 14.5192 7.23413 14.4965C7.30841 14.4799 7.31047 14.3768 7.31666 14.2901C7.33523 14.0838 7.34761 13.6299 7.35586 13.0975C7.3878 13.0848 7.41658 13.0653 7.44022 13.0403C7.46387 13.0153 7.4818 12.9855 7.49279 12.953C7.50378 12.9204 7.50756 12.8858 7.50387 12.8516C7.50018 12.8175 7.4891 12.7845 7.47141 12.755C7.49554 12.7243 7.51314 12.6889 7.52313 12.6512C7.53312 12.6134 7.53528 12.574 7.52948 12.5353C7.52368 12.4967 7.51005 12.4596 7.48942 12.4264C7.46879 12.3933 7.4416 12.3646 7.40951 12.3423C7.43618 12.3163 7.45648 12.2845 7.4688 12.2494C7.48113 12.2142 7.48515 12.1767 7.48055 12.1397C7.47596 12.1027 7.46287 12.0673 7.44231 12.0363C7.42175 12.0052 7.39428 11.9793 7.36205 11.9606C7.36205 11.2158 7.36205 10.4895 7.33523 10.083C7.32285 9.74875 7.31253 9.71161 7.26095 9.67034C7.15985 9.60844 6.72449 9.6332 6.52847 9.64146C6.53118 9.55395 6.50746 9.46767 6.46038 9.39386C6.36547 9.30101 5.94661 9.39386 5.70314 9.39386C5.6495 9.2226 5.62267 9.09468 5.43285 9.00595C5.33941 8.97295 5.23704 8.97577 5.14557 9.01389C5.05409 9.052 4.98001 9.12269 4.93765 9.21228C4.93765 9.23292 4.87781 9.40211 4.86543 9.45782C4.64403 9.47457 4.42364 9.50281 4.20517 9.54242C4.12676 9.56718 4.12057 9.73224 4.11851 9.84779C3.33238 9.93032 3.2808 9.93032 3.26636 10.0108C3.25191 10.0913 3.30969 11.4035 3.31381 11.5129C3.12089 11.5374 2.92992 11.5753 2.74227 11.6264C2.78131 11.3701 2.80474 11.1117 2.81243 10.8526C2.81243 10.7391 2.82274 10.2543 2.75465 10.2522C2.68656 10.2501 2.6453 10.7268 2.63911 10.8217C2.62673 10.9661 2.60816 11.5046 2.61847 11.6656C2.53181 11.6924 2.44928 11.7213 2.36469 11.7543C2.35593 11.7576 2.34884 11.7642 2.34497 11.7727C2.3411 11.7812 2.34077 11.7909 2.34405 11.7997C2.34734 11.8084 2.35396 11.8155 2.36248 11.8194C2.37099 11.8233 2.38069 11.8236 2.38945 11.8203C3.55522 11.418 5.13366 11.6429 5.9982 12.0762L6.0374 12.9448C5.29048 13.4669 4.102 14.1127 3.19414 14.2282C2.9264 14.2592 2.65569 14.2536 2.38945 14.2117C0.825446 14.0095 0.0186872 12.8891 0.13217 11.2797C0.220893 10.0273 0.619114 8.81613 1.58062 8.01349C2.19962 7.49973 3.3819 7.32434 4.1866 7.3945C4.39293 7.411 4.28151 6.96533 4.33516 6.80439C4.41356 6.79201 4.66323 6.78788 4.74782 6.78582C4.73758 6.928 4.73758 7.07074 4.74782 7.21292C4.74782 7.27276 4.79115 7.49766 4.8448 7.48116C4.89845 7.46465 4.91908 7.28927 4.92114 7.23975C4.92321 7.19023 4.92114 7.18404 4.90257 6.78582H5.58966C5.58135 6.92325 5.58135 7.06105 5.58966 7.19848C5.58966 7.25832 5.63299 7.48322 5.68664 7.46671C5.74028 7.45021 5.76091 7.27482 5.76298 7.2253C5.76504 7.17578 5.76298 7.07262 5.74441 6.78994H6.24786C6.2685 6.85683 6.27962 6.92629 6.28087 6.99628C6.28087 7.23562 6.2396 7.2707 6.28087 7.31815C6.39229 7.44402 7.40332 6.94469 10.3601 9.40624C9.80915 10.3347 9.37379 11.55 9.53473 12.6209C9.05398 12.297 9.14683 12.3981 8.11517 11.4716ZM3.46237 11.4902C3.44174 10.799 3.42523 10.1676 3.42523 10.0913C3.58824 10.0665 3.95757 10.0294 4.12057 10.0129C4.12057 10.3162 4.13295 10.3368 4.32691 10.3574C4.69624 10.4008 6.3242 10.3574 6.49546 10.2109C6.51099 10.1984 6.52307 10.182 6.53053 10.1635C6.54362 10.0498 6.54638 9.93515 6.53879 9.82096C6.74014 9.8096 6.94198 9.8096 7.14334 9.82096C7.18254 10.1882 7.18667 11.5438 7.18667 11.9132C7.10919 11.9139 7.03216 11.925 6.95764 11.9462C6.98653 11.777 7.02986 11.5026 6.8586 11.4654C6.81276 11.4523 6.76408 11.453 6.7186 11.4673C6.67311 11.4816 6.63283 11.5089 6.60275 11.5459C6.51339 11.6837 6.46082 11.8421 6.45006 12.006C6.35559 12.0063 6.26119 12.0008 6.16739 11.9895C6.1642 11.9784 6.15869 11.968 6.15123 11.9591C6.14376 11.9502 6.1345 11.943 6.12406 11.9379C5.29307 11.5528 4.3732 11.4002 3.46237 11.4964V11.4902ZM7.34142 12.6312C7.26095 12.6787 7.20937 12.6457 7.06493 12.6642C7.0425 12.6642 7.02098 12.6731 7.00512 12.689C6.98925 12.7049 6.98034 12.7264 6.98034 12.7488C6.98034 12.7713 6.98925 12.7928 7.00512 12.8086C7.02098 12.8245 7.0425 12.8334 7.06493 12.8334C7.13353 12.8404 7.20267 12.8404 7.27127 12.8334C7.28777 12.8334 7.34761 12.8458 7.34761 12.8623C7.34761 13.0501 6.97827 12.9778 6.81527 12.8829C6.61334 12.8706 6.41071 12.8901 6.21485 12.9407L6.17358 12.0906C6.28584 12.1207 6.40292 12.1284 6.51815 12.1133C6.53412 12.1044 6.54596 12.0896 6.55117 12.0721C6.59862 11.8987 6.63783 11.5789 6.8194 11.6243C6.83006 11.7542 6.81678 11.885 6.7802 12.0101C6.75956 12.1381 6.80908 12.167 6.90606 12.1587C6.99273 12.1198 7.08567 12.0967 7.18048 12.0906C7.23413 12.0906 7.28777 12.0906 7.30428 12.1525C7.32079 12.2144 7.26714 12.2371 7.21556 12.2557C7.16397 12.2743 6.96177 12.3031 6.94113 12.3073C6.92074 12.3137 6.90335 12.3273 6.89216 12.3455C6.88098 12.3637 6.87676 12.3854 6.88027 12.4065C6.88379 12.4276 6.89481 12.4467 6.9113 12.4603C6.92779 12.4739 6.94864 12.4811 6.97002 12.4806C7.21968 12.4538 7.17635 12.4414 7.25063 12.4579C7.28299 12.4655 7.31173 12.484 7.33203 12.5103C7.35233 12.5366 7.36293 12.5691 7.36205 12.6023C7.3624 12.6095 7.36063 12.6167 7.35697 12.6229C7.3533 12.6292 7.3479 12.6342 7.34142 12.6374V12.6312ZM6.20453 13.0253C6.3865 13.0012 6.56982 12.9888 6.75337 12.9882C6.88218 13.0695 7.0303 13.1151 7.18254 13.1202C7.18254 13.4896 7.18254 14.1519 7.15778 14.3458C6.70798 14.3933 4.0855 14.6491 3.63569 14.6079C3.61187 14.5019 3.59601 14.3943 3.58824 14.286C4.72719 14.0508 6.14676 13.1409 6.20453 13.0315V13.0253ZM13.6325 38.3031C13.3973 38.3184 13.1612 38.3059 12.9289 38.2659V38.1628C12.9265 38.138 12.9147 38.1151 12.8959 38.0988C12.8402 38.0555 12.8835 38.0864 11.4392 38.2701L10.9667 38.3237C10.9213 38.3237 10.8697 38.3464 10.8697 38.3237C10.7583 38.2948 10.5953 38.0988 10.6634 38.0266C11.0489 37.7172 11.4557 37.4352 11.8807 37.1827C12.5224 37.259 13.29 37.3127 13.7645 37.3271C13.7435 37.6571 13.7001 37.9852 13.6346 38.3093L13.6325 38.3031ZM20.6045 37.1146C20.7963 37.1146 20.9882 37.1043 21.1719 37.094C21.4504 37.2652 22.3707 37.8326 22.5976 38.0658C22.6348 38.105 22.5976 38.1813 22.5646 38.2247C22.4326 38.4062 22.3315 38.3608 22.2943 38.3567C21.9436 38.3278 20.7819 38.1648 20.4373 38.1153C20.4254 38.1136 20.4131 38.1143 20.4015 38.1175C20.3898 38.1206 20.3789 38.1262 20.3694 38.1337C20.3599 38.1412 20.3521 38.1506 20.3464 38.1613C20.3407 38.172 20.3372 38.1837 20.3362 38.1958V38.2989C20.1049 38.3408 19.8693 38.354 19.6347 38.3381C19.5513 37.9363 19.5084 37.5271 19.5068 37.1167C19.5026 37.0568 19.4407 37.1414 20.6065 37.1208L20.6045 37.1146ZM19.6017 16.2998C18.5432 16.2998 13.5087 16.4257 12.6503 16.5226C12.6297 16.1719 12.3904 14.7296 12.3326 14.383C13.3284 14.2116 14.3147 13.9885 15.2873 13.7145C15.263 13.8548 15.2568 13.9976 15.2687 14.1395C15.5174 14.4398 15.7937 14.7161 16.094 14.9648C16.1096 14.9771 16.1281 14.9849 16.1477 14.9875C16.1674 14.99 16.1873 14.9872 16.2055 14.9793C16.5005 14.733 16.7535 14.4403 16.9544 14.1127C16.963 13.942 16.9513 13.7709 16.9194 13.603C17.493 13.8094 19.0487 14.1354 19.8286 14.123C19.7915 14.5501 19.6347 16.0811 19.6017 16.2998ZM21.7888 18.2042C22.317 14.5666 22.8102 13.3616 22.8205 13.0934C23.1474 12.9512 23.4518 12.7622 23.7242 12.5322C23.8313 12.4372 23.9319 12.3351 24.0254 12.2268C24.0605 12.1938 24.0131 12.1422 23.9801 12.1732C23.947 12.2041 23.8666 12.2474 23.8088 12.2846C23.1073 12.755 22.9463 12.9263 22.1231 13.2193C22.3029 13.0417 22.4392 12.8249 22.5213 12.5858C22.8824 11.3664 22.3851 10.1098 21.5949 9.1215C22.5372 8.5394 23.5396 8.06069 24.5846 7.69368C24.9968 7.55552 25.4189 7.44929 25.8474 7.37593C25.8628 7.46622 25.8913 7.55379 25.932 7.63591C26.2621 9.66415 25.6101 15.5673 25.2222 17.5275C24.9973 18.6664 24.5681 20.3274 24.075 21.39C24.0421 21.4688 24.0027 21.5447 23.9574 21.617C23.6974 21.7036 21.8734 21.551 21.5907 21.5241C21.3803 21.1424 21.729 18.6458 21.7929 18.2042H21.7888ZM30.5167 37.1868H28.9506C28.9506 37.1249 27.7869 28.8943 27.7539 28.7808C27.8859 27.9328 28.7855 23.3832 28.7546 22.2463C28.7546 22.237 28.7509 22.2281 28.7443 22.2215C28.7377 22.2149 28.7288 22.2112 28.7195 22.2112C28.7102 22.2112 28.7013 22.2149 28.6947 22.2215C28.6881 22.2281 28.6844 22.237 28.6844 22.2463C28.6844 22.366 28.6473 22.5971 28.5978 22.9045C27.8323 27.6832 27.2442 30.4356 25.9278 37.0465L24.3349 37.03C23.2909 30.4274 22.7792 27.2251 22.7524 21.7986C22.9711 21.8109 23.879 21.8687 24.0543 21.78C24.1162 21.749 24.1802 21.6108 24.2194 21.5303C24.5292 20.8232 24.7844 20.0934 24.9828 19.3473C26.3962 19.4257 30.0277 19.5949 30.6528 19.6279C30.919 20.8824 30.9376 20.9547 31.0119 20.9815C31.2478 21.0417 31.4889 21.0797 31.732 21.095C31.7485 25.2773 31.5298 33.1159 30.5208 37.1765L30.5167 37.1868ZM38.3573 5.69226C38.0725 6.35871 37.4659 9.69304 34.6887 11.6408C34.146 12.0205 33.1577 12.1566 32.4975 12.1752C32.4676 11.8507 32.4054 11.53 32.3118 11.2178C32.2705 11.0899 32.2086 10.9393 32.1714 10.8485C32.1676 10.841 32.1613 10.835 32.1535 10.8315C32.1458 10.8281 32.1371 10.8274 32.1289 10.8295C32.1207 10.8317 32.1135 10.8366 32.1085 10.8434C32.1035 10.8503 32.1009 10.8586 32.1013 10.8671C32.2148 11.7708 32.2333 11.451 32.3571 12.2681C32.3571 12.2681 32.6976 14.5728 32.71 14.6863C32.8688 16.1306 32.97 20.3687 32.809 20.9567C32.2393 20.9701 31.6697 20.9258 31.1088 20.8247C30.8881 20.0881 28.7278 9.38767 28.6803 7.5802C29.2271 7.67924 31.3358 8.43854 33.102 8.49425C34.6784 8.5417 37.0491 5.19293 37.0698 5.19293C37.2328 5.16405 38.1324 5.54576 38.3594 5.68194L38.3573 5.69226ZM39.0485 4.18809C39.032 4.45426 38.7225 4.63377 38.4935 4.77408C38.413 4.82566 38.2314 5.43847 38.2087 5.52513C37.9235 5.3919 37.6307 5.27547 37.3318 5.17643C37.5381 4.8628 37.7177 4.69773 37.6393 4.62346C37.4969 4.49347 37.2266 4.31808 37.3669 4.17159C37.3842 4.17536 37.4009 4.18161 37.4164 4.19016C37.6124 4.28301 37.7692 4.53473 37.8538 4.37998C37.8916 4.19815 37.9434 4.01949 38.0086 3.84558C38.1179 3.59179 38.186 3.63925 38.1592 3.88685C38.1358 4.05608 38.0936 4.22218 38.0333 4.38205C38.0262 4.40448 38.0283 4.42883 38.0392 4.44972C38.05 4.47062 38.0687 4.48635 38.0911 4.49347C38.1136 4.50058 38.1379 4.49849 38.1588 4.48766C38.1797 4.47682 38.1954 4.45813 38.2025 4.43569C38.2541 4.25312 38.3312 4.07875 38.4316 3.9178C38.5327 3.76924 38.6544 3.7321 38.6503 3.8332C38.6182 4.01445 38.5479 4.18678 38.4439 4.33872C38.4174 4.37578 38.401 4.41919 38.3965 4.46458C38.3931 4.48385 38.3966 4.50369 38.4062 4.52071C38.4159 4.53773 38.4311 4.55089 38.4493 4.55794C38.4676 4.565 38.4877 4.56551 38.5063 4.5594C38.5249 4.55329 38.5407 4.54092 38.5512 4.52442C38.6133 4.43778 38.6823 4.35635 38.7576 4.28094C38.8793 4.16127 39.0568 4.07874 39.0506 4.17778L39.0485 4.18809Z" fill="url(#paint1_linear_276_623)"/>
<path d="M15.8109 4.34901C15.8955 4.5409 16.3577 4.42122 16.2669 4.32425C16.2603 4.3177 16.2514 4.31402 16.2421 4.31402C16.2329 4.31402 16.224 4.3177 16.2174 4.32425C16.1899 4.33309 16.1603 4.33309 16.1328 4.32425C16.0765 4.31617 16.0216 4.3002 15.9698 4.27679V3.50098C15.9678 3.49287 15.9632 3.48566 15.9567 3.4805C15.9501 3.47534 15.942 3.47253 15.9337 3.47253C15.9253 3.47253 15.9172 3.47534 15.9107 3.4805C15.9041 3.48566 15.8995 3.49287 15.8976 3.50098C15.8235 3.72636 15.792 3.96355 15.8047 4.20045C15.7995 4.25 15.8016 4.30005 15.8109 4.34901ZM15.2125 3.8373C15.2125 3.78159 15.2125 3.72176 15.2002 3.67017C15.1961 3.64716 15.1833 3.6266 15.1645 3.61276C15.1457 3.59893 15.1222 3.59288 15.0991 3.59589C15.0873 3.59764 15.0761 3.60172 15.066 3.60789C15.0559 3.61406 15.0471 3.62219 15.0402 3.6318C15.0332 3.64142 15.0283 3.65233 15.0257 3.66388C15.023 3.67543 15.0227 3.68739 15.0248 3.69906C15.0248 3.7362 15.0248 3.77953 15.0351 3.84968C15.0359 3.86133 15.039 3.87271 15.0442 3.88316C15.0494 3.89362 15.0567 3.90294 15.0655 3.91061C15.0743 3.91827 15.0845 3.92412 15.0956 3.92783C15.1067 3.93154 15.1184 3.93303 15.13 3.93222C15.1417 3.9314 15.153 3.9283 15.1635 3.92309C15.174 3.91788 15.1833 3.91067 15.1909 3.90185C15.1986 3.89304 15.2045 3.8828 15.2082 3.87173C15.2119 3.86065 15.2134 3.84895 15.2125 3.8373ZM16.6053 3.82286C16.6053 3.84639 16.6146 3.86896 16.6313 3.8856C16.6479 3.90224 16.6705 3.91158 16.694 3.91158C16.7175 3.91158 16.7401 3.90224 16.7568 3.8856C16.7734 3.86896 16.7827 3.84639 16.7827 3.82286V3.73001C16.7945 3.71326 16.8003 3.69301 16.7992 3.67254C16.798 3.65208 16.79 3.63261 16.7763 3.61731C16.7627 3.602 16.7443 3.59176 16.7241 3.58825C16.7039 3.58473 16.6831 3.58816 16.6651 3.59796C16.5847 3.64954 16.6053 3.75271 16.6053 3.82286ZM16.1885 5.09799C16.1143 5.1393 16.0362 5.17317 15.9553 5.1991C15.91 5.1991 15.8996 5.26306 15.9553 5.26925C16.0078 5.29558 16.0659 5.30835 16.1245 5.30639C16.1844 5.29931 16.2419 5.27873 16.2926 5.24621C16.3434 5.21368 16.3861 5.17006 16.4175 5.11863C16.443 5.06389 16.4537 5.00341 16.4485 4.94324C16.4497 4.93424 16.4474 4.92512 16.4422 4.91771C16.4369 4.91031 16.429 4.90517 16.4201 4.90334C16.4112 4.90151 16.402 4.90312 16.3942 4.90784C16.3865 4.91257 16.3808 4.92006 16.3783 4.9288C16.322 4.99254 16.2583 5.04934 16.1885 5.09799ZM27.706 5.2383C27.8628 5.28782 28.1186 5.32083 28.228 5.19703C28.3373 5.07323 28.2775 4.75135 28.2651 4.61518C28.2394 4.34776 28.1812 4.08447 28.0918 3.83111C28.0894 3.82237 28.0837 3.81488 28.0759 3.81015C28.0682 3.80543 28.0589 3.80382 28.05 3.80565C28.0411 3.80749 28.0332 3.81262 28.028 3.82002C28.0227 3.82743 28.0205 3.83655 28.0217 3.84556C28.0217 3.90952 28.0505 4.22521 28.0567 4.30568C28.0962 4.56851 28.11 4.83455 28.098 5.10006C28.0517 5.13136 27.9987 5.15117 27.9432 5.15783C27.7369 5.19291 27.6895 5.14339 27.6791 5.19703C27.6779 5.20152 27.6777 5.20621 27.6784 5.21079C27.6791 5.21538 27.6808 5.21977 27.6833 5.22366C27.6859 5.22756 27.6892 5.23088 27.6931 5.2334C27.697 5.23592 27.7014 5.23759 27.706 5.2383ZM27.3573 3.87857C27.3573 3.81254 27.1674 3.77953 27.0436 3.80635C26.9198 3.83318 26.7506 3.96317 26.7981 4.01269C26.8456 4.06221 27.349 3.93841 27.3573 3.87857ZM27.2211 4.3717V4.54915C27.2211 4.57268 27.2304 4.59525 27.2471 4.61189C27.2637 4.62852 27.2863 4.63787 27.3098 4.63787C27.3333 4.63787 27.3559 4.62852 27.3725 4.61189C27.3892 4.59525 27.3985 4.57268 27.3985 4.54915V4.37789C27.3991 4.35416 27.3903 4.33115 27.3741 4.31379C27.3579 4.29644 27.3356 4.28612 27.3119 4.28504C27.2885 4.28502 27.266 4.29402 27.2491 4.31016C27.2322 4.3263 27.2221 4.34835 27.2211 4.3717ZM28.9811 3.96317C28.9976 3.93841 28.9316 3.80635 28.7748 3.75683C28.618 3.70731 28.4983 3.78572 28.4983 3.82286C28.4983 3.86 28.9502 4.00856 28.9811 3.96317ZM27.1324 5.67985C27.0849 5.69429 27.0849 5.99141 27.3676 6.07601C27.512 6.11727 27.708 6.09458 27.7122 6.04299C27.7163 5.99141 27.4315 5.92951 27.3387 5.86555C27.2458 5.80159 27.1716 5.66747 27.1324 5.67985ZM28.6984 4.24997C28.6868 4.24969 28.6752 4.25172 28.6643 4.25592C28.6534 4.26013 28.6435 4.26644 28.6351 4.27449C28.6266 4.28254 28.6199 4.29217 28.6152 4.30283C28.6105 4.31349 28.6079 4.32497 28.6076 4.33663V4.51201C28.6109 4.53348 28.6218 4.55306 28.6382 4.56721C28.6547 4.58137 28.6757 4.58915 28.6974 4.58915C28.7191 4.58915 28.7401 4.58137 28.7566 4.56721C28.773 4.55306 28.7839 4.53348 28.7871 4.51201V4.34075C28.7874 4.32893 28.7853 4.31717 28.781 4.30617C28.7767 4.29516 28.7702 4.28514 28.7619 4.27668C28.7536 4.26822 28.7438 4.2615 28.7329 4.25691C28.722 4.25233 28.7102 4.24996 28.6984 4.24997Z" fill="url(#paint2_linear_276_623)"/>
<defs>
<linearGradient id="paint0_linear_276_623" x1="7.03964" y1="3.17615" x2="7.15608" y2="9.52868" gradientUnits="userSpaceOnUse">
<stop stop-color="#FD98FF"/>
<stop offset="0.639405" stop-color="#68066A"/>
</linearGradient>
<linearGradient id="paint1_linear_276_623" x1="21.5644" y1="-6.08025" x2="23.7115" y2="62.3495" gradientUnits="userSpaceOnUse">
<stop stop-color="#FD98FF"/>
<stop offset="0.639405" stop-color="#68066A"/>
</linearGradient>
<linearGradient id="paint2_linear_276_623" x1="22.7015" y1="3.05937" x2="22.7294" y2="7.71371" gradientUnits="userSpaceOnUse">
<stop stop-color="#FD98FF"/>
<stop offset="0.639405" stop-color="#68066A"/>
</linearGradient>
</defs>
</svg>
