<svg width="39" height="40" viewBox="0 0 39 40" fill="none" xmlns="http://www.w3.org/2000/svg">
<path fill-rule="evenodd" clip-rule="evenodd" d="M31.9541 4.4886C26.8777 4.5706 5.96237 4.6152 0.730908 4.547C0.420273 4.543 0.396678 4 0.718233 4C6.11096 4.0068 24.7532 3.9014 31.944 4.06C32.2901 4.0672 32.1961 4.4846 31.9541 4.4886Z" fill="url(#paint0_linear_276_954)"/>
<path fill-rule="evenodd" clip-rule="evenodd" d="M25.7247 20.083C25.3745 20.2381 25.0023 20.3348 24.6224 20.3696C24.6588 20.8276 24.654 21.2881 24.6079 21.7452C24.6029 21.7699 24.5896 21.7919 24.5702 21.8075C24.5509 21.823 24.5268 21.831 24.5022 21.8301C24.4777 21.8292 24.4542 21.8194 24.436 21.8025C24.4178 21.7856 24.4061 21.7626 24.4028 21.7376C24.3663 21.425 24.4516 21.0864 24.3901 20.385C23.934 20.3976 23.7203 20.2526 23.3196 20.1968C22.3231 20.0572 21.3653 19.7087 20.5059 19.1728C20.4804 19.1527 20.4636 19.1232 20.4592 19.0905C20.4547 19.0578 20.4631 19.0246 20.4823 18.9982C21.3641 17.8938 22.0421 16.6338 22.4832 15.28C22.5353 15.127 22.7079 14.9214 22.7086 15.1848C22.7108 15.86 22.634 16.5348 22.634 17.211C22.634 18.4382 22.6657 19.751 23.8314 20.0594C24.5463 20.248 25.2117 20.0088 25.6541 19.8876C25.7592 19.8578 25.8372 20.0272 25.7247 20.083Z" fill="url(#paint1_linear_276_954)"/>
<path fill-rule="evenodd" clip-rule="evenodd" d="M24.0379 17.4572C23.9357 17.6602 24.284 17.6362 24.4928 17.6464C24.5192 17.6487 24.5439 17.6604 24.5626 17.6796C24.5814 17.6988 24.5928 17.7241 24.5951 17.7512C24.5973 17.7782 24.5901 17.8052 24.5748 17.8273C24.5594 17.8494 24.537 17.8653 24.5113 17.872C24.3732 17.8911 24.2329 17.8829 24.0978 17.848C23.8563 17.7966 23.6721 17.7054 23.8035 17.428C23.8885 17.2408 23.985 17.0593 24.0925 16.8846C24.1057 16.8635 24.1259 16.848 24.1494 16.841C24.1729 16.834 24.1981 16.8361 24.2203 16.8467C24.2424 16.8574 24.2601 16.876 24.2698 16.899C24.2796 16.922 24.2809 16.9479 24.2734 16.9718C24.207 17.1395 24.1283 17.3018 24.0379 17.4572Z" fill="url(#paint2_linear_276_954)"/>
<path fill-rule="evenodd" clip-rule="evenodd" d="M25.3604 16.6754C25.3627 16.8038 25.3721 16.9984 25.1876 17.0034C25.039 17.0076 24.9973 16.8728 24.9981 16.6926C24.9988 16.368 25.3528 16.2776 25.3604 16.6754Z" fill="url(#paint3_linear_276_954)"/>
<path fill-rule="evenodd" clip-rule="evenodd" d="M23.6205 16.6671C23.6174 16.7899 23.5665 16.9058 23.4283 16.9C23.3128 16.8952 23.2713 16.7352 23.2746 16.6298C23.2795 16.4742 23.3272 16.3947 23.4232 16.3731C23.5704 16.3399 23.6246 16.5131 23.6205 16.6671Z" fill="url(#paint4_linear_276_954)"/>
<path fill-rule="evenodd" clip-rule="evenodd" d="M23.4875 15.7512C23.4103 15.742 23.3321 15.7552 23.2617 15.7892C23.1913 15.8232 23.1316 15.8767 23.0893 15.9436C22.9825 16.1056 22.8682 15.9726 22.9088 15.8766C22.9608 15.7599 23.048 15.6634 23.1575 15.6012C23.267 15.5391 23.3931 15.5146 23.5172 15.5314C23.5449 15.5362 23.5697 15.5519 23.5863 15.5752C23.6029 15.5985 23.6101 15.6275 23.6062 15.656C23.6024 15.6846 23.5878 15.7105 23.5657 15.7283C23.5435 15.746 23.5155 15.7543 23.4875 15.7512Z" fill="url(#paint5_linear_276_954)"/>
<path fill-rule="evenodd" clip-rule="evenodd" d="M25.0756 15.7236C25.0512 15.7234 25.0277 15.7144 25.0093 15.6981C24.9908 15.6818 24.9786 15.6593 24.9749 15.6346C24.9711 15.6099 24.976 15.5847 24.9888 15.5634C25.0015 15.5421 25.0212 15.5262 25.0444 15.5184C25.1932 15.4857 25.3485 15.5093 25.4817 15.5849C25.6149 15.6604 25.7169 15.7829 25.769 15.9296C25.8012 16.0442 25.652 16.1382 25.5954 16.0096C25.5506 15.9107 25.4757 15.8293 25.3819 15.7778C25.2882 15.7262 25.1807 15.7072 25.0756 15.7236Z" fill="url(#paint6_linear_276_954)"/>
<path fill-rule="evenodd" clip-rule="evenodd" d="M24.1465 18.533C24.2303 18.7267 24.3791 18.8831 24.5658 18.9738C24.7525 19.0645 24.9648 19.0834 25.164 19.0272C25.3694 18.9592 25.5421 18.8138 25.647 18.6203C25.752 18.4269 25.7815 18.1997 25.7295 17.9848C25.7057 17.8848 25.6183 17.85 25.5134 17.9348C25.0745 18.2896 24.7496 18.345 24.2309 18.3538C24.1467 18.3552 24.0973 18.4326 24.1465 18.533Z" fill="url(#paint7_linear_276_954)"/>
<path fill-rule="evenodd" clip-rule="evenodd" d="M9.96169 22.3847C10.0081 22.4749 9.87822 22.5717 9.80568 22.5047C9.38585 22.1149 8.61716 21.5647 8.40032 21.0447C8.10782 20.3447 8.26752 19.4681 7.68876 18.9017C7.6679 18.8834 7.65471 18.8576 7.65192 18.8296C7.64913 18.8016 7.65696 18.7735 7.67379 18.7513C7.69062 18.729 7.71515 18.7143 7.7423 18.7101C7.76945 18.7059 7.79714 18.7126 7.81961 18.7287C8.45921 19.1901 8.33792 20.0935 8.63412 20.7487C8.93442 21.4121 9.63253 21.7465 9.96169 22.3847Z" fill="url(#paint8_linear_276_954)"/>
<path fill-rule="evenodd" clip-rule="evenodd" d="M5.68483 21.3632C5.0882 21.2419 4.53014 20.9709 4.06048 20.5744C3.90975 20.4382 4.09032 20.3284 4.2003 20.4046C4.66739 20.7431 5.20195 20.9709 5.76537 21.0716C6.31528 21.1551 6.87513 21.1403 7.42014 21.028C7.55449 21.0096 7.55157 21.2112 7.45914 21.268C7.03872 21.527 6.15673 21.4698 5.68483 21.3632Z" fill="url(#paint9_linear_276_954)"/>
<path fill-rule="evenodd" clip-rule="evenodd" d="M3.20518 21.0513C3.12172 20.9575 3.26212 20.8329 3.35377 20.9009C3.97959 21.3934 4.69813 21.7475 5.46406 21.9409C6.06232 22.0809 5.89638 22.3681 5.35935 22.2545C4.53651 22.0937 3.7833 21.673 3.20518 21.0513Z" fill="url(#paint10_linear_276_954)"/>
<path fill-rule="evenodd" clip-rule="evenodd" d="M5.52902 23.243C4.81825 23.2008 3.83389 22.8648 3.30037 22.3852C3.2816 22.3677 3.26957 22.3438 3.26644 22.318C3.26331 22.2921 3.26928 22.266 3.28328 22.2443C3.29728 22.2226 3.31839 22.2067 3.3428 22.1995C3.3672 22.1924 3.39331 22.1944 3.41639 22.2052C4.2274 22.6128 4.65991 22.8198 5.56627 22.9352C6.09238 23.0024 6.07697 23.2756 5.52902 23.243Z" fill="url(#paint11_linear_276_954)"/>
<path fill-rule="evenodd" clip-rule="evenodd" d="M8.67109 24.1762C8.81403 24.2762 8.65159 24.5224 8.50593 24.434C7.73724 23.9698 6.86188 24.254 6.02689 24.2526C5.21273 24.2667 4.41515 24.0158 3.74871 23.536C3.65257 23.4622 3.75846 23.3146 3.86005 23.3624C4.6231 23.7576 5.47064 23.9501 6.32505 23.9224C7.11421 23.8734 7.96948 23.6862 8.67109 24.1762Z" fill="url(#paint12_linear_276_954)"/>
<path fill-rule="evenodd" clip-rule="evenodd" d="M38.2534 36.0018C30.4486 36.0992 8.22618 35.8986 3.47949 35.8418C3.17373 35.8382 2.93115 35.4842 3.47071 35.4818C9.57421 35.4496 29.1641 35.4572 38.2421 35.543C38.5996 35.5454 38.6005 35.9974 38.2534 36.0018Z" fill="url(#paint13_linear_276_954)"/>
<path fill-rule="evenodd" clip-rule="evenodd" d="M23.2147 21.5314C21.4987 21.8114 18.2118 23.6932 16.4219 26.121C18.1184 25.8576 23.1221 25.8126 24.56 25.9856C24.019 25.3098 23.4199 24.6853 22.7699 24.1196C23.0195 23.8262 23.2543 23.598 23.4596 23.3972C23.0488 23.1372 22.3733 22.7224 22.0751 22.5796C22.4129 22.1848 22.7954 21.8329 23.2147 21.5314Z" fill="url(#paint14_linear_276_954)"/>
<path fill-rule="evenodd" clip-rule="evenodd" d="M26.9669 23.4874C27.1869 23.7123 27.3745 23.9682 27.5242 24.2474C26.9226 24.601 25.7559 25.2632 25.0518 26.0306C25.7241 26.121 26.1633 26.4556 26.3973 27.4706C26.4979 27.906 26.6367 28.6046 26.7744 29.3888C28.0483 29.1033 29.3434 28.9276 30.6459 28.8638C30.4174 28.2636 30.1119 27.6973 29.7374 27.1798C29.6571 27.0708 29.8061 26.9324 29.8948 27.0382C30.347 27.5706 30.697 28.186 30.9261 28.8518C31.5096 28.8165 32.0948 28.825 32.677 28.8772C32.8096 28.8926 32.8112 29.096 32.6739 29.0926C30.7076 29.0269 28.741 29.217 26.8212 29.6582C27.0172 30.8046 27.2016 32.0856 27.2595 32.9826C30.282 32.9524 35.1855 34.4842 35.9454 32.6364C37.6474 28.4982 32.4783 21.9668 28.8004 21.395C29.1109 21.8357 29.3283 22.338 29.4387 22.8698C29.0358 23.0132 27.4953 23.3894 26.9669 23.4874Z" fill="url(#paint15_linear_276_954)"/>
<path fill-rule="evenodd" clip-rule="evenodd" d="M24.704 24.6614C24.0859 23.0792 24.1027 22.237 23.9264 21.4614C23.9223 21.4346 23.9084 21.4105 23.8875 21.394C23.8666 21.3774 23.8403 21.3698 23.814 21.3726C23.7877 21.3754 23.7635 21.3884 23.7464 21.409C23.7292 21.4296 23.7204 21.4562 23.7218 21.4832C23.7156 22.4194 24.1807 23.9788 24.5584 24.8754C24.5703 24.8971 24.5871 24.9156 24.6074 24.9294C24.6276 24.9432 24.6507 24.952 24.6749 24.9549C24.699 24.9578 24.7235 24.9548 24.7463 24.9462C24.7691 24.9376 24.7897 24.9237 24.8062 24.9054C26.0295 23.1632 26.6406 22.5338 28.0432 21.4164C28.065 21.4006 28.08 21.3767 28.085 21.3497C28.09 21.3228 28.0847 21.2949 28.0701 21.2719C28.0554 21.249 28.0327 21.2327 28.0067 21.2266C27.9806 21.2204 27.9532 21.2249 27.9303 21.239C26.6286 22.13 25.5284 23.2971 24.704 24.6614Z" fill="url(#paint16_linear_276_954)"/>
<path fill-rule="evenodd" clip-rule="evenodd" d="M14.7592 26.3016C13.5561 25.5492 11.5166 23.6982 10.6804 22.5272C9.84011 23.4063 9.09257 24.3739 8.4502 25.4138C9.97237 27.7162 12.383 30.2 13.8936 30.9216C13.7181 30.154 13.6735 28.0322 13.7181 27.355C13.7628 26.6778 14.2604 26.407 14.7592 26.3016Z" fill="url(#paint17_linear_276_954)"/>
<path fill-rule="evenodd" clip-rule="evenodd" d="M7.86453 26.2666C8.23776 26.2506 8.04588 25.9822 7.88676 25.979C5.76126 25.9362 3.48327 25.883 1.88076 25.9086C2.00459 16.4112 1.93049 10.4186 1.98119 5.06722C1.98255 4.92542 1.77527 4.94722 1.76903 5.08222C1.56662 9.43282 1.69103 21.1488 1.53503 25.8762C1.52957 26.0382 1.54049 26.1416 1.88213 26.1572C2.83899 26.2012 3.77148 26.203 4.73381 26.22C5.61813 26.2358 7.00751 26.3034 7.86453 26.2666Z" fill="url(#paint18_linear_276_954)"/>
<path fill-rule="evenodd" clip-rule="evenodd" d="M31.1511 16.84C31.2449 14.89 31.2157 12.9142 31.2243 10.96C31.2293 9.80483 31.2804 6.70323 31.2678 5.18103C31.2656 4.91743 31.0006 5.06763 30.9979 5.20103C30.9466 7.78563 30.8138 14.2392 30.9101 16.8428C30.9183 17.062 31.1416 17.0588 31.1511 16.84Z" fill="url(#paint19_linear_276_954)"/>
<path fill-rule="evenodd" clip-rule="evenodd" d="M4.96216 10.8799C4.96216 10.2459 4.96743 9.61235 4.96216 8.97835C7.74637 8.96195 10.5323 8.94575 13.3162 8.89415C13.3185 9.44895 13.3162 10.0037 13.3162 10.5585C10.6569 10.6283 7.93767 10.7311 5.27046 10.7801C5.09866 10.7833 5.12655 11.0465 5.29269 11.0487C7.98583 11.0821 10.7617 10.9059 13.4632 10.8341C13.4989 10.8303 13.5318 10.8125 13.555 10.7843C13.5782 10.7562 13.5899 10.7199 13.5876 10.6831C13.5876 10.0353 13.5855 9.38735 13.5897 8.73955C13.5859 8.7026 13.5683 8.6686 13.5406 8.64467C13.5129 8.62073 13.4773 8.60872 13.4412 8.61115C10.5647 8.61295 7.68631 8.65315 4.80987 8.69255C4.77309 8.69645 4.73921 8.71482 4.71536 8.7438C4.69151 8.77277 4.67953 8.8101 4.68195 8.84795C4.69794 9.53195 4.73187 10.2143 4.75488 10.8979C4.75819 11.0369 4.96197 11.0173 4.96216 10.8799Z" fill="url(#paint20_linear_276_954)"/>
<path fill-rule="evenodd" clip-rule="evenodd" d="M4.79993 15.4513C7.70777 15.3349 10.7016 15.3213 13.5917 15.1171C13.6129 15.1176 13.6339 15.1133 13.6532 15.1044C13.6725 15.0956 13.6897 15.0824 13.7034 15.0659C13.7171 15.0494 13.7271 15.03 13.7326 15.009C13.7381 14.9881 13.739 14.9661 13.7352 14.9447C13.6841 14.5219 13.6328 14.0991 13.5792 13.6767C13.5568 13.5013 13.3002 13.5613 13.3189 13.7335C13.3579 14.1005 13.4012 14.4673 13.4437 14.8335C10.6205 14.9557 7.77232 15.0383 4.9612 15.1307C4.9612 14.5573 4.95827 13.9831 4.97407 13.4107C7.81619 13.3805 10.6096 13.3333 13.4829 13.3573C13.5106 13.3578 13.5374 13.3472 13.5577 13.3278C13.5779 13.3084 13.59 13.2817 13.5914 13.2533C13.5928 13.2249 13.5834 13.197 13.5651 13.1756C13.5469 13.1542 13.5212 13.1409 13.4936 13.1385C10.6092 13.0023 7.71265 13.0623 4.81612 13.0683C4.79367 13.0671 4.7712 13.0704 4.75001 13.0781C4.72882 13.0858 4.70932 13.0978 4.69265 13.1132C4.67597 13.1287 4.66245 13.1474 4.65285 13.1683C4.64325 13.1891 4.63777 13.2117 4.63672 13.2347C4.6607 13.9173 4.65173 14.6023 4.65407 15.2857C4.65257 15.3274 4.66697 15.368 4.69421 15.3989C4.72145 15.4299 4.75938 15.4487 4.79993 15.4513Z" fill="url(#paint21_linear_276_954)"/>
<path fill-rule="evenodd" clip-rule="evenodd" d="M13.3523 19.4566C11.9561 19.4756 10.1799 19.4472 8.74761 19.5166C8.62768 19.5224 8.63314 19.7732 8.75073 19.7752C10.0403 19.7978 11.9918 19.7324 13.4826 19.7646C13.6474 19.7682 13.655 19.6046 13.6357 19.483C13.5394 18.8861 13.5342 18.2775 13.6203 17.679C13.6242 17.6574 13.6234 17.6352 13.6179 17.614C13.6124 17.5928 13.6024 17.5731 13.5885 17.5564C13.5746 17.5396 13.5572 17.5263 13.5376 17.5174C13.5181 17.5085 13.4968 17.5042 13.4754 17.5048C10.6385 17.5736 7.80088 17.6812 4.96422 17.7278C4.92608 17.7305 4.89044 17.7482 4.86477 17.7773C4.8391 17.8063 4.8254 17.8444 4.82655 17.8836C4.82148 18.5132 4.82265 19.1436 4.81836 19.7724C4.82102 19.8138 4.83927 19.8526 4.86925 19.8804C4.89923 19.9083 4.93859 19.9232 4.97904 19.9218C5.79804 19.891 6.4429 19.8956 7.2621 19.8438C7.3986 19.8352 7.38709 19.5826 7.25176 19.5822C6.54242 19.5805 5.83308 19.5881 5.12392 19.605C5.121 19.0768 5.12041 18.5486 5.1169 18.0204C7.85119 17.9204 10.5876 17.8764 13.3225 17.798C13.2585 18.3497 13.2686 18.9077 13.3523 19.4566Z" fill="url(#paint22_linear_276_954)"/>
<path fill-rule="evenodd" clip-rule="evenodd" d="M19.9811 21.3213C20.1102 21.3527 20.1453 21.1401 20.0201 21.1025C18.6545 20.6563 17.5092 19.6875 16.8221 18.3975C15.2365 15.4931 16.2176 11.6869 18.7935 9.75615C21.075 8.04595 25.9761 8.08075 27.5564 10.8761C27.652 11.0451 27.9002 10.9527 27.8207 10.7729C26.5851 7.97995 21.5705 7.57995 19.1114 9.11995C16.2158 10.9339 14.8728 14.8571 16.3073 18.0725C17.0288 19.6901 18.3688 20.9297 19.9811 21.3213Z" fill="url(#paint23_linear_276_954)"/>
<path fill-rule="evenodd" clip-rule="evenodd" d="M31.1283 21.9068C31.1779 21.4756 31.1338 20.3268 31.1356 19.6546C31.1356 19.4134 30.9148 19.502 30.9068 19.603C30.8599 20.3703 30.858 21.1397 30.901 21.9072C30.9098 22.0218 31.1155 22.02 31.1283 21.9068Z" fill="url(#paint24_linear_276_954)"/>
<path fill-rule="evenodd" clip-rule="evenodd" d="M31.8279 33.7356C30.6639 33.5956 28.2502 33.4423 26.6828 33.4157C26.6828 32.4927 25.8221 27.2157 25.2743 26.7743C24.7498 26.3515 14.7986 26.2727 14.3877 27.0743C13.8475 28.1295 14.7402 34.6666 15.2332 34.8392C16.0352 35.1192 31.2796 35.0726 31.9447 35.0192C32.2924 34.9922 32.3419 33.797 31.8279 33.7356ZM17.4595 27.4039C16.8815 27.4658 16.3285 27.5479 15.7521 27.6344C15.2531 27.7095 15.2178 27.8167 15.1636 28.3079C15.0949 28.8911 15.0619 29.4782 15.0649 30.0657C15.0649 30.1907 14.8877 30.2235 14.8715 30.0919C14.7969 29.4177 14.8018 28.7368 14.8863 28.0639C14.9421 27.6223 15.1008 27.4239 15.5298 27.3341C16.1641 27.2026 16.8116 27.1505 17.4582 27.1789C17.4844 27.1828 17.5084 27.1962 17.5258 27.2168C17.5433 27.2373 17.5529 27.2635 17.5531 27.2907C17.5533 27.318 17.5439 27.3443 17.5267 27.3651C17.5096 27.3858 17.4857 27.3996 17.4595 27.4039ZM20.0074 31.8697C19.595 31.9497 19.1482 31.7209 18.9874 31.0757C18.8475 30.5157 19.1043 30.093 19.5579 29.974C20.6441 29.6892 21.0409 31.6671 20.0074 31.8697Z" fill="url(#paint25_linear_276_954)"/>
<path fill-rule="evenodd" clip-rule="evenodd" d="M31.2817 18.5172C29.4272 16.6326 30.5327 13.9904 29.3467 12.7118C29.1224 12.4639 28.8195 12.3056 28.4921 12.2653C28.1646 12.225 27.8338 12.3053 27.5587 12.4918C26.6451 10.968 24.7817 10.5992 23.1952 11.1062C21.4661 11.6588 20.8466 13.8238 22.2346 14.5206C22.962 14.8858 25.5155 14.9168 26.3138 14.7582C26.3777 15.4362 26.625 16.0824 27.0277 16.624C27.0691 16.675 27.1268 16.7456 27.1954 16.684C27.2697 16.6154 27.357 16.5634 27.4518 16.5312C27.5467 16.499 27.647 16.4874 27.7465 16.4971C27.846 16.5067 27.9424 16.5375 28.0297 16.5873C28.1169 16.6372 28.1932 16.7052 28.2535 16.7868C28.309 16.8709 28.3477 16.9655 28.3675 17.065C28.3873 17.1645 28.3877 17.267 28.3687 17.3667C28.3497 17.4663 28.3118 17.5612 28.2569 17.6457C28.2021 17.7303 28.1316 17.8029 28.0493 17.8594C27.8108 18.0212 27.6408 17.9976 27.3737 17.9838C27.29 17.9796 27.2744 18.0514 27.2688 18.117C27.1863 19.0698 27.0948 20.157 27.2366 21.1046C27.2402 21.1309 27.2537 21.1548 27.2742 21.171C27.2947 21.1872 27.3206 21.1946 27.3463 21.1916C27.3721 21.1886 27.3957 21.1754 27.412 21.1548C27.4284 21.1342 27.4364 21.1079 27.4341 21.0814C27.4361 20.8246 27.4267 20.5678 27.4185 20.3108C28.724 20.4606 30.3771 19.6774 31.2856 18.782C31.4295 18.6418 31.3265 18.5628 31.2817 18.5172ZM24.2578 11.998C23.9394 11.9922 23.6245 12.0655 23.3399 12.2118C23.0238 12.3674 22.4872 12.7542 22.5232 13.1598C22.534 13.2814 22.3635 13.3558 22.3193 13.2304C22.1057 12.626 22.7001 12.1538 23.0963 11.932C23.4493 11.7345 23.8447 11.6304 24.2468 11.629C24.7612 11.6296 24.5489 12.0106 24.2578 11.998Z" fill="url(#paint26_linear_276_954)"/>
<defs>
<linearGradient id="paint0_linear_276_954" x1="17.9132" y1="3.87614" x2="17.9138" y2="4.95515" gradientUnits="userSpaceOnUse">
<stop stop-color="#FD98FF"/>
<stop offset="0.639405" stop-color="#68066A"/>
</linearGradient>
<linearGradient id="paint1_linear_276_954" x1="23.385" y1="13.9923" x2="23.8709" y2="25.9811" gradientUnits="userSpaceOnUse">
<stop stop-color="#FD98FF"/>
<stop offset="0.639405" stop-color="#68066A"/>
</linearGradient>
<linearGradient id="paint2_linear_276_954" x1="24.2194" y1="16.6724" x2="24.2931" y2="18.5228" gradientUnits="userSpaceOnUse">
<stop stop-color="#FD98FF"/>
<stop offset="0.639405" stop-color="#68066A"/>
</linearGradient>
<linearGradient id="paint3_linear_276_954" x1="25.1978" y1="16.3185" x2="25.2521" y2="17.3652" gradientUnits="userSpaceOnUse">
<stop stop-color="#FD98FF"/>
<stop offset="0.639405" stop-color="#68066A"/>
</linearGradient>
<linearGradient id="paint4_linear_276_954" x1="23.4649" y1="16.2854" x2="23.5108" y2="17.225" gradientUnits="userSpaceOnUse">
<stop stop-color="#FD98FF"/>
<stop offset="0.639405" stop-color="#68066A"/>
</linearGradient>
<linearGradient id="paint5_linear_276_954" x1="23.2892" y1="15.4486" x2="23.3086" y2="16.323" gradientUnits="userSpaceOnUse">
<stop stop-color="#FD98FF"/>
<stop offset="0.639405" stop-color="#68066A"/>
</linearGradient>
<linearGradient id="paint6_linear_276_954" x1="25.4135" y1="15.4147" x2="25.4363" y2="16.4205" gradientUnits="userSpaceOnUse">
<stop stop-color="#FD98FF"/>
<stop offset="0.639405" stop-color="#68066A"/>
</linearGradient>
<linearGradient id="paint7_linear_276_954" x1="25.0221" y1="17.7025" x2="25.0698" y2="19.7796" gradientUnits="userSpaceOnUse">
<stop stop-color="#FD98FF"/>
<stop offset="0.639405" stop-color="#68066A"/>
</linearGradient>
<linearGradient id="paint8_linear_276_954" x1="8.92742" y1="18.1078" x2="9.28132" y2="24.86" gradientUnits="userSpaceOnUse">
<stop stop-color="#FD98FF"/>
<stop offset="0.639405" stop-color="#68066A"/>
</linearGradient>
<linearGradient id="paint9_linear_276_954" x1="5.94019" y1="20.2107" x2="5.95867" y2="22.1141" gradientUnits="userSpaceOnUse">
<stop stop-color="#FD98FF"/>
<stop offset="0.639405" stop-color="#68066A"/>
</linearGradient>
<linearGradient id="paint10_linear_276_954" x1="4.64473" y1="20.6612" x2="4.68622" y2="23.1415" gradientUnits="userSpaceOnUse">
<stop stop-color="#FD98FF"/>
<stop offset="0.639405" stop-color="#68066A"/>
</linearGradient>
<linearGradient id="paint11_linear_276_954" x1="4.74239" y1="22.03" x2="4.7656" y2="23.8923" gradientUnits="userSpaceOnUse">
<stop stop-color="#FD98FF"/>
<stop offset="0.639405" stop-color="#68066A"/>
</linearGradient>
<linearGradient id="paint12_linear_276_954" x1="6.46946" y1="23.1799" x2="6.48308" y2="25.13" gradientUnits="userSpaceOnUse">
<stop stop-color="#FD98FF"/>
<stop offset="0.639405" stop-color="#68066A"/>
</linearGradient>
<linearGradient id="paint13_linear_276_954" x1="22.5997" y1="35.3755" x2="22.6002" y2="36.3753" gradientUnits="userSpaceOnUse">
<stop stop-color="#FD98FF"/>
<stop offset="0.639405" stop-color="#68066A"/>
</linearGradient>
<linearGradient id="paint14_linear_276_954" x1="20.8978" y1="20.8089" x2="21.044" y2="28.9449" gradientUnits="userSpaceOnUse">
<stop stop-color="#FD98FF"/>
<stop offset="0.639405" stop-color="#68066A"/>
</linearGradient>
<linearGradient id="paint15_linear_276_954" x1="31.2271" y1="19.4817" x2="31.9694" y2="41.0103" gradientUnits="userSpaceOnUse">
<stop stop-color="#FD98FF"/>
<stop offset="0.639405" stop-color="#68066A"/>
</linearGradient>
<linearGradient id="paint16_linear_276_954" x1="26.1225" y1="20.6364" x2="26.3026" y2="27.2495" gradientUnits="userSpaceOnUse">
<stop stop-color="#FD98FF"/>
<stop offset="0.639405" stop-color="#68066A"/>
</linearGradient>
<linearGradient id="paint17_linear_276_954" x1="11.9202" y1="21.2059" x2="12.5498" y2="36.0648" gradientUnits="userSpaceOnUse">
<stop stop-color="#FD98FF"/>
<stop offset="0.639405" stop-color="#68066A"/>
</linearGradient>
<linearGradient id="paint18_linear_276_954" x1="5.13442" y1="1.61658" x2="9.00961" y2="38.998" gradientUnits="userSpaceOnUse">
<stop stop-color="#FD98FF"/>
<stop offset="0.639405" stop-color="#68066A"/>
</linearGradient>
<linearGradient id="paint19_linear_276_954" x1="31.0926" y1="3.15161" x2="41.7" y2="14.1088" gradientUnits="userSpaceOnUse">
<stop stop-color="#FD98FF"/>
<stop offset="0.639405" stop-color="#68066A"/>
</linearGradient>
<linearGradient id="paint20_linear_276_954" x1="9.5811" y1="8.22644" x2="9.6189" y2="12.5566" gradientUnits="userSpaceOnUse">
<stop stop-color="#FD98FF"/>
<stop offset="0.639405" stop-color="#68066A"/>
</linearGradient>
<linearGradient id="paint21_linear_276_954" x1="9.64217" y1="12.6721" x2="9.67795" y2="16.9299" gradientUnits="userSpaceOnUse">
<stop stop-color="#FD98FF"/>
<stop offset="0.639405" stop-color="#68066A"/>
</linearGradient>
<linearGradient id="paint22_linear_276_954" x1="9.67199" y1="17.1243" x2="9.70938" y2="21.4102" gradientUnits="userSpaceOnUse">
<stop stop-color="#FD98FF"/>
<stop offset="0.639405" stop-color="#68066A"/>
</linearGradient>
<linearGradient id="paint23_linear_276_954" x1="22.3877" y1="6.16838" x2="23.1866" y2="29.3617" gradientUnits="userSpaceOnUse">
<stop stop-color="#FD98FF"/>
<stop offset="0.639405" stop-color="#68066A"/>
</linearGradient>
<linearGradient id="paint24_linear_276_954" x1="31.0251" y1="19.1078" x2="32.1784" y2="23.2026" gradientUnits="userSpaceOnUse">
<stop stop-color="#FD98FF"/>
<stop offset="0.639405" stop-color="#68066A"/>
</linearGradient>
<linearGradient id="paint25_linear_276_954" x1="24.1143" y1="25.1079" x2="24.3464" y2="40.3516" gradientUnits="userSpaceOnUse">
<stop stop-color="#FD98FF"/>
<stop offset="0.639405" stop-color="#68066A"/>
</linearGradient>
<linearGradient id="paint26_linear_276_954" x1="26.9104" y1="9.27119" x2="27.5157" y2="27.5155" gradientUnits="userSpaceOnUse">
<stop stop-color="#FD98FF"/>
<stop offset="0.639405" stop-color="#68066A"/>
</linearGradient>
</defs>
</svg>
