<svg width="55" height="56" viewBox="0 0 55 56" fill="none" xmlns="http://www.w3.org/2000/svg">
<path d="M14.2591 23.4242C12.8445 24.5563 12.8893 21.7935 13.5518 22.0354C13.7022 22.0914 14.2517 22.6514 14.3603 22.2925C14.4076 22.1371 14.0066 20.3885 13.8551 20.0289C14.9424 19.1776 15.7524 18.0122 16.1791 16.6849C16.1791 16.5306 15.7752 16.7364 15.7752 16.7364C15.8577 16.524 15.8922 16.2954 15.8761 16.0675C15.8673 16.0556 15.8558 16.0459 15.8427 16.0392C15.8295 16.0325 15.815 16.0291 15.8003 16.0291C15.7856 16.0291 15.7712 16.0325 15.758 16.0392C15.7449 16.0459 15.7334 16.0556 15.7246 16.0675C15.4718 16.5821 14.8657 16.6835 14.3603 16.7364C13.7553 16.7364 11.6317 16.4284 10.8738 16.7879C10.5202 16.9422 10.1159 17.4566 10.2688 18.3839C10.2688 18.487 10.4204 19.1044 10.5213 19.1556C10.9123 19.1541 11.2965 19.2606 11.6328 19.4636C11.6834 19.5149 11.6328 19.5664 11.5825 19.5664C11.3804 19.5664 11.2286 19.5149 11.0771 19.5149C10.3698 19.4636 9.35914 19.4636 9.25822 20.3896C9.15702 21.1097 9.40974 21.8302 9.66247 22.4476C9.96497 23.219 11.6328 25.7401 11.835 25.8429C11.9057 25.8443 11.9763 25.8343 12.044 25.8132C12.0965 26.3547 12.193 26.894 12.2898 27.3862C12.3401 27.6942 12.6435 27.7463 12.5923 27.3862C12.4485 26.8492 12.35 26.3121 12.2109 25.7751C12.9306 25.6037 14.4554 25.1653 14.7651 24.9684C14.8657 24.9163 14.4098 23.2699 14.2591 23.4242ZM14.8151 17.5081C14.8412 17.5102 14.8657 17.5217 14.8842 17.5406C14.9027 17.5594 14.914 17.5843 14.9161 17.6109C14.9161 17.9281 13.9442 18.1149 13.9054 18.1255C13.8551 18.1255 13.8045 18.0225 13.8551 18.0225C13.9112 17.9651 14.6765 17.4611 14.8151 17.5081ZM12.2373 23.8873C12.2374 23.8942 12.2362 23.9009 12.2337 23.9072C12.2313 23.9136 12.2275 23.9193 12.2228 23.9241C12.2181 23.9289 12.2124 23.9327 12.2062 23.9353C12.2 23.9378 12.1934 23.939 12.1867 23.9389C12.0352 23.9904 11.8842 23.8358 11.833 23.7331C11.7248 23.6017 11.6238 23.4643 11.5305 23.3215C11.5533 23.7324 11.6561 24.1347 11.833 24.5047C11.8471 24.5391 11.8497 24.5771 11.8407 24.6131C11.8316 24.6491 11.8113 24.6811 11.7828 24.7043C11.7543 24.7275 11.7192 24.7407 11.6827 24.7418C11.6463 24.743 11.6104 24.732 11.5806 24.7105C11.2372 24.3433 10.9478 23.9274 10.7215 23.4757C10.4789 23.0073 10.2163 22.5498 10.2669 21.9839C10.2669 21.9324 10.3678 21.8809 10.3678 21.9839C10.486 22.4642 10.6912 22.9178 10.9728 23.3215C11.0735 23.5215 11.193 23.711 11.3298 23.8873C11.2361 23.5528 11.2188 23.2008 11.2792 22.8583C11.2804 22.8281 11.2916 22.7991 11.3109 22.7761C11.3302 22.7531 11.3566 22.7374 11.3857 22.7314C11.4149 22.7255 11.4452 22.7298 11.4717 22.7435C11.4982 22.7572 11.5194 22.7796 11.5319 22.8071C11.7607 23.2755 12.3041 23.6185 12.2373 23.8873ZM11.1772 17.4051C11.1249 17.4303 11.0815 17.3975 11.1266 17.3538C11.3141 17.1955 11.5335 17.0812 11.7693 17.019C12.0051 16.9568 12.2514 16.9481 12.4908 16.9937C12.8921 17.0572 13.2973 17.0916 13.7033 17.0965C13.7308 17.0965 14.4502 17.0049 14.1582 17.3023C13.8155 17.5638 13.048 17.4364 12.6424 17.3538C12.1611 17.211 11.6476 17.2289 11.1772 17.4051Z" fill="url(#paint0_linear_276_917)"/>
<path d="M16.9376 22.2925C17.066 22.1877 17.1691 22.0544 17.2391 21.9029C17.3091 21.7513 17.3442 21.5855 17.3416 21.418C17.3416 20.7264 16.7916 20.2944 16.3313 19.7201C16.0816 19.409 15.7755 19.1542 15.4722 18.8457C15.4216 18.7941 15.3206 18.8457 15.3712 18.9484C15.5734 19.2057 15.7755 19.5146 15.9762 19.7716C16.5708 20.5276 16.9112 20.8916 16.9866 21.315C16.9896 21.5862 16.9197 21.853 16.7845 22.0867C16.7719 22.0093 16.7367 21.9376 16.6835 21.8809C16.6329 21.8296 16.5656 21.8333 16.5823 21.9324C16.7146 22.7077 16.8848 23.5788 16.6329 24.4017C16.5593 24.6876 16.4209 24.9519 16.2287 25.1734C16.0266 25.4307 15.7235 25.5337 15.4708 25.7395C15.4202 25.7908 15.4202 25.8938 15.5214 25.8938C15.875 25.9451 16.1781 25.688 16.4308 25.4822C16.6809 25.2187 16.8711 24.9025 16.988 24.556C17.1993 23.814 17.1817 23.0239 16.9376 22.2925Z" fill="url(#paint1_linear_276_917)"/>
<path d="M25.3253 27.6429C26.1715 27.3965 26.6931 27.0493 28.3569 26.2023C28.9921 25.9867 29.2944 25.8588 29.5694 25.2764C31.9003 20.3375 32.194 17.1054 32.4503 16.3239C32.5086 16.0193 32.5421 15.7102 32.5506 15.3999C32.5506 15.2454 32.3485 15.2454 32.2979 15.3484C32.1681 15.8913 32.0671 16.4409 31.9954 16.9948C31.5184 19.3931 30.8075 21.7369 29.8732 23.9915C29.6257 24.5599 29.469 25.3803 28.9132 25.6891C28.3582 26.0001 27.7844 26.2751 27.1953 26.5123C26.5834 26.8094 25.9825 27.1809 25.3253 27.4898C25.1735 27.5399 25.2241 27.6429 25.3253 27.6429Z" fill="url(#paint2_linear_276_917)"/>
<path d="M32.1968 14.5757C31.8943 14.3183 31.5874 14.1167 31.2368 13.8555C31.0345 13.7443 30.8612 13.5855 30.7313 13.3924C30.669 13.2737 30.6364 13.1411 30.6364 13.0065C30.6364 12.8719 30.669 12.7394 30.7313 12.6207C30.8279 12.3373 30.9462 12.0621 31.085 11.7975C31.1862 11.5405 31.3377 11.2831 31.4389 11.0258C31.4892 10.9231 31.3377 10.82 31.2368 10.9231C31.0559 11.1612 30.9033 11.4202 30.7819 11.6947C30.5798 12.1576 30.266 12.7249 30.3271 13.2381C30.3639 13.4115 30.4371 13.5748 30.5415 13.7168C30.6459 13.8589 30.7791 13.9764 30.9321 14.0613C31.2896 14.3133 31.69 14.5757 32.0436 14.7815C32.1968 14.7815 32.2977 14.6784 32.1968 14.5757Z" fill="url(#paint3_linear_276_917)"/>
<path d="M31.7416 12.0034C31.908 11.0718 31.949 10.017 32.0441 9.431C32.0947 9.123 32.0947 8.815 32.1453 8.50504C32.1959 8.29924 32.2462 8.55656 32.2968 8.60808C32.3474 8.81388 32.4467 9.01996 32.499 9.27672C32.6458 9.998 32.7011 10.7688 32.8015 11.4887C32.8047 11.5205 32.8194 11.55 32.8428 11.5714C32.8661 11.5928 32.8964 11.6046 32.9278 11.6046C32.9592 11.6046 32.9895 11.5928 33.0129 11.5714C33.0362 11.55 33.0509 11.5205 33.0542 11.4887C33.0897 10.419 32.9181 9.35266 32.549 8.35048C32.5322 8.26637 32.4882 8.19038 32.4242 8.13458C32.3601 8.07878 32.2796 8.04637 32.1954 8.04248C31.8417 8.04248 31.8929 8.65848 31.8417 8.8654C31.7394 9.87386 31.6887 10.8871 31.6899 11.9009C31.5901 12.0549 31.691 12.0549 31.7416 12.0034Z" fill="url(#paint4_linear_276_917)"/>
<path d="M34.4199 10.4084C34.6179 10.5848 34.7589 10.8179 34.8242 11.0774C34.8748 11.332 34.8748 11.5944 34.8242 11.849C34.7989 11.887 34.7855 11.9318 34.7855 11.9777C34.7855 12.0236 34.7989 12.0684 34.8242 12.1064C34.8748 12.1576 34.9251 12.1064 34.9757 12.0548C35.1737 11.8532 35.1462 11.3092 35.0769 11.0258C35.0354 10.8608 34.9599 10.7066 34.8553 10.5735C34.7508 10.4405 34.6196 10.3316 34.4705 10.2542C34.3985 10.2281 34.3693 10.3572 34.4199 10.4084Z" fill="url(#paint5_linear_276_917)"/>
<path d="M35.5824 14.3184C35.7503 13.9592 35.8692 13.5785 35.936 13.1866C36.0279 12.5166 36.0372 11.6432 35.5824 11.0774C35.5318 10.9743 35.3803 11.0774 35.4309 11.1801C35.6828 11.7991 35.7359 12.4835 35.5824 13.1351C35.4812 13.7511 35.1149 14.2612 34.8751 14.833C34.7681 15.0878 35.1295 17.9194 35.2287 19.36C35.3316 20.8519 35.3297 22.344 35.3297 23.8358C35.3297 25.2764 35.2304 26.717 35.1275 28.2089C35.0872 28.9232 34.9686 29.6307 34.7739 30.3181C34.6031 30.8306 34.3077 31.2908 33.9151 31.6557C33.4187 32.1735 32.8581 32.6231 32.2475 32.9932C31.8949 33.2007 31.5908 33.4048 31.2371 33.6092C30.8818 33.8019 30.5436 34.0257 30.2265 34.2782C30.1253 34.3294 30.2265 34.484 30.3274 34.4324C31.0079 34.1966 31.6539 33.8678 32.2475 33.455C32.8021 33.1068 33.3266 32.7109 33.815 32.2717C34.2327 31.9022 34.5908 31.4682 34.8762 30.9856C35.1672 30.3734 35.3388 29.7095 35.3814 29.0307C35.9338 24.9516 35.7023 19.1562 35.0789 15.0886C35.3297 14.9873 35.5318 14.4726 35.5824 14.3184Z" fill="url(#paint6_linear_276_917)"/>
<path d="M2.53715 42.4594C2.46565 43.5514 1.8821 46.2789 1.62773 47.3465C1.40058 48.2999 1.375 48.2439 1.375 48.4786C1.375 48.5813 1.47593 48.6329 1.57713 48.5298C1.76165 48.252 1.88251 47.9356 1.93077 47.6039C2.0779 46.9218 2.73928 43.5349 2.73928 42.4594C2.68868 42.3049 2.53715 42.3049 2.53715 42.4594Z" fill="url(#paint7_linear_276_917)"/>
<path d="M33.1567 10.0484C33.2576 10.2027 33.4092 10.3057 33.4592 10.46C33.6034 10.7826 33.6726 11.1347 33.6613 11.489C33.6613 11.8466 34.0565 11.517 33.9141 10.873C33.8633 10.6142 33.7603 10.369 33.6116 10.1528C33.4995 10.0224 33.3618 9.91749 33.2073 9.84485C33.1567 9.89413 33.1061 9.99605 33.1567 10.0484Z" fill="url(#paint8_linear_276_917)"/>
<path d="M19.9181 39.2697C19.8169 39.3213 19.7657 39.1656 19.8675 39.1155C20.6207 38.7447 30.0235 35.2571 30.125 35.2055C29.721 34.125 26.6891 26.0997 26.5882 25.6881C26.5791 25.6637 26.5652 25.6415 26.5473 25.6229C26.5294 25.6043 26.5078 25.5897 26.4841 25.58C26.4603 25.5703 26.4348 25.5658 26.4093 25.5666C26.3837 25.5675 26.3586 25.5738 26.3355 25.585C25.2239 26.3567 18.5038 28.7748 18.3522 28.8263C16.6844 27.0256 11.6321 26.768 9.50934 27.7458C9.47678 27.7557 9.44822 27.776 9.42792 27.8038C9.40762 27.8315 9.39665 27.8652 9.39665 27.8998C9.39665 27.9344 9.40762 27.9681 9.42792 27.9958C9.44822 28.0235 9.47678 28.0439 9.50934 28.0538C10.0109 28.2117 10.3508 28.9103 10.419 28.9797C8.59991 29.5957 6.91636 30.6135 5.77154 32.1692C4.29699 34.1718 4.14904 35.4659 1.83051 43.0758C1.82712 43.1037 1.82987 43.1321 1.83857 43.1588C1.84728 43.1856 1.86171 43.21 1.88084 43.2303C2.99266 43.4361 4.15454 43.4874 5.26636 43.6932C5.17836 41.1886 5.22236 38.3527 5.87136 35.9249C6.13396 34.8113 6.54183 33.7387 7.08411 32.7354C7.13471 32.6839 7.23564 32.7354 7.18531 32.7866C6.89163 33.392 6.67103 34.0313 6.52834 34.6906C5.31696 38.3905 5.74101 43.6489 5.82104 47.5519C5.83259 48.1177 5.87136 48.6839 5.92196 49.2498C6.47792 49.4262 7.05758 49.5129 7.63989 49.5068C8.14534 49.5068 11.4283 49.2867 12.5915 49.1988C15.0148 49.0146 22.1918 48.6845 23.4045 48.7872C23.4439 48.7846 23.481 48.7676 23.5089 48.7392C23.5368 48.7108 23.5535 48.673 23.5561 48.6329C23.5814 47.2945 24.1118 38.7554 24.1118 38.1889C22.6928 38.4582 21.2921 38.8192 19.9181 39.2697ZM16.2796 34.1765C16.469 35.2479 16.8457 36.276 17.3917 37.212C17.4115 37.2295 17.4264 37.2519 17.4348 37.2771C17.4433 37.3024 17.4451 37.3294 17.4399 37.3556C17.4348 37.3817 17.4229 37.406 17.4056 37.4259C17.3882 37.4458 17.3659 37.4607 17.3411 37.4691C17.2401 37.4691 17.1389 37.2633 17.0886 37.212C16.8865 36.904 16.6844 36.5431 16.4822 36.183C16.1781 35.443 15.9745 34.6641 15.8772 33.868C15.6913 32.3585 16.2072 30.8585 16.7867 30.1639C16.8329 30.1079 17.4942 29.4949 17.4436 29.7007C17.393 29.855 17.1862 30.0048 17.09 30.1123C16.8462 30.419 16.658 30.7674 16.5342 31.1413C16.1894 32.1128 16.1016 33.1596 16.2796 34.1765ZM14.7121 28.7748C15.0374 28.8035 15.342 28.9494 15.5712 29.1864C15.5807 29.1992 15.587 29.2141 15.5895 29.2299C15.5921 29.2457 15.5908 29.2619 15.5858 29.2771C15.5808 29.2923 15.5723 29.306 15.5609 29.3171C15.5495 29.3282 15.5357 29.3363 15.5206 29.3407C14.753 29.3407 14.8372 28.9291 11.6299 28.9291C11.5289 28.9291 11.5795 28.8263 11.6299 28.8263C12.3344 28.7711 13.9894 28.6519 14.7137 28.7748H14.7121Z" fill="url(#paint9_linear_276_917)"/>
<path d="M36.6434 6.54999C35.5183 6.54999 29.3413 6.44191 28.3571 6.54999C27.8021 6.61103 27.1949 6.70427 26.7896 7.16599C26.5657 7.40559 26.4239 7.7124 26.3853 8.04071C26.3325 8.70836 26.3325 9.37926 26.3853 10.0469C26.4321 10.6133 26.4293 11.1854 26.8905 11.6429C27.7878 12.5305 29.3152 12.0803 30.4275 12.106C30.4477 12.106 30.467 12.0979 30.4812 12.0834C30.4954 12.0689 30.5034 12.0492 30.5034 12.0287C30.5034 12.0083 30.4954 11.9886 30.4812 11.9741C30.467 11.9596 30.4477 11.9515 30.4275 11.9515C29.9727 11.9515 29.4675 11.9002 29.0127 11.9002C28.1211 11.9002 27.2835 11.877 26.8905 11.077C26.638 10.5627 26.6884 9.89375 26.6884 9.32787C26.6884 8.81351 26.638 8.09307 26.8905 7.63023C27.1429 7.16739 27.7001 6.97223 28.2044 6.90979C28.8923 6.83313 29.5841 6.79881 30.276 6.80703C37.9367 6.80703 38.4138 6.78435 38.6129 6.80703C38.8665 6.85222 39.1087 6.94827 39.3256 7.08958C39.5424 7.2309 39.7295 7.41467 39.876 7.63023C40.1708 8.1419 40.2779 8.74337 40.1785 9.32787C40.1661 9.40403 40.1086 10.5918 39.8248 11.077C39.3862 11.8266 37.7392 11.8504 37.3498 11.9002H36.4401C36.3898 11.9002 36.1877 11.9002 36.238 12.003H36.2886C37.0449 12.0737 37.806 12.0737 38.5623 12.003C39.0678 11.9515 39.5729 11.8487 39.876 11.4371C40.1785 11.077 40.2228 10.6131 40.2802 10.1511C40.3362 9.79342 40.37 9.43253 40.3814 9.07055C40.4067 8.74523 40.4067 8.41839 40.3814 8.09307C40.3158 7.80989 40.1917 7.54418 40.0175 7.31357C39.8432 7.08296 39.6228 6.89273 39.3708 6.75551C39.1294 6.63231 38.3299 6.54999 36.6434 6.54999Z" fill="url(#paint10_linear_276_917)"/>
<path d="M45.233 22.8072C46.3416 22.9142 47.4567 22.9314 48.568 22.8584C48.9808 22.8608 49.391 22.7912 49.7807 22.6526C49.9849 22.5672 50.1705 22.4414 50.3266 22.2824C50.4827 22.1235 50.6063 21.9346 50.6901 21.7266C50.7718 21.4606 50.806 21.1818 50.7911 20.9034C50.7911 20.2844 50.8054 20.1754 50.7407 19.9775C50.7407 19.926 50.6395 19.926 50.6395 19.9775C50.5708 20.2108 50.5535 20.4567 50.5889 20.6976C50.5832 20.9579 50.5493 21.2166 50.488 21.4693C50.4393 21.6723 50.3457 21.8612 50.2143 22.0217C50.083 22.1823 49.9174 22.3101 49.7301 22.3956C49.3528 22.5138 48.9623 22.5829 48.568 22.6014C48.1637 22.6014 47.7089 22.6526 47.3049 22.6526C46.6479 22.6526 45.9406 22.6526 45.2836 22.7041C45.183 22.7556 45.183 22.8072 45.233 22.8072Z" fill="url(#paint11_linear_276_917)"/>
<path d="M33.4597 33.6106C35.3396 33.6523 40.6254 33.7825 41.7966 33.6621C42.3521 33.6061 42.9145 33.5686 43.3641 33.2505C43.9281 32.8507 44.0211 32.2215 44.0211 31.6041C44.1435 29.6086 44.1677 28.1954 42.202 28.0546C41.1927 27.982 40.181 28.0546 39.1198 28.0546C36.4451 28.0546 36.6173 28.1058 36.1388 28.1058C36.1186 28.1058 36.0993 28.114 36.0851 28.1284C36.0709 28.1429 36.0629 28.1626 36.0629 28.1831C36.0629 28.2036 36.0709 28.2232 36.0851 28.2377C36.0993 28.2522 36.1186 28.2604 36.1388 28.2604C36.3409 28.2604 36.6945 28.3074 36.9473 28.3116C38.4636 28.3374 39.9786 28.2119 41.4947 28.3116C42.3029 28.3648 43.3737 28.3601 43.6672 29.3406C43.9281 30.2125 43.8682 31.3983 43.7175 32.2731C43.514 33.456 41.7468 33.3953 40.8374 33.4048C38.3624 33.4306 35.9364 33.3533 33.4605 33.4563C33.4091 33.5078 33.4091 33.6095 33.4597 33.6106Z" fill="url(#paint12_linear_276_917)"/>
<path d="M51.9021 29.4434C50.7804 29.3295 44.6146 29.423 44.4747 29.4949C44.3737 29.5465 44.5253 32.5817 44.6265 32.5817C45.8915 32.4895 51.969 32.4366 52.4582 32.3246C53.0679 32.1846 53.4179 31.5014 53.4179 30.884C53.4685 30.0608 52.6603 29.5465 51.9021 29.4434Z" fill="url(#paint13_linear_276_917)"/>
<path d="M30.9334 18.743C29.5235 18.597 28.1057 18.5454 26.6891 18.5884C25.9818 18.5884 25.2745 18.5884 24.5672 18.6399C24.2127 18.6314 23.8581 18.6486 23.506 18.6915C23.1683 18.6807 22.8303 18.6978 22.4953 18.7427C22.2142 18.8082 21.9547 18.947 21.7421 19.1455C21.5295 19.344 21.3713 19.5952 21.2829 19.8747C21.0807 20.3891 21.3348 20.9533 21.7374 21.3151C22.193 21.6889 22.7709 21.8729 23.3544 21.8297C25.9262 21.8297 27.6068 21.8473 30.2261 21.6751C30.3271 21.6751 30.3271 21.4693 30.2261 21.5209C28.224 21.6416 26.2171 21.6588 24.2133 21.5724C23.6575 21.5724 23.0033 21.6161 22.445 21.4181C21.9924 21.2574 21.485 20.8021 21.485 20.2348C21.5084 19.9682 21.6143 19.7161 21.7875 19.5147C21.9478 19.2552 22.202 19.0703 22.4951 19C23.11 18.8959 23.7463 19.0017 24.4657 18.8973C25.7101 18.8973 23.5274 18.8457 30.9832 18.8457C30.984 18.8177 30.984 18.7942 30.9334 18.743Z" fill="url(#paint14_linear_276_917)"/>
<path d="M52.8116 8.04218C52.3089 7.72802 51.6998 7.78402 51.0948 7.78402C41.2729 7.78402 40.7872 7.82294 40.7872 8.04134C40.7871 8.93527 40.7364 9.82846 40.6354 10.7165C40.6161 10.7291 40.6011 10.7477 40.5927 10.7694C40.5842 10.7912 40.5827 10.8151 40.5883 10.8378C40.5938 10.8605 40.6063 10.8809 40.6238 10.896C40.6413 10.9112 40.6631 10.9204 40.686 10.9223C43.521 11.0872 47.0888 10.9332 51.499 10.8707C51.9536 10.8643 52.459 10.8707 52.863 10.5627C53.8593 9.99882 53.9146 8.72986 52.8116 8.04218Z" fill="url(#paint15_linear_276_917)"/>
<path d="M53.1153 19.2058C52.6608 18.7429 50.9932 18.6399 50.9932 18.8457C50.9932 19.6689 50.9932 21.5723 51.0944 21.6751C51.2292 21.763 51.3902 21.7995 51.5489 21.7781C51.8722 21.7925 52.1958 21.7578 52.509 21.6751C52.7626 21.604 52.9938 21.4671 53.1798 21.2778C53.3658 21.0884 53.5004 20.8531 53.5702 20.5948C53.6001 20.3434 53.5748 20.0884 53.4962 19.8482C53.4175 19.608 53.2874 19.3886 53.1153 19.2058Z" fill="url(#paint16_linear_276_917)"/>
<path d="M50.5885 18.3313C49.7635 17.0713 48.0481 17.3539 46.9002 17.3539C46.2433 17.3539 45.536 17.3539 44.879 17.3023C40.6797 17.3023 38.6915 17.0823 37.8558 17.5081C37.6811 17.5682 37.5198 17.6627 37.3811 17.7863C37.2424 17.9098 37.1289 18.06 37.0473 18.2283C36.9715 18.3721 36.9186 18.5272 36.8905 18.6878C36.1986 18.6864 35.8549 18.6707 35.7842 18.7438V18.8981C35.8534 18.9623 35.9432 18.9988 36.0369 19.0008C36.5303 19.0008 36.7406 19.0159 36.8504 19.0176C36.8333 19.2819 36.8451 19.5457 36.8451 19.7736C36.8052 20.4121 36.8541 21.0531 36.9903 21.6776C36.1354 21.6776 36.0663 21.6625 35.9357 21.7291L35.9426 21.9349C35.9701 21.9629 35.8155 21.9349 37.0841 21.9349C37.1564 22.109 37.2618 22.2668 37.3942 22.3992C37.5267 22.5317 37.6835 22.6361 37.8558 22.7066C38.4014 22.8917 38.7503 22.8609 41.0895 22.8609C43.0816 22.8609 44.3895 22.8049 44.6769 22.8097C44.697 22.8097 44.7163 22.8015 44.7305 22.787C44.7448 22.7725 44.7528 22.7529 44.7528 22.7324C44.7528 22.7119 44.7448 22.6922 44.7305 22.6777C44.7163 22.6632 44.697 22.6551 44.6769 22.6551C44.3744 22.6551 44.0202 22.6039 43.7168 22.6039H40.5843C39.7252 22.6039 38.5631 22.8097 37.8052 22.3981C37.5925 22.2633 37.4193 22.0727 37.3038 21.8464C37.1883 21.6202 37.1346 21.3664 37.1485 21.1117C37.0979 20.3401 36.9969 19.3113 37.1988 18.5394C37.2688 18.3384 37.3911 18.1606 37.5527 18.025C38.2339 17.3315 39.7071 17.5107 48.1127 17.5107C48.7697 17.5107 49.4264 17.5107 49.9318 17.8707C50.1733 18.0385 50.3632 18.2726 50.4794 18.5457C50.5956 18.8189 50.6335 19.1199 50.5885 19.4141C50.6391 19.4656 50.6391 19.4656 50.6897 19.4141C50.7621 19.2392 50.7907 19.0487 50.7731 18.8597C50.7554 18.6708 50.692 18.4892 50.5885 18.3313Z" fill="url(#paint17_linear_276_917)"/>
<path d="M39.675 19.1031C39.2625 20.3594 39.776 21.5825 39.776 21.1093C39.8378 20.9203 39.8981 18.6481 39.675 19.1031Z" fill="url(#paint18_linear_276_917)"/>
<path d="M41.5944 18.9484C41.4984 19.2908 41.5441 19.5174 41.5441 20.6463C41.5441 20.9627 41.5672 21.1092 41.7965 21.1092C41.9381 21.0131 41.8977 20.9347 41.8977 20.0804C41.8977 18.4198 41.5339 18.9484 41.5944 18.9484Z" fill="url(#paint19_linear_276_917)"/>
<path d="M43.9191 21.1091C44.0082 20.9733 43.8957 18.2761 43.5654 18.9484C43.5929 18.9484 43.4777 21.5599 43.9191 21.1091Z" fill="url(#paint20_linear_276_917)"/>
<path d="M45.5355 19C45.4799 19.5639 45.463 20.1312 45.4848 20.6976C45.4848 20.8522 45.4848 21.1092 45.586 21.2122C45.6364 21.2638 45.7236 21.2615 45.7376 21.2122C45.7817 21.0272 45.7987 20.8365 45.7879 20.6464C45.8091 20.0784 45.7753 19.5097 45.687 18.9484C45.687 18.8972 45.5355 18.8972 45.5355 19Z" fill="url(#paint21_linear_276_917)"/>
<path d="M47.7082 19.0515C47.7082 19.0795 47.5478 20.8995 47.86 21.1608C48.2274 21.4674 48.0494 19.768 48.0159 19.5578C47.8726 18.6584 47.7123 18.9395 47.7082 19.0515Z" fill="url(#paint22_linear_276_917)"/>
<path d="M29.0639 8.35075C28.8789 8.91635 29.0287 8.90599 28.9124 9.37975C28.9124 9.68775 28.8618 10.0999 29.0133 10.3572C29.0639 10.46 29.1651 10.4085 29.1651 10.3572C29.2287 10.1629 29.2155 10.0772 29.2155 8.86511C29.2155 8.71083 29.1651 8.55711 29.1651 8.35075C29.2155 8.29923 29.1145 8.24771 29.0639 8.35075Z" fill="url(#paint23_linear_276_917)"/>
<path d="M30.9842 8.19645C30.8791 8.75558 30.8452 9.32615 30.8833 9.89409C30.8833 10.0484 30.8833 10.3057 31.0348 10.3572H31.1357C31.2873 10.2542 31.2369 10.0492 31.2369 9.89409C31.274 9.32613 31.24 8.75568 31.1357 8.19645C31.0851 8.14493 30.9842 8.09341 30.9842 8.19645Z" fill="url(#paint24_linear_276_917)"/>
<path d="M34.9249 8.2477C34.8694 8.8118 34.8526 9.37914 34.8745 9.94562C34.8745 10.0999 34.8745 10.3572 34.9755 10.46C35.0261 10.5115 35.1234 10.516 35.1383 10.4659C35.1786 10.2782 35.1918 10.0856 35.1776 9.8941C35.1988 9.32622 35.165 8.75759 35.0767 8.19646C35.0767 8.14494 34.9249 8.14494 34.9249 8.2477Z" fill="url(#paint25_linear_276_917)"/>
<path d="M37.0972 8.29925C37.0972 8.32725 36.9207 10.8971 37.3997 10.4085C37.5691 10.1503 37.3354 8.59101 37.2482 8.24773C37.2251 8.15365 37.0972 8.19649 37.0972 8.29925Z" fill="url(#paint26_linear_276_917)"/>
<path d="M37.3509 29.8037C37.3113 30.086 37.3341 31.8158 37.553 31.9645C37.5618 31.9764 37.5733 31.9861 37.5864 31.9928C37.5996 31.9995 37.6141 32.0029 37.6288 32.0029C37.6434 32.0029 37.6579 31.9995 37.6711 31.9928C37.6842 31.9861 37.6957 31.9764 37.7045 31.9645C37.8648 31.7195 37.6022 29.9796 37.553 29.8037C37.553 29.7007 37.4004 29.7007 37.3509 29.8037Z" fill="url(#paint27_linear_276_917)"/>
<path d="M39.3214 29.9066C39.2659 30.4706 39.2491 31.0378 39.271 31.6042C39.271 31.7588 39.271 32.0158 39.372 32.1188C39.4226 32.1701 39.5235 32.1701 39.5235 32.1188C39.6247 31.9646 39.5741 31.7588 39.5741 31.553C39.5953 30.985 39.5615 30.4163 39.4732 29.855C39.4732 29.7523 39.3214 29.8038 39.3214 29.9066Z" fill="url(#paint28_linear_276_917)"/>
<path d="M41.8471 31.4499C41.8325 30.9124 41.7648 30.3777 41.645 29.8539C41.6131 29.7486 41.5193 29.7934 41.4935 29.9054C41.4534 30.0912 41.4364 30.2813 41.4429 30.4713C41.4429 31.0187 41.4088 31.3295 41.4429 31.5353C41.4443 31.6248 41.4629 31.7132 41.4979 31.7953C41.5328 31.8775 41.5833 31.9518 41.6464 32.0141C41.6552 32.0261 41.6666 32.0359 41.6798 32.0426C41.6929 32.0493 41.7074 32.0528 41.7222 32.0528C41.7369 32.0528 41.7514 32.0493 41.7645 32.0426C41.7777 32.0359 41.7891 32.0261 41.7979 32.0141C41.8977 31.8615 41.8471 31.6557 41.8471 31.4499Z" fill="url(#paint29_linear_276_917)"/>
<path d="M35.5311 30.5239C35.5311 30.7813 35.4805 31.0383 35.4805 31.2956V31.8615C35.4805 31.9645 35.5817 32.0158 35.6826 32.0158C36.0453 32.0158 35.7667 31.1027 35.6826 30.5755C35.657 30.4147 35.5311 30.4724 35.5311 30.5239Z" fill="url(#paint30_linear_276_917)"/>
<path d="M26.2346 7.93909C26.019 7.89127 25.7979 7.87393 25.5777 7.88757C24.5159 7.91333 23.4052 7.78481 22.3439 7.93909C21.9941 8.00567 21.6749 8.18618 21.4345 8.45345C21.2275 8.72605 21.1152 9.06088 21.1152 9.40545C21.1152 9.75001 21.2275 10.0848 21.4345 10.3574C22.0593 11.1787 23.4283 10.8718 24.8704 10.8718C25.2742 10.846 25.6793 10.846 26.0831 10.8718C26.1143 10.8685 26.1433 10.8535 26.1643 10.8297C26.1853 10.806 26.197 10.7751 26.197 10.7431C26.197 10.7112 26.1853 10.6803 26.1643 10.6566C26.1433 10.6328 26.1143 10.6178 26.0831 10.6145C25.7803 10.5905 25.4762 10.5905 25.1734 10.6145C24.8203 10.6705 24.4155 10.666 24.0619 10.7175C22.9951 10.7175 22.4372 10.7721 21.9903 10.5117C21.7205 10.3368 21.5277 10.0623 21.4523 9.74581C21.377 9.42931 21.4249 9.0954 21.586 8.81409C21.8885 8.29945 22.4955 8.19669 23.0515 8.19669C23.9103 8.14517 24.7694 8.24793 25.6283 8.19669C25.8485 8.20518 26.0689 8.18789 26.2852 8.14517C26.2847 8.04213 26.2847 7.99061 26.2346 7.93909Z" fill="url(#paint31_linear_276_917)"/>
<path d="M33.0771 8.23542C33.0655 8.3076 33.0582 8.38045 33.0554 8.45354C33.0554 8.92506 33.0394 9.00318 33.106 9.07094C33.1989 9.16558 33.3081 8.93094 33.3081 8.86514C33.3259 8.65627 33.3148 8.44589 33.2751 8.24018C33.257 8.1783 33.0906 8.1587 33.0771 8.23542Z" fill="url(#paint32_linear_276_917)"/>
<path d="M15.7752 23.0129C15.8262 23.0888 15.8938 23.1515 15.9727 23.1962C16.0516 23.2408 16.1396 23.266 16.2298 23.2699C16.4825 23.2699 16.5323 23.4242 16.3813 23.5273C16.2669 23.5857 16.1348 23.597 16.0124 23.5586C15.89 23.5203 15.7869 23.4353 15.7246 23.3215C15.5503 23.044 15.5731 22.8071 15.7752 23.0129Z" fill="url(#paint33_linear_276_917)"/>
<path d="M15.169 19.8239C15.0891 19.8132 15.008 19.8271 14.9359 19.8638C14.8639 19.9005 14.8043 19.9583 14.7648 20.0297C14.6132 20.2355 14.4867 20.1888 14.512 19.9782C14.5191 19.8487 14.5763 19.7274 14.671 19.6407C14.7657 19.5539 14.8903 19.5089 15.0175 19.5154C15.3725 19.5145 15.4215 19.7716 15.169 19.8239Z" fill="url(#paint34_linear_276_917)"/>
<path d="M14.9668 20.5948C14.9668 20.6631 15.0094 20.7285 15.0852 20.7768C15.161 20.8251 15.2638 20.8522 15.371 20.8522C15.4783 20.8522 15.5811 20.8251 15.6569 20.7768C15.7327 20.7285 15.7753 20.6631 15.7753 20.5948C15.7753 20.5266 15.7327 20.4611 15.6569 20.4129C15.5811 20.3646 15.4783 20.3375 15.371 20.3375C15.2638 20.3375 15.161 20.3646 15.0852 20.4129C15.0094 20.4611 14.9668 20.5266 14.9668 20.5948Z" fill="url(#paint35_linear_276_917)"/>
<defs>
<linearGradient id="paint0_linear_276_917" x1="13.0544" y1="14.2019" x2="14.1473" y2="34.728" gradientUnits="userSpaceOnUse">
<stop stop-color="#FD98FF"/>
<stop offset="0.639405" stop-color="#68066A"/>
</linearGradient>
<linearGradient id="paint1_linear_276_917" x1="16.4488" y1="17.7118" x2="17.8553" y2="30.098" gradientUnits="userSpaceOnUse">
<stop stop-color="#FD98FF"/>
<stop offset="0.639405" stop-color="#68066A"/>
</linearGradient>
<linearGradient id="paint2_linear_276_917" x1="29.2561" y1="13.3301" x2="30.4324" y2="35.1957" gradientUnits="userSpaceOnUse">
<stop stop-color="#FD98FF"/>
<stop offset="0.639405" stop-color="#68066A"/>
</linearGradient>
<linearGradient id="paint3_linear_276_917" x1="31.3743" y1="10.2663" x2="31.8205" y2="17.1551" gradientUnits="userSpaceOnUse">
<stop stop-color="#FD98FF"/>
<stop offset="0.639405" stop-color="#68066A"/>
</linearGradient>
<linearGradient id="paint4_linear_276_917" x1="32.4237" y1="7.41415" x2="33.0562" y2="14.4356" gradientUnits="userSpaceOnUse">
<stop stop-color="#FD98FF"/>
<stop offset="0.639405" stop-color="#68066A"/>
</linearGradient>
<linearGradient id="paint5_linear_276_917" x1="34.7982" y1="9.9553" x2="35.0675" y2="13.2615" gradientUnits="userSpaceOnUse">
<stop stop-color="#FD98FF"/>
<stop offset="0.639405" stop-color="#68066A"/>
</linearGradient>
<linearGradient id="paint6_linear_276_917" x1="33.3756" y1="7.35005" x2="38.6227" y2="48.1849" gradientUnits="userSpaceOnUse">
<stop stop-color="#FD98FF"/>
<stop offset="0.639405" stop-color="#68066A"/>
</linearGradient>
<linearGradient id="paint7_linear_276_917" x1="2.12535" y1="41.3609" x2="3.70496" y2="52.2004" gradientUnits="userSpaceOnUse">
<stop stop-color="#FD98FF"/>
<stop offset="0.639405" stop-color="#68066A"/>
</linearGradient>
<linearGradient id="paint8_linear_276_917" x1="33.5808" y1="9.56292" x2="33.8036" y2="12.7233" gradientUnits="userSpaceOnUse">
<stop stop-color="#FD98FF"/>
<stop offset="0.639405" stop-color="#68066A"/>
</linearGradient>
<linearGradient id="paint9_linear_276_917" x1="17.3918" y1="21.7981" x2="18.535" y2="64.2206" gradientUnits="userSpaceOnUse">
<stop stop-color="#FD98FF"/>
<stop offset="0.639405" stop-color="#68066A"/>
</linearGradient>
<linearGradient id="paint10_linear_276_917" x1="34.0758" y1="5.6054" x2="34.2061" y2="15.7038" gradientUnits="userSpaceOnUse">
<stop stop-color="#FD98FF"/>
<stop offset="0.639405" stop-color="#68066A"/>
</linearGradient>
<linearGradient id="paint11_linear_276_917" x1="48.277" y1="19.4723" x2="48.3657" y2="24.7266" gradientUnits="userSpaceOnUse">
<stop stop-color="#FD98FF"/>
<stop offset="0.639405" stop-color="#68066A"/>
</linearGradient>
<linearGradient id="paint12_linear_276_917" x1="39.2771" y1="27.1267" x2="39.4488" y2="37.2131" gradientUnits="userSpaceOnUse">
<stop stop-color="#FD98FF"/>
<stop offset="0.639405" stop-color="#68066A"/>
</linearGradient>
<linearGradient id="paint13_linear_276_917" x1="49.3797" y1="28.8878" x2="49.4438" y2="34.5465" gradientUnits="userSpaceOnUse">
<stop stop-color="#FD98FF"/>
<stop offset="0.639405" stop-color="#68066A"/>
</linearGradient>
<linearGradient id="paint14_linear_276_917" x1="26.5862" y1="18.0602" x2="26.6477" y2="23.8443" gradientUnits="userSpaceOnUse">
<stop stop-color="#FD98FF"/>
<stop offset="0.639405" stop-color="#68066A"/>
</linearGradient>
<linearGradient id="paint15_linear_276_917" x1="47.7567" y1="7.27394" x2="47.8015" y2="12.9763" gradientUnits="userSpaceOnUse">
<stop stop-color="#FD98FF"/>
<stop offset="0.639405" stop-color="#68066A"/>
</linearGradient>
<linearGradient id="paint16_linear_276_917" x1="52.4172" y1="18.2662" x2="52.6185" y2="23.6485" gradientUnits="userSpaceOnUse">
<stop stop-color="#FD98FF"/>
<stop offset="0.639405" stop-color="#68066A"/>
</linearGradient>
<linearGradient id="paint17_linear_276_917" x1="44.0309" y1="16.3613" x2="44.1497" y2="26.3209" gradientUnits="userSpaceOnUse">
<stop stop-color="#FD98FF"/>
<stop offset="0.639405" stop-color="#68066A"/>
</linearGradient>
<linearGradient id="paint18_linear_276_917" x1="39.6897" y1="18.7013" x2="40.4879" y2="22.3766" gradientUnits="userSpaceOnUse">
<stop stop-color="#FD98FF"/>
<stop offset="0.639405" stop-color="#68066A"/>
</linearGradient>
<linearGradient id="paint19_linear_276_917" x1="41.7366" y1="18.5157" x2="42.4758" y2="22.3465" gradientUnits="userSpaceOnUse">
<stop stop-color="#FD98FF"/>
<stop offset="0.639405" stop-color="#68066A"/>
</linearGradient>
<linearGradient id="paint20_linear_276_917" x1="43.7761" y1="18.4757" x2="44.5416" y2="22.4429" gradientUnits="userSpaceOnUse">
<stop stop-color="#FD98FF"/>
<stop offset="0.639405" stop-color="#68066A"/>
</linearGradient>
<linearGradient id="paint21_linear_276_917" x1="45.6507" y1="18.5472" x2="46.5678" y2="22.474" gradientUnits="userSpaceOnUse">
<stop stop-color="#FD98FF"/>
<stop offset="0.639405" stop-color="#68066A"/>
</linearGradient>
<linearGradient id="paint22_linear_276_917" x1="47.8988" y1="18.562" x2="48.5738" y2="22.4839" gradientUnits="userSpaceOnUse">
<stop stop-color="#FD98FF"/>
<stop offset="0.639405" stop-color="#68066A"/>
</linearGradient>
<linearGradient id="paint23_linear_276_917" x1="29.0761" y1="7.95673" x2="29.8562" y2="11.5563" gradientUnits="userSpaceOnUse">
<stop stop-color="#FD98FF"/>
<stop offset="0.639405" stop-color="#68066A"/>
</linearGradient>
<linearGradient id="paint24_linear_276_917" x1="31.079" y1="7.78748" x2="31.7814" y2="11.595" gradientUnits="userSpaceOnUse">
<stop stop-color="#FD98FF"/>
<stop offset="0.639405" stop-color="#68066A"/>
</linearGradient>
<linearGradient id="paint25_linear_276_917" x1="35.0404" y1="7.7945" x2="35.9598" y2="11.7264" gradientUnits="userSpaceOnUse">
<stop stop-color="#FD98FF"/>
<stop offset="0.639405" stop-color="#68066A"/>
</linearGradient>
<linearGradient id="paint26_linear_276_917" x1="37.2823" y1="7.8375" x2="37.9991" y2="11.7395" gradientUnits="userSpaceOnUse">
<stop stop-color="#FD98FF"/>
<stop offset="0.639405" stop-color="#68066A"/>
</linearGradient>
<linearGradient id="paint27_linear_276_917" x1="37.5664" y1="29.3681" x2="38.2419" y2="33.2886" gradientUnits="userSpaceOnUse">
<stop stop-color="#FD98FF"/>
<stop offset="0.639405" stop-color="#68066A"/>
</linearGradient>
<linearGradient id="paint28_linear_276_917" x1="39.4405" y1="29.4279" x2="40.3578" y2="33.3976" gradientUnits="userSpaceOnUse">
<stop stop-color="#FD98FF"/>
<stop offset="0.639405" stop-color="#68066A"/>
</linearGradient>
<linearGradient id="paint29_linear_276_917" x1="41.6655" y1="29.4388" x2="42.314" y2="33.3358" gradientUnits="userSpaceOnUse">
<stop stop-color="#FD98FF"/>
<stop offset="0.639405" stop-color="#68066A"/>
</linearGradient>
<linearGradient id="paint30_linear_276_917" x1="35.6915" y1="30.2268" x2="36.0375" y2="32.9233" gradientUnits="userSpaceOnUse">
<stop stop-color="#FD98FF"/>
<stop offset="0.639405" stop-color="#68066A"/>
</linearGradient>
<linearGradient id="paint31_linear_276_917" x1="23.9587" y1="7.37904" x2="24.0614" y2="12.8144" gradientUnits="userSpaceOnUse">
<stop stop-color="#FD98FF"/>
<stop offset="0.639405" stop-color="#68066A"/>
</linearGradient>
<linearGradient id="paint32_linear_276_917" x1="33.1982" y1="8.04255" x2="33.3732" y2="9.63289" gradientUnits="userSpaceOnUse">
<stop stop-color="#FD98FF"/>
<stop offset="0.639405" stop-color="#68066A"/>
</linearGradient>
<linearGradient id="paint33_linear_276_917" x1="16.0798" y1="22.8334" x2="16.1073" y2="23.9782" gradientUnits="userSpaceOnUse">
<stop stop-color="#FD98FF"/>
<stop offset="0.639405" stop-color="#68066A"/>
</linearGradient>
<linearGradient id="paint34_linear_276_917" x1="14.9589" y1="19.4128" x2="14.9879" y2="20.5603" gradientUnits="userSpaceOnUse">
<stop stop-color="#FD98FF"/>
<stop offset="0.639405" stop-color="#68066A"/>
</linearGradient>
<linearGradient id="paint35_linear_276_917" x1="15.4115" y1="20.2565" x2="15.43" y2="21.1687" gradientUnits="userSpaceOnUse">
<stop stop-color="#FD98FF"/>
<stop offset="0.639405" stop-color="#68066A"/>
</linearGradient>
</defs>
</svg>
