<svg width="179" height="189" viewBox="0 0 179 189" fill="none" xmlns="http://www.w3.org/2000/svg">
<path fill-rule="evenodd" clip-rule="evenodd" d="M16.5031 16.2792C15.9808 10.8922 15.718 5.46208 15.718 0H0.611115L0.624444 2.21453C0.695518 8.11576 1.05066 13.983 1.68629 19.8037L16.7111 18.2973L16.5031 16.2792ZM156.605 69.5895C130.478 55.6366 113.912 29.2202 113.912 0H98.8055L98.8115 1.04521C99.2063 35.5031 119.099 66.5447 150.188 82.728L157.4 70.0085L156.605 69.5895ZM19.5007 35.4778C31.8793 92.644 73.8051 140.089 130.165 161.518L131.877 162.16L126.449 175.668C65.0705 153.022 19.185 102.031 5.12516 40.2927L4.70886 38.4186L19.5007 35.4778ZM156.957 169.452C169.426 172.146 182.232 173.575 195.227 173.694L197 173.702V188.178C182.891 188.178 168.97 186.751 155.402 183.947L153.635 183.573L156.957 169.452ZM195.849 124.482C157.908 124.165 122.727 108.184 98.4338 81.1028L86.9776 90.5385L87.8027 91.4503C115.153 121.415 154.598 138.962 197 138.962V124.487L195.849 124.482ZM173.59 76.412C180.707 78.4101 188.111 79.4898 195.665 79.6036L197 79.6136V94.0888C187.992 94.0888 179.138 92.9245 170.618 90.6523L169.342 90.3031L173.59 76.412ZM67.0812 0C67.0812 22.1629 73.1275 43.4614 84.4411 62.2112L85.0634 63.2313L72.0574 70.595C59.199 49.7436 52.2135 25.994 51.9804 1.2792L51.9743 0H67.0812Z" fill="#4F02B6"/>
</svg>
